<svg xmlns="http://www.w3.org/2000/svg" xmlns:xlink="http://www.w3.org/1999/xlink" width="1684" zoomAndPan="magnify" viewBox="0 0 1263 818.999997" height="1092" preserveAspectRatio="xMidYMid meet" version="1.2"><defs><clipPath id="7b925da624"><path d="M 329.4375 0 L 932.945312 0 L 932.945312 603.507812 L 329.4375 603.507812 Z M 329.4375 0 "/></clipPath><clipPath id="b84fe5a1f3"><path d="M 356.4375 0 L 905.945312 0 C 913.105469 0 919.972656 2.84375 925.039062 7.90625 C 930.101562 12.972656 932.945312 19.839844 932.945312 27 L 932.945312 576.507812 C 932.945312 583.671875 930.101562 590.539062 925.039062 595.601562 C 919.972656 600.664062 913.105469 603.507812 905.945312 603.507812 L 356.4375 603.507812 C 349.273438 603.507812 342.40625 600.664062 337.34375 595.601562 C 332.28125 590.539062 329.4375 583.671875 329.4375 576.507812 L 329.4375 27 C 329.4375 19.839844 332.28125 12.972656 337.34375 7.90625 C 342.40625 2.84375 349.273438 0 356.4375 0 Z M 356.4375 0 "/></clipPath><linearGradient x1="-0.00000225942" gradientTransform="matrix(2.357458,0,0,2.357458,329.435911,0.00002)" y1="128" x2="255.999988" gradientUnits="userSpaceOnUse" y2="128" id="d9912abfb2"><stop style="stop-color:#9333ea;stop-opacity:1;" offset="0"/><stop style="stop-color:#9333ea;stop-opacity:1;" offset="0.0078125"/><stop style="stop-color:#9233ea;stop-opacity:1;" offset="0.015625"/><stop style="stop-color:#9233ea;stop-opacity:1;" offset="0.0234375"/><stop style="stop-color:#9134ea;stop-opacity:1;" offset="0.03125"/><stop style="stop-color:#9034ea;stop-opacity:1;" offset="0.0390625"/><stop style="stop-color:#9034ea;stop-opacity:1;" offset="0.046875"/><stop style="stop-color:#8f34ea;stop-opacity:1;" offset="0.0546875"/><stop style="stop-color:#8f34ea;stop-opacity:1;" offset="0.0625"/><stop style="stop-color:#8e34ea;stop-opacity:1;" offset="0.0703125"/><stop style="stop-color:#8e34ea;stop-opacity:1;" offset="0.078125"/><stop style="stop-color:#8d35ea;stop-opacity:1;" offset="0.0859375"/><stop style="stop-color:#8d35ea;stop-opacity:1;" offset="0.09375"/><stop style="stop-color:#8c35ea;stop-opacity:1;" offset="0.101562"/><stop style="stop-color:#8c35ea;stop-opacity:1;" offset="0.109375"/><stop style="stop-color:#8b35ea;stop-opacity:1;" offset="0.117188"/><stop style="stop-color:#8b35e9;stop-opacity:1;" offset="0.125"/><stop style="stop-color:#8a35e9;stop-opacity:1;" offset="0.132812"/><stop style="stop-color:#8a36e9;stop-opacity:1;" offset="0.140625"/><stop style="stop-color:#8936e9;stop-opacity:1;" offset="0.148438"/><stop style="stop-color:#8936e9;stop-opacity:1;" offset="0.15625"/><stop style="stop-color:#8836e9;stop-opacity:1;" offset="0.164062"/><stop style="stop-color:#8736e9;stop-opacity:1;" offset="0.171875"/><stop style="stop-color:#8736e9;stop-opacity:1;" offset="0.179688"/><stop style="stop-color:#8637e9;stop-opacity:1;" offset="0.1875"/><stop style="stop-color:#8637e9;stop-opacity:1;" offset="0.195312"/><stop style="stop-color:#8537e9;stop-opacity:1;" offset="0.203125"/><stop style="stop-color:#8537e9;stop-opacity:1;" offset="0.210938"/><stop style="stop-color:#8437e9;stop-opacity:1;" offset="0.21875"/><stop style="stop-color:#8437e9;stop-opacity:1;" offset="0.226562"/><stop style="stop-color:#8337e9;stop-opacity:1;" offset="0.234375"/><stop style="stop-color:#8338e9;stop-opacity:1;" offset="0.242188"/><stop style="stop-color:#8238e9;stop-opacity:1;" offset="0.25"/><stop style="stop-color:#8238e9;stop-opacity:1;" offset="0.257812"/><stop style="stop-color:#8138e9;stop-opacity:1;" offset="0.265625"/><stop style="stop-color:#8138e9;stop-opacity:1;" offset="0.273438"/><stop style="stop-color:#8038e9;stop-opacity:1;" offset="0.28125"/><stop style="stop-color:#8038e9;stop-opacity:1;" offset="0.289063"/><stop style="stop-color:#7f39e9;stop-opacity:1;" offset="0.296875"/><stop style="stop-color:#7e39e9;stop-opacity:1;" offset="0.304687"/><stop style="stop-color:#7e39e9;stop-opacity:1;" offset="0.3125"/><stop style="stop-color:#7d39e8;stop-opacity:1;" offset="0.320312"/><stop style="stop-color:#7d39e8;stop-opacity:1;" offset="0.328125"/><stop style="stop-color:#7c39e8;stop-opacity:1;" offset="0.335938"/><stop style="stop-color:#7c39e8;stop-opacity:1;" offset="0.34375"/><stop style="stop-color:#7b3ae8;stop-opacity:1;" offset="0.351562"/><stop style="stop-color:#7b3ae8;stop-opacity:1;" offset="0.359375"/><stop style="stop-color:#7a3ae8;stop-opacity:1;" offset="0.367188"/><stop style="stop-color:#7a3ae8;stop-opacity:1;" offset="0.375"/><stop style="stop-color:#793ae8;stop-opacity:1;" offset="0.382813"/><stop style="stop-color:#793ae8;stop-opacity:1;" offset="0.390625"/><stop style="stop-color:#783be8;stop-opacity:1;" offset="0.398438"/><stop style="stop-color:#783be8;stop-opacity:1;" offset="0.40625"/><stop style="stop-color:#773be8;stop-opacity:1;" offset="0.414062"/><stop style="stop-color:#773be8;stop-opacity:1;" offset="0.421875"/><stop style="stop-color:#763be8;stop-opacity:1;" offset="0.429688"/><stop style="stop-color:#753be8;stop-opacity:1;" offset="0.4375"/><stop style="stop-color:#753be8;stop-opacity:1;" offset="0.445312"/><stop style="stop-color:#743ce8;stop-opacity:1;" offset="0.453125"/><stop style="stop-color:#743ce8;stop-opacity:1;" offset="0.460938"/><stop style="stop-color:#733ce8;stop-opacity:1;" offset="0.46875"/><stop style="stop-color:#733ce8;stop-opacity:1;" offset="0.476563"/><stop style="stop-color:#723ce8;stop-opacity:1;" offset="0.484375"/><stop style="stop-color:#723ce8;stop-opacity:1;" offset="0.492188"/><stop style="stop-color:#713ce8;stop-opacity:1;" offset="0.5"/><stop style="stop-color:#713de8;stop-opacity:1;" offset="0.507812"/><stop style="stop-color:#703de7;stop-opacity:1;" offset="0.515625"/><stop style="stop-color:#703de7;stop-opacity:1;" offset="0.523438"/><stop style="stop-color:#6f3de7;stop-opacity:1;" offset="0.53125"/><stop style="stop-color:#6f3de7;stop-opacity:1;" offset="0.539062"/><stop style="stop-color:#6e3de7;stop-opacity:1;" offset="0.546875"/><stop style="stop-color:#6e3ee7;stop-opacity:1;" offset="0.554688"/><stop style="stop-color:#6d3ee7;stop-opacity:1;" offset="0.5625"/><stop style="stop-color:#6c3ee7;stop-opacity:1;" offset="0.570313"/><stop style="stop-color:#6c3ee7;stop-opacity:1;" offset="0.578125"/><stop style="stop-color:#6b3ee7;stop-opacity:1;" offset="0.585938"/><stop style="stop-color:#6b3ee7;stop-opacity:1;" offset="0.59375"/><stop style="stop-color:#6a3ee7;stop-opacity:1;" offset="0.601562"/><stop style="stop-color:#6a3fe7;stop-opacity:1;" offset="0.609375"/><stop style="stop-color:#693fe7;stop-opacity:1;" offset="0.617188"/><stop style="stop-color:#693fe7;stop-opacity:1;" offset="0.625"/><stop style="stop-color:#683fe7;stop-opacity:1;" offset="0.632812"/><stop style="stop-color:#683fe7;stop-opacity:1;" offset="0.640625"/><stop style="stop-color:#673fe7;stop-opacity:1;" offset="0.648438"/><stop style="stop-color:#673fe7;stop-opacity:1;" offset="0.65625"/><stop style="stop-color:#6640e7;stop-opacity:1;" offset="0.664063"/><stop style="stop-color:#6640e7;stop-opacity:1;" offset="0.671875"/><stop style="stop-color:#6540e7;stop-opacity:1;" offset="0.679688"/><stop style="stop-color:#6540e7;stop-opacity:1;" offset="0.6875"/><stop style="stop-color:#6440e7;stop-opacity:1;" offset="0.695312"/><stop style="stop-color:#6340e7;stop-opacity:1;" offset="0.703125"/><stop style="stop-color:#6341e6;stop-opacity:1;" offset="0.710938"/><stop style="stop-color:#6241e6;stop-opacity:1;" offset="0.71875"/><stop style="stop-color:#6241e6;stop-opacity:1;" offset="0.726562"/><stop style="stop-color:#6141e6;stop-opacity:1;" offset="0.734375"/><stop style="stop-color:#6141e6;stop-opacity:1;" offset="0.742188"/><stop style="stop-color:#6041e6;stop-opacity:1;" offset="0.75"/><stop style="stop-color:#6041e6;stop-opacity:1;" offset="0.757813"/><stop style="stop-color:#5f42e6;stop-opacity:1;" offset="0.765625"/><stop style="stop-color:#5f42e6;stop-opacity:1;" offset="0.773438"/><stop style="stop-color:#5e42e6;stop-opacity:1;" offset="0.78125"/><stop style="stop-color:#5e42e6;stop-opacity:1;" offset="0.789062"/><stop style="stop-color:#5d42e6;stop-opacity:1;" offset="0.796875"/><stop style="stop-color:#5d42e6;stop-opacity:1;" offset="0.804688"/><stop style="stop-color:#5c42e6;stop-opacity:1;" offset="0.8125"/><stop style="stop-color:#5c43e6;stop-opacity:1;" offset="0.820312"/><stop style="stop-color:#5b43e6;stop-opacity:1;" offset="0.828125"/><stop style="stop-color:#5a43e6;stop-opacity:1;" offset="0.835938"/><stop style="stop-color:#5a43e6;stop-opacity:1;" offset="0.84375"/><stop style="stop-color:#5943e6;stop-opacity:1;" offset="0.851563"/><stop style="stop-color:#5943e6;stop-opacity:1;" offset="0.859375"/><stop style="stop-color:#5844e6;stop-opacity:1;" offset="0.867188"/><stop style="stop-color:#5844e6;stop-opacity:1;" offset="0.875"/><stop style="stop-color:#5744e6;stop-opacity:1;" offset="0.882812"/><stop style="stop-color:#5744e6;stop-opacity:1;" offset="0.890625"/><stop style="stop-color:#5644e6;stop-opacity:1;" offset="0.898438"/><stop style="stop-color:#5644e5;stop-opacity:1;" offset="0.90625"/><stop style="stop-color:#5544e5;stop-opacity:1;" offset="0.914062"/><stop style="stop-color:#5545e5;stop-opacity:1;" offset="0.921875"/><stop style="stop-color:#5445e5;stop-opacity:1;" offset="0.929688"/><stop style="stop-color:#5445e5;stop-opacity:1;" offset="0.9375"/><stop style="stop-color:#5345e5;stop-opacity:1;" offset="0.945313"/><stop style="stop-color:#5245e5;stop-opacity:1;" offset="0.953125"/><stop style="stop-color:#5245e5;stop-opacity:1;" offset="0.960938"/><stop style="stop-color:#5145e5;stop-opacity:1;" offset="0.96875"/><stop style="stop-color:#5146e5;stop-opacity:1;" offset="0.976562"/><stop style="stop-color:#5046e5;stop-opacity:1;" offset="0.984375"/><stop style="stop-color:#5046e5;stop-opacity:1;" offset="0.992188"/><stop style="stop-color:#4f46e5;stop-opacity:1;" offset="1"/></linearGradient><clipPath id="109841f09a"><path d="M 440.445312 111.007812 L 822 111.007812 L 822 492.757812 L 440.445312 492.757812 Z M 440.445312 111.007812 "/></clipPath><clipPath id="a3166a0199"><path d="M 440.445312 138.007812 L 440.445312 465.5 C 440.445312 480.410156 452.535156 492.5 467.445312 492.5 L 794.933594 492.5 C 809.847656 492.5 821.933594 480.410156 821.933594 465.5 L 821.933594 138.007812 C 821.933594 123.097656 809.847656 111.007812 794.933594 111.007812 L 467.445312 111.007812 C 452.535156 111.007812 440.445312 123.097656 440.445312 138.007812 Z M 440.445312 138.007812 "/></clipPath></defs><g id="4d51fd890c"><g clip-rule="nonzero" clip-path="url(#7b925da624)"><g clip-rule="nonzero" clip-path="url(#b84fe5a1f3)"><path style=" stroke:none;fill-rule:nonzero;fill:url(#d9912abfb2);" d="M 329.4375 0 L 329.4375 603.507812 L 932.945312 603.507812 L 932.945312 0 Z M 329.4375 0 "/></g></g><g clip-rule="nonzero" clip-path="url(#109841f09a)"><g clip-rule="nonzero" clip-path="url(#a3166a0199)"><path style=" stroke:none;fill-rule:nonzero;fill:#f5f5f5;fill-opacity:1;" d="M 791.816406 271.640625 L 661.292969 271.640625 L 661.292969 141.117188 C 661.292969 124.660156 648.050781 111.007812 631.1875 111.007812 C 614.726562 111.007812 601.078125 124.25 601.078125 141.117188 L 601.078125 271.640625 L 470.554688 271.640625 C 454.09375 271.640625 440.445312 284.882812 440.445312 301.75 C 440.445312 310.183594 443.664062 317.398438 449.285156 323.050781 C 454.90625 328.640625 462.121094 331.859375 470.554688 331.859375 L 601.078125 331.859375 L 601.078125 462.382812 C 601.078125 470.816406 604.296875 478.027344 609.917969 483.652344 C 615.539062 489.273438 622.753906 492.488281 631.1875 492.488281 C 647.644531 492.488281 661.292969 479.25 661.292969 462.382812 L 661.292969 331.859375 L 791.816406 331.859375 C 808.277344 331.859375 821.925781 318.617188 821.925781 301.75 C 821.925781 285.289062 808.683594 271.640625 791.816406 271.640625 "/></g></g><g style="fill:#200330;fill-opacity:1;"><g transform="translate(39.552007, 765.374985)"><path style="stroke:none" d="M 3.59375 0 C 2.9375 0 2.390625 -0.234375 1.953125 -0.703125 C 1.523438 -1.179688 1.3125 -1.707031 1.3125 -2.28125 C 1.3125 -2.644531 1.347656 -2.972656 1.421875 -3.265625 L 27.296875 -73.203125 C 27.515625 -74.003906 27.953125 -74.691406 28.609375 -75.265625 C 29.265625 -75.847656 30.171875 -76.140625 31.328125 -76.140625 L 45.25 -76.140625 C 46.414062 -76.140625 47.320312 -75.847656 47.96875 -75.265625 C 48.625 -74.691406 49.097656 -74.003906 49.390625 -73.203125 L 75.171875 -3.265625 C 75.316406 -2.972656 75.390625 -2.644531 75.390625 -2.28125 C 75.390625 -1.707031 75.148438 -1.179688 74.671875 -0.703125 C 74.203125 -0.234375 73.644531 0 73 0 L 61.5625 0 C 60.550781 0 59.789062 -0.25 59.28125 -0.75 C 58.78125 -1.257812 58.457031 -1.734375 58.3125 -2.171875 L 53.625 -14.359375 L 22.953125 -14.359375 L 18.390625 -2.171875 C 18.171875 -1.734375 17.820312 -1.257812 17.34375 -0.75 C 16.875 -0.25 16.097656 0 15.015625 0 Z M 27.09375 -28.390625 L 49.5 -28.390625 L 38.296875 -59.609375 Z M 27.09375 -28.390625 "/></g></g><g style="fill:#200330;fill-opacity:1;"><g transform="translate(116.136792, 765.374985)"><path style="stroke:none" d="M 10.65625 0 C 9.9375 0 9.320312 -0.25 8.8125 -0.75 C 8.300781 -1.257812 8.046875 -1.914062 8.046875 -2.71875 L 8.046875 -73.421875 C 8.046875 -74.222656 8.300781 -74.875 8.8125 -75.375 C 9.320312 -75.882812 9.9375 -76.140625 10.65625 -76.140625 L 38.078125 -76.140625 C 45.328125 -76.140625 51.378906 -75 56.234375 -72.71875 C 61.097656 -70.4375 64.816406 -67.097656 67.390625 -62.703125 C 69.960938 -58.316406 71.320312 -52.898438 71.46875 -46.453125 C 71.613281 -43.253906 71.6875 -40.457031 71.6875 -38.0625 C 71.6875 -35.675781 71.613281 -32.925781 71.46875 -29.8125 C 71.25 -23.0625 69.90625 -17.472656 67.4375 -13.046875 C 64.976562 -8.628906 61.375 -5.347656 56.625 -3.203125 C 51.875 -1.066406 45.875 0 38.625 0 Z M 25.34375 -14.140625 L 38.078125 -14.140625 C 41.703125 -14.140625 44.65625 -14.664062 46.9375 -15.71875 C 49.21875 -16.769531 50.9375 -18.472656 52.09375 -20.828125 C 53.257812 -23.179688 53.878906 -26.25 53.953125 -30.03125 C 54.023438 -32.125 54.078125 -34.003906 54.109375 -35.671875 C 54.148438 -37.347656 54.148438 -39.019531 54.109375 -40.6875 C 54.078125 -42.351562 54.023438 -44.203125 53.953125 -46.234375 C 53.804688 -51.671875 52.410156 -55.65625 49.765625 -58.1875 C 47.117188 -60.726562 43.039062 -62 37.53125 -62 L 25.34375 -62 Z M 25.34375 -14.140625 "/></g></g><g style="fill:#200330;fill-opacity:1;"><g transform="translate(193.265504, 765.374985)"><path style="stroke:none" d="M 10.65625 0 C 9.9375 0 9.320312 -0.25 8.8125 -0.75 C 8.300781 -1.257812 8.046875 -1.914062 8.046875 -2.71875 L 8.046875 -73.421875 C 8.046875 -74.222656 8.300781 -74.875 8.8125 -75.375 C 9.320312 -75.882812 9.9375 -76.140625 10.65625 -76.140625 L 38.078125 -76.140625 C 45.328125 -76.140625 51.378906 -75 56.234375 -72.71875 C 61.097656 -70.4375 64.816406 -67.097656 67.390625 -62.703125 C 69.960938 -58.316406 71.320312 -52.898438 71.46875 -46.453125 C 71.613281 -43.253906 71.6875 -40.457031 71.6875 -38.0625 C 71.6875 -35.675781 71.613281 -32.925781 71.46875 -29.8125 C 71.25 -23.0625 69.90625 -17.472656 67.4375 -13.046875 C 64.976562 -8.628906 61.375 -5.347656 56.625 -3.203125 C 51.875 -1.066406 45.875 0 38.625 0 Z M 25.34375 -14.140625 L 38.078125 -14.140625 C 41.703125 -14.140625 44.65625 -14.664062 46.9375 -15.71875 C 49.21875 -16.769531 50.9375 -18.472656 52.09375 -20.828125 C 53.257812 -23.179688 53.878906 -26.25 53.953125 -30.03125 C 54.023438 -32.125 54.078125 -34.003906 54.109375 -35.671875 C 54.148438 -37.347656 54.148438 -39.019531 54.109375 -40.6875 C 54.078125 -42.351562 54.023438 -44.203125 53.953125 -46.234375 C 53.804688 -51.671875 52.410156 -55.65625 49.765625 -58.1875 C 47.117188 -60.726562 43.039062 -62 37.53125 -62 L 25.34375 -62 Z M 25.34375 -14.140625 "/></g></g><g style="fill:#200330;fill-opacity:1;"><g transform="translate(270.394204, 765.374985)"><path style="stroke:none" d=""/></g></g><g style="fill:#200330;fill-opacity:1;"><g transform="translate(291.389695, 765.374985)"><path style="stroke:none" d="M 30.5625 0 C 29.769531 0 29.117188 -0.25 28.609375 -0.75 C 28.097656 -1.257812 27.84375 -1.914062 27.84375 -2.71875 L 27.84375 -26.65625 L 2.390625 -72.671875 C 2.316406 -72.890625 2.242188 -73.085938 2.171875 -73.265625 C 2.097656 -73.441406 2.0625 -73.640625 2.0625 -73.859375 C 2.0625 -74.441406 2.296875 -74.96875 2.765625 -75.4375 C 3.242188 -75.90625 3.769531 -76.140625 4.34375 -76.140625 L 15.984375 -76.140625 C 16.929688 -76.140625 17.691406 -75.882812 18.265625 -75.375 C 18.847656 -74.875 19.25 -74.40625 19.46875 -73.96875 L 36.546875 -44.0625 L 53.625 -73.96875 C 53.84375 -74.40625 54.242188 -74.875 54.828125 -75.375 C 55.410156 -75.882812 56.207031 -76.140625 57.21875 -76.140625 L 68.75 -76.140625 C 69.40625 -76.140625 69.945312 -75.90625 70.375 -75.4375 C 70.8125 -74.96875 71.03125 -74.441406 71.03125 -73.859375 C 71.03125 -73.640625 71.007812 -73.441406 70.96875 -73.265625 C 70.9375 -73.085938 70.847656 -72.890625 70.703125 -72.671875 L 45.25 -26.65625 L 45.25 -2.71875 C 45.25 -1.914062 44.992188 -1.257812 44.484375 -0.75 C 43.984375 -0.25 43.332031 0 42.53125 0 Z M 30.5625 0 "/></g></g><g style="fill:#200330;fill-opacity:1;"><g transform="translate(361.012158, 765.374985)"><path style="stroke:none" d="M 38.296875 1.09375 C 31.691406 1.09375 25.992188 0.00390625 21.203125 -2.171875 C 16.421875 -4.347656 12.6875 -7.628906 10 -12.015625 C 7.320312 -16.410156 5.875 -21.941406 5.65625 -28.609375 C 5.582031 -31.722656 5.546875 -34.820312 5.546875 -37.90625 C 5.546875 -40.988281 5.582031 -44.125 5.65625 -47.3125 C 5.875 -53.84375 7.34375 -59.335938 10.0625 -63.796875 C 12.78125 -68.253906 16.550781 -71.609375 21.375 -73.859375 C 26.195312 -76.109375 31.835938 -77.234375 38.296875 -77.234375 C 44.671875 -77.234375 50.269531 -76.109375 55.09375 -73.859375 C 59.914062 -71.609375 63.703125 -68.253906 66.453125 -63.796875 C 69.210938 -59.335938 70.703125 -53.84375 70.921875 -47.3125 C 71.066406 -44.125 71.140625 -40.988281 71.140625 -37.90625 C 71.140625 -34.820312 71.066406 -31.722656 70.921875 -28.609375 C 70.703125 -21.941406 69.234375 -16.410156 66.515625 -12.015625 C 63.796875 -7.628906 60.039062 -4.347656 55.25 -2.171875 C 50.46875 0.00390625 44.816406 1.09375 38.296875 1.09375 Z M 38.296875 -13.046875 C 42.492188 -13.046875 45.953125 -14.316406 48.671875 -16.859375 C 51.398438 -19.398438 52.832031 -23.5 52.96875 -29.15625 C 53.113281 -32.34375 53.1875 -35.332031 53.1875 -38.125 C 53.1875 -40.914062 53.113281 -43.875 52.96875 -47 C 52.90625 -50.769531 52.21875 -53.847656 50.90625 -56.234375 C 49.601562 -58.628906 47.878906 -60.367188 45.734375 -61.453125 C 43.597656 -62.546875 41.117188 -63.09375 38.296875 -63.09375 C 35.535156 -63.09375 33.066406 -62.546875 30.890625 -61.453125 C 28.710938 -60.367188 26.972656 -58.628906 25.671875 -56.234375 C 24.367188 -53.847656 23.644531 -50.769531 23.5 -47 C 23.425781 -43.875 23.390625 -40.914062 23.390625 -38.125 C 23.390625 -35.332031 23.425781 -32.34375 23.5 -29.15625 C 23.71875 -23.5 25.164062 -19.398438 27.84375 -16.859375 C 30.53125 -14.316406 34.015625 -13.046875 38.296875 -13.046875 Z M 38.296875 -13.046875 "/></g></g><g style="fill:#200330;fill-opacity:1;"><g transform="translate(437.488145, 765.374985)"><path style="stroke:none" d="M 39.15625 1.09375 C 32.78125 1.09375 27.195312 0.0234375 22.40625 -2.109375 C 17.625 -4.253906 13.925781 -7.554688 11.3125 -12.015625 C 8.695312 -16.472656 7.390625 -22.148438 7.390625 -29.046875 L 7.390625 -73.421875 C 7.390625 -74.222656 7.644531 -74.875 8.15625 -75.375 C 8.664062 -75.882812 9.285156 -76.140625 10.015625 -76.140625 L 21.96875 -76.140625 C 22.769531 -76.140625 23.421875 -75.882812 23.921875 -75.375 C 24.429688 -74.875 24.6875 -74.222656 24.6875 -73.421875 L 24.6875 -29.15625 C 24.6875 -23.863281 25.957031 -19.910156 28.5 -17.296875 C 31.039062 -14.679688 34.59375 -13.375 39.15625 -13.375 C 43.65625 -13.375 47.171875 -14.679688 49.703125 -17.296875 C 52.242188 -19.910156 53.515625 -23.863281 53.515625 -29.15625 L 53.515625 -73.421875 C 53.515625 -74.222656 53.785156 -74.875 54.328125 -75.375 C 54.878906 -75.882812 55.515625 -76.140625 56.234375 -76.140625 L 68.203125 -76.140625 C 68.929688 -76.140625 69.546875 -75.882812 70.046875 -75.375 C 70.554688 -74.875 70.8125 -74.222656 70.8125 -73.421875 L 70.8125 -29.046875 C 70.8125 -22.148438 69.523438 -16.472656 66.953125 -12.015625 C 64.378906 -7.554688 60.71875 -4.253906 55.96875 -2.109375 C 51.21875 0.0234375 45.613281 1.09375 39.15625 1.09375 Z M 39.15625 1.09375 "/></g></g><g style="fill:#200330;fill-opacity:1;"><g transform="translate(515.704709, 765.374985)"><path style="stroke:none" d="M 10.65625 0 C 9.9375 0 9.320312 -0.25 8.8125 -0.75 C 8.300781 -1.257812 8.046875 -1.914062 8.046875 -2.71875 L 8.046875 -73.421875 C 8.046875 -74.222656 8.300781 -74.875 8.8125 -75.375 C 9.320312 -75.882812 9.9375 -76.140625 10.65625 -76.140625 L 39.59375 -76.140625 C 48.65625 -76.140625 55.796875 -74.054688 61.015625 -69.890625 C 66.242188 -65.722656 68.859375 -59.722656 68.859375 -51.890625 C 68.859375 -46.597656 67.585938 -42.171875 65.046875 -38.609375 C 62.515625 -35.054688 59.109375 -32.410156 54.828125 -30.671875 L 70.265625 -3.484375 C 70.484375 -3.046875 70.59375 -2.644531 70.59375 -2.28125 C 70.59375 -1.707031 70.359375 -1.179688 69.890625 -0.703125 C 69.421875 -0.234375 68.894531 0 68.3125 0 L 56.125 0 C 54.820312 0 53.84375 -0.34375 53.1875 -1.03125 C 52.539062 -1.71875 52.070312 -2.351562 51.78125 -2.9375 L 38.515625 -27.84375 L 25.34375 -27.84375 L 25.34375 -2.71875 C 25.34375 -1.914062 25.085938 -1.257812 24.578125 -0.75 C 24.078125 -0.25 23.425781 0 22.625 0 Z M 25.34375 -41.65625 L 39.375 -41.65625 C 43.289062 -41.65625 46.207031 -42.5625 48.125 -44.375 C 50.050781 -46.195312 51.015625 -48.738281 51.015625 -52 C 51.015625 -55.257812 50.070312 -57.832031 48.1875 -59.71875 C 46.300781 -61.601562 43.363281 -62.546875 39.375 -62.546875 L 25.34375 -62.546875 Z M 25.34375 -41.65625 "/></g></g><g style="fill:#200330;fill-opacity:1;"><g transform="translate(589.896249, 765.374985)"><path style="stroke:none" d=""/></g></g><g style="fill:#200330;fill-opacity:1;"><g transform="translate(613.937768, 765.374985)"><path style="stroke:none" d="M 10.65625 0 C 9.9375 0 9.320312 -0.25 8.8125 -0.75 C 8.300781 -1.257812 8.046875 -1.914062 8.046875 -2.71875 L 8.046875 -73.421875 C 8.046875 -74.222656 8.300781 -74.875 8.8125 -75.375 C 9.320312 -75.882812 9.9375 -76.140625 10.65625 -76.140625 L 22.953125 -76.140625 C 23.679688 -76.140625 24.296875 -75.882812 24.796875 -75.375 C 25.304688 -74.875 25.5625 -74.222656 25.5625 -73.421875 L 25.5625 -14.6875 L 59.28125 -14.6875 C 60.082031 -14.6875 60.734375 -14.429688 61.234375 -13.921875 C 61.742188 -13.410156 62 -12.757812 62 -11.96875 L 62 -2.71875 C 62 -1.914062 61.742188 -1.257812 61.234375 -0.75 C 60.734375 -0.25 60.082031 0 59.28125 0 Z M 10.65625 0 "/></g></g><g style="fill:#200330;fill-opacity:1;"><g transform="translate(676.924353, 765.374985)"><path style="stroke:none" d="M 38.296875 1.09375 C 31.691406 1.09375 25.992188 0.00390625 21.203125 -2.171875 C 16.421875 -4.347656 12.6875 -7.628906 10 -12.015625 C 7.320312 -16.410156 5.875 -21.941406 5.65625 -28.609375 C 5.582031 -31.722656 5.546875 -34.820312 5.546875 -37.90625 C 5.546875 -40.988281 5.582031 -44.125 5.65625 -47.3125 C 5.875 -53.84375 7.34375 -59.335938 10.0625 -63.796875 C 12.78125 -68.253906 16.550781 -71.609375 21.375 -73.859375 C 26.195312 -76.109375 31.835938 -77.234375 38.296875 -77.234375 C 44.671875 -77.234375 50.269531 -76.109375 55.09375 -73.859375 C 59.914062 -71.609375 63.703125 -68.253906 66.453125 -63.796875 C 69.210938 -59.335938 70.703125 -53.84375 70.921875 -47.3125 C 71.066406 -44.125 71.140625 -40.988281 71.140625 -37.90625 C 71.140625 -34.820312 71.066406 -31.722656 70.921875 -28.609375 C 70.703125 -21.941406 69.234375 -16.410156 66.515625 -12.015625 C 63.796875 -7.628906 60.039062 -4.347656 55.25 -2.171875 C 50.46875 0.00390625 44.816406 1.09375 38.296875 1.09375 Z M 38.296875 -13.046875 C 42.492188 -13.046875 45.953125 -14.316406 48.671875 -16.859375 C 51.398438 -19.398438 52.832031 -23.5 52.96875 -29.15625 C 53.113281 -32.34375 53.1875 -35.332031 53.1875 -38.125 C 53.1875 -40.914062 53.113281 -43.875 52.96875 -47 C 52.90625 -50.769531 52.21875 -53.847656 50.90625 -56.234375 C 49.601562 -58.628906 47.878906 -60.367188 45.734375 -61.453125 C 43.597656 -62.546875 41.117188 -63.09375 38.296875 -63.09375 C 35.535156 -63.09375 33.066406 -62.546875 30.890625 -61.453125 C 28.710938 -60.367188 26.972656 -58.628906 25.671875 -56.234375 C 24.367188 -53.847656 23.644531 -50.769531 23.5 -47 C 23.425781 -43.875 23.390625 -40.914062 23.390625 -38.125 C 23.390625 -35.332031 23.425781 -32.34375 23.5 -29.15625 C 23.71875 -23.5 25.164062 -19.398438 27.84375 -16.859375 C 30.53125 -14.316406 34.015625 -13.046875 38.296875 -13.046875 Z M 38.296875 -13.046875 "/></g></g><g style="fill:#200330;fill-opacity:1;"><g transform="translate(753.400363, 765.374985)"><path style="stroke:none" d="M 38.625 1.09375 C 31.800781 1.09375 25.976562 -0.046875 21.15625 -2.328125 C 16.332031 -4.617188 12.597656 -7.957031 9.953125 -12.34375 C 7.304688 -16.726562 5.875 -22.039062 5.65625 -28.28125 C 5.582031 -31.394531 5.546875 -34.726562 5.546875 -38.28125 C 5.546875 -41.84375 5.582031 -45.21875 5.65625 -48.40625 C 5.875 -54.5 7.304688 -59.679688 9.953125 -63.953125 C 12.597656 -68.234375 16.367188 -71.515625 21.265625 -73.796875 C 26.160156 -76.085938 31.945312 -77.234375 38.625 -77.234375 C 43.988281 -77.234375 48.695312 -76.539062 52.75 -75.15625 C 56.8125 -73.78125 60.238281 -71.988281 63.03125 -69.78125 C 65.832031 -67.570312 67.9375 -65.160156 69.34375 -62.546875 C 70.757812 -59.941406 71.503906 -57.40625 71.578125 -54.9375 C 71.578125 -54.28125 71.359375 -53.734375 70.921875 -53.296875 C 70.484375 -52.867188 69.90625 -52.65625 69.1875 -52.65625 L 55.703125 -52.65625 C 54.972656 -52.65625 54.40625 -52.796875 54 -53.078125 C 53.601562 -53.367188 53.257812 -53.804688 52.96875 -54.390625 C 52.46875 -55.617188 51.65625 -56.921875 50.53125 -58.296875 C 49.40625 -59.679688 47.898438 -60.828125 46.015625 -61.734375 C 44.128906 -62.640625 41.664062 -63.09375 38.625 -63.09375 C 34.050781 -63.09375 30.441406 -61.894531 27.796875 -59.5 C 25.148438 -57.101562 23.71875 -53.222656 23.5 -47.859375 C 23.28125 -41.628906 23.28125 -35.285156 23.5 -28.828125 C 23.71875 -23.242188 25.203125 -19.21875 27.953125 -16.75 C 30.710938 -14.28125 34.335938 -13.046875 38.828125 -13.046875 C 41.804688 -13.046875 44.472656 -13.570312 46.828125 -14.625 C 49.179688 -15.675781 51.046875 -17.304688 52.421875 -19.515625 C 53.804688 -21.734375 54.5 -24.582031 54.5 -28.0625 L 54.5 -30.78125 L 42.640625 -30.78125 C 41.910156 -30.78125 41.289062 -31.050781 40.78125 -31.59375 C 40.28125 -32.144531 40.03125 -32.78125 40.03125 -33.5 L 40.03125 -40.46875 C 40.03125 -41.257812 40.28125 -41.910156 40.78125 -42.421875 C 41.289062 -42.929688 41.910156 -43.1875 42.640625 -43.1875 L 69.40625 -43.1875 C 70.195312 -43.1875 70.847656 -42.929688 71.359375 -42.421875 C 71.867188 -41.910156 72.125 -41.257812 72.125 -40.46875 L 72.125 -28.609375 C 72.125 -22.367188 70.742188 -17.035156 67.984375 -12.609375 C 65.234375 -8.191406 61.335938 -4.800781 56.296875 -2.4375 C 51.253906 -0.0820312 45.363281 1.09375 38.625 1.09375 Z M 38.625 1.09375 "/></g></g><g style="fill:#200330;fill-opacity:1;"><g transform="translate(830.637908, 765.374985)"><path style="stroke:none" d="M 38.296875 1.09375 C 31.691406 1.09375 25.992188 0.00390625 21.203125 -2.171875 C 16.421875 -4.347656 12.6875 -7.628906 10 -12.015625 C 7.320312 -16.410156 5.875 -21.941406 5.65625 -28.609375 C 5.582031 -31.722656 5.546875 -34.820312 5.546875 -37.90625 C 5.546875 -40.988281 5.582031 -44.125 5.65625 -47.3125 C 5.875 -53.84375 7.34375 -59.335938 10.0625 -63.796875 C 12.78125 -68.253906 16.550781 -71.609375 21.375 -73.859375 C 26.195312 -76.109375 31.835938 -77.234375 38.296875 -77.234375 C 44.671875 -77.234375 50.269531 -76.109375 55.09375 -73.859375 C 59.914062 -71.609375 63.703125 -68.253906 66.453125 -63.796875 C 69.210938 -59.335938 70.703125 -53.84375 70.921875 -47.3125 C 71.066406 -44.125 71.140625 -40.988281 71.140625 -37.90625 C 71.140625 -34.820312 71.066406 -31.722656 70.921875 -28.609375 C 70.703125 -21.941406 69.234375 -16.410156 66.515625 -12.015625 C 63.796875 -7.628906 60.039062 -4.347656 55.25 -2.171875 C 50.46875 0.00390625 44.816406 1.09375 38.296875 1.09375 Z M 38.296875 -13.046875 C 42.492188 -13.046875 45.953125 -14.316406 48.671875 -16.859375 C 51.398438 -19.398438 52.832031 -23.5 52.96875 -29.15625 C 53.113281 -32.34375 53.1875 -35.332031 53.1875 -38.125 C 53.1875 -40.914062 53.113281 -43.875 52.96875 -47 C 52.90625 -50.769531 52.21875 -53.847656 50.90625 -56.234375 C 49.601562 -58.628906 47.878906 -60.367188 45.734375 -61.453125 C 43.597656 -62.546875 41.117188 -63.09375 38.296875 -63.09375 C 35.535156 -63.09375 33.066406 -62.546875 30.890625 -61.453125 C 28.710938 -60.367188 26.972656 -58.628906 25.671875 -56.234375 C 24.367188 -53.847656 23.644531 -50.769531 23.5 -47 C 23.425781 -43.875 23.390625 -40.914062 23.390625 -38.125 C 23.390625 -35.332031 23.425781 -32.34375 23.5 -29.15625 C 23.71875 -23.5 25.164062 -19.398438 27.84375 -16.859375 C 30.53125 -14.316406 34.015625 -13.046875 38.296875 -13.046875 Z M 38.296875 -13.046875 "/></g></g><g style="fill:#200330;fill-opacity:1;"><g transform="translate(907.113918, 765.374985)"><path style="stroke:none" d=""/></g></g><g style="fill:#200330;fill-opacity:1;"><g transform="translate(931.15539, 765.374985)"><path style="stroke:none" d="M 10.65625 0 C 9.9375 0 9.320312 -0.25 8.8125 -0.75 C 8.300781 -1.257812 8.046875 -1.914062 8.046875 -2.71875 L 8.046875 -73.421875 C 8.046875 -74.222656 8.300781 -74.875 8.8125 -75.375 C 9.320312 -75.882812 9.9375 -76.140625 10.65625 -76.140625 L 22.625 -76.140625 C 23.425781 -76.140625 24.078125 -75.882812 24.578125 -75.375 C 25.085938 -74.875 25.34375 -74.222656 25.34375 -73.421875 L 25.34375 -46.234375 L 54.828125 -46.234375 L 54.828125 -73.421875 C 54.828125 -74.222656 55.078125 -74.875 55.578125 -75.375 C 56.085938 -75.882812 56.707031 -76.140625 57.4375 -76.140625 L 69.40625 -76.140625 C 70.195312 -76.140625 70.847656 -75.882812 71.359375 -75.375 C 71.867188 -74.875 72.125 -74.222656 72.125 -73.421875 L 72.125 -2.71875 C 72.125 -1.914062 71.867188 -1.257812 71.359375 -0.75 C 70.847656 -0.25 70.195312 0 69.40625 0 L 57.4375 0 C 56.707031 0 56.085938 -0.25 55.578125 -0.75 C 55.078125 -1.257812 54.828125 -1.914062 54.828125 -2.71875 L 54.828125 -30.78125 L 25.34375 -30.78125 L 25.34375 -2.71875 C 25.34375 -1.914062 25.085938 -1.257812 24.578125 -0.75 C 24.078125 -0.25 23.425781 0 22.625 0 Z M 10.65625 0 "/></g></g><g style="fill:#200330;fill-opacity:1;"><g transform="translate(1011.33013, 765.374985)"><path style="stroke:none" d="M 10.65625 0 C 9.9375 0 9.320312 -0.25 8.8125 -0.75 C 8.300781 -1.257812 8.046875 -1.914062 8.046875 -2.71875 L 8.046875 -73.421875 C 8.046875 -74.222656 8.300781 -74.875 8.8125 -75.375 C 9.320312 -75.882812 9.9375 -76.140625 10.65625 -76.140625 L 60.046875 -76.140625 C 60.847656 -76.140625 61.5 -75.882812 62 -75.375 C 62.507812 -74.875 62.765625 -74.222656 62.765625 -73.421875 L 62.765625 -64.71875 C 62.765625 -63.925781 62.507812 -63.273438 62 -62.765625 C 61.5 -62.253906 60.847656 -62 60.046875 -62 L 24.796875 -62 L 24.796875 -45.03125 L 57.65625 -45.03125 C 58.445312 -45.03125 59.097656 -44.773438 59.609375 -44.265625 C 60.117188 -43.765625 60.375 -43.113281 60.375 -42.3125 L 60.375 -34.265625 C 60.375 -33.535156 60.117188 -32.898438 59.609375 -32.359375 C 59.097656 -31.816406 58.445312 -31.546875 57.65625 -31.546875 L 24.796875 -31.546875 L 24.796875 -14.140625 L 60.921875 -14.140625 C 61.710938 -14.140625 62.363281 -13.882812 62.875 -13.375 C 63.382812 -12.875 63.640625 -12.222656 63.640625 -11.421875 L 63.640625 -2.71875 C 63.640625 -1.914062 63.382812 -1.257812 62.875 -0.75 C 62.363281 -0.25 61.710938 0 60.921875 0 Z M 10.65625 0 "/></g></g><g style="fill:#200330;fill-opacity:1;"><g transform="translate(1079.973529, 765.374985)"><path style="stroke:none" d="M 10.65625 0 C 9.9375 0 9.320312 -0.25 8.8125 -0.75 C 8.300781 -1.257812 8.046875 -1.914062 8.046875 -2.71875 L 8.046875 -73.421875 C 8.046875 -74.222656 8.300781 -74.875 8.8125 -75.375 C 9.320312 -75.882812 9.9375 -76.140625 10.65625 -76.140625 L 39.59375 -76.140625 C 48.65625 -76.140625 55.796875 -74.054688 61.015625 -69.890625 C 66.242188 -65.722656 68.859375 -59.722656 68.859375 -51.890625 C 68.859375 -46.597656 67.585938 -42.171875 65.046875 -38.609375 C 62.515625 -35.054688 59.109375 -32.410156 54.828125 -30.671875 L 70.265625 -3.484375 C 70.484375 -3.046875 70.59375 -2.644531 70.59375 -2.28125 C 70.59375 -1.707031 70.359375 -1.179688 69.890625 -0.703125 C 69.421875 -0.234375 68.894531 0 68.3125 0 L 56.125 0 C 54.820312 0 53.84375 -0.34375 53.1875 -1.03125 C 52.539062 -1.71875 52.070312 -2.351562 51.78125 -2.9375 L 38.515625 -27.84375 L 25.34375 -27.84375 L 25.34375 -2.71875 C 25.34375 -1.914062 25.085938 -1.257812 24.578125 -0.75 C 24.078125 -0.25 23.425781 0 22.625 0 Z M 25.34375 -41.65625 L 39.375 -41.65625 C 43.289062 -41.65625 46.207031 -42.5625 48.125 -44.375 C 50.050781 -46.195312 51.015625 -48.738281 51.015625 -52 C 51.015625 -55.257812 50.070312 -57.832031 48.1875 -59.71875 C 46.300781 -61.601562 43.363281 -62.546875 39.375 -62.546875 L 25.34375 -62.546875 Z M 25.34375 -41.65625 "/></g></g><g style="fill:#200330;fill-opacity:1;"><g transform="translate(1154.165115, 765.374985)"><path style="stroke:none" d="M 10.65625 0 C 9.9375 0 9.320312 -0.25 8.8125 -0.75 C 8.300781 -1.257812 8.046875 -1.914062 8.046875 -2.71875 L 8.046875 -73.421875 C 8.046875 -74.222656 8.300781 -74.875 8.8125 -75.375 C 9.320312 -75.882812 9.9375 -76.140625 10.65625 -76.140625 L 60.046875 -76.140625 C 60.847656 -76.140625 61.5 -75.882812 62 -75.375 C 62.507812 -74.875 62.765625 -74.222656 62.765625 -73.421875 L 62.765625 -64.71875 C 62.765625 -63.925781 62.507812 -63.273438 62 -62.765625 C 61.5 -62.253906 60.847656 -62 60.046875 -62 L 24.796875 -62 L 24.796875 -45.03125 L 57.65625 -45.03125 C 58.445312 -45.03125 59.097656 -44.773438 59.609375 -44.265625 C 60.117188 -43.765625 60.375 -43.113281 60.375 -42.3125 L 60.375 -34.265625 C 60.375 -33.535156 60.117188 -32.898438 59.609375 -32.359375 C 59.097656 -31.816406 58.445312 -31.546875 57.65625 -31.546875 L 24.796875 -31.546875 L 24.796875 -14.140625 L 60.921875 -14.140625 C 61.710938 -14.140625 62.363281 -13.882812 62.875 -13.375 C 63.382812 -12.875 63.640625 -12.222656 63.640625 -11.421875 L 63.640625 -2.71875 C 63.640625 -1.914062 63.382812 -1.257812 62.875 -0.75 C 62.363281 -0.25 61.710938 0 60.921875 0 Z M 10.65625 0 "/></g></g></g></svg>