<svg id="Layer_1" version="1.1" viewBox="0 0 414 73" xml:space="preserve" xmlns="http://www.w3.org/2000/svg"><style>.st0{fill:#446ca9}.st1{fill:#76c4d5}</style><path d="M101.2 32c3.3 0 5.9-1.3 8-3.9l4.2 4.4c-3.4 3.8-7.3 5.7-11.9 5.7s-8.3-1.4-11.3-4.3-4.4-6.5-4.4-10.9 1.5-8.1 4.5-11 6.7-4.4 11.1-4.4c4.9 0 9 1.9 12.2 5.6l-4.1 4.7c-2.1-2.6-4.7-3.9-7.8-3.9-2.5 0-4.6.8-6.4 2.4s-2.7 3.8-2.7 6.6.8 5 2.5 6.7c1.7 1.4 3.7 2.3 6.1 2.3zM118.7 37.8V8.1h6.6v23.8H138v5.9zM167 33.7c-3 2.9-6.7 4.4-11.1 4.4s-8.1-1.5-11.1-4.4-4.5-6.6-4.5-10.9 1.5-8 4.5-10.9 6.7-4.4 11.1-4.4S164 9 167 11.9s4.5 6.6 4.5 10.9-1.5 8-4.5 10.9zm-2.3-10.9c0-2.6-.9-4.9-2.5-6.8-1.7-1.9-3.8-2.8-6.3-2.8s-4.6.9-6.3 2.8-2.6 4.1-2.6 6.8.9 4.9 2.6 6.8 3.8 2.8 6.3 2.8 4.6-.9 6.3-2.8 2.5-4.1 2.5-6.8zM185 30.2c1.1 1.4 2.6 2.1 4.5 2.1s3.4-.7 4.4-2.1c1.1-1.4 1.6-3.3 1.6-5.6V8.1h6.6v16.6c0 4.3-1.2 7.6-3.6 9.9s-5.4 3.5-9.1 3.5-6.8-1.2-9.2-3.5-3.6-5.6-3.6-9.9V8.1h6.6v16.4c.1 2.4.7 4.3 1.8 5.7zM231.7 12c2.8 2.6 4.3 6.2 4.3 10.8s-1.4 8.3-4.1 11c-2.8 2.7-7 4-12.6 4H209V8.1h10.5c5.3 0 9.4 1.3 12.2 3.9zm-4.8 17.7c1.6-1.5 2.4-3.8 2.4-6.7s-.8-5.2-2.4-6.7c-1.6-1.6-4.1-2.4-7.5-2.4h-3.7V32h4.2c3 0 5.3-.8 7-2.3zM273.7 8.1h6.7v29.7h-6.7l-14.1-18.6v18.6h-6.7V8.1h6.3l14.5 19.2zM308.8 37.8l-2.8-6.4h-12.5l-2.8 6.4h-7.1l12.8-29.7h6.4l12.8 29.7h-6.8zM299.9 17l-3.7 8.6h7.4l-3.7-8.6zM329.8 13.9v23.9h-6.7V13.9h-8.4V8.1h23.5v5.8zM343 8.1h6.6v29.7H343zM367.9 27l7.6-18.9h7.2l-12 29.7h-5.6L353.2 8.1h7.2zM407.6 8.1V14h-14.8v6.2h13.3v5.6h-13.3V32h15.3v5.8h-21.9V8.1zM93.6 63.1c1.8 0 3.3-.7 4.5-2.2l2.4 2.5c-1.9 2.1-4.1 3.2-6.7 3.2s-4.7-.8-6.3-2.4c-1.7-1.6-2.5-3.7-2.5-6.1 0-2.5.8-4.5 2.5-6.2s3.8-2.5 6.2-2.5c2.7 0 5 1 6.9 3.1l-2.3 2.6c-1.2-1.5-2.6-2.2-4.4-2.2-1.4 0-2.6.5-3.6 1.4s-1.5 2.1-1.5 3.7.5 2.8 1.4 3.7c.9 1 2.1 1.4 3.4 1.4zM117 64.1c-1.7 1.6-3.8 2.5-6.2 2.5s-4.5-.8-6.2-2.5c-1.7-1.6-2.5-3.7-2.5-6.1s.8-4.5 2.5-6.1 3.8-2.5 6.2-2.5 4.5.8 6.2 2.5c1.7 1.6 2.5 3.7 2.5 6.1s-.8 4.5-2.5 6.1zm-1.2-6.1c0-1.5-.5-2.8-1.4-3.8-1-1-2.1-1.6-3.5-1.6s-2.6.5-3.5 1.6c-1 1-1.4 2.3-1.4 3.8s.5 2.7 1.4 3.8c1 1 2.1 1.6 3.5 1.6s2.6-.5 3.5-1.6c.9-1 1.4-2.3 1.4-3.8zM137.6 55.9l-4.5 9.2h-2.2l-4.5-9.2v10.5h-3.7V49.8h5l4.3 9.1 4.3-9.1h5v16.6h-3.7zM156.9 51.3c1.2 1 1.8 2.5 1.8 4.6s-.6 3.6-1.8 4.5c-1.2 1-3 1.4-5.5 1.4h-2.2v4.6h-3.7V49.8h5.9c2.5 0 4.3.5 5.5 1.5zm-2.7 6.5c.4-.5.7-1.2.7-2.2s-.3-1.6-.9-2-1.5-.6-2.7-.6h-2.1v5.6h2.5c1.2 0 2-.3 2.5-.8zM166 62.1c.6.8 1.5 1.2 2.5 1.2s1.9-.4 2.5-1.2.9-1.8.9-3.2v-9.2h3.7V59c0 2.4-.7 4.3-2 5.6s-3 1.9-5.1 1.9-3.8-.7-5.1-2-2-3.2-2-5.6v-9.3h3.7V59c0 1.3.3 2.4.9 3.1zM186.5 53v13.4h-3.7V53h-4.7v-3.2h13.1V53zM194 49.8h3.7v16.7H194zM213.4 49.8h3.7v16.6h-3.7L205.5 56v10.4h-3.7V49.8h3.4l8.2 10.7zM232.1 58h3.7v5.9c-1.7 1.8-3.9 2.8-6.9 2.8-2.4 0-4.5-.8-6.2-2.4s-2.5-3.7-2.5-6.1c0-2.5.8-4.5 2.5-6.2s3.7-2.5 6.1-2.5 4.5.8 6.2 2.4l-1.9 2.8c-.7-.7-1.4-1.1-2.1-1.3-.6-.2-1.3-.4-2-.4-1.4 0-2.6.5-3.6 1.4-1 1-1.5 2.2-1.5 3.8s.5 2.8 1.4 3.8c.9.9 2 1.4 3.3 1.4s2.4-.2 3.2-.7l.3-4.7zM256.8 49.8V53h-7.7v3.6h7.4v3.3h-7.4v6.5h-3.7V49.8zM274 64.1c-1.7 1.6-3.8 2.5-6.2 2.5-2.5 0-4.5-.8-6.2-2.5-1.7-1.6-2.5-3.7-2.5-6.1s.8-4.5 2.5-6.1 3.8-2.5 6.2-2.5c2.5 0 4.5.8 6.2 2.5 1.7 1.6 2.5 3.7 2.5 6.1s-.8 4.5-2.5 6.1zm-1.3-6.1c0-1.5-.5-2.8-1.4-3.8-1-1-2.1-1.6-3.5-1.6s-2.6.5-3.5 1.6c-1 1-1.4 2.3-1.4 3.8s.5 2.7 1.4 3.8c1 1 2.1 1.6 3.5 1.6s2.6-.5 3.5-1.6c1-1 1.4-2.3 1.4-3.8zM284.1 62.1c.6.8 1.5 1.2 2.5 1.2s1.9-.4 2.5-1.2.9-1.8.9-3.2v-9.2h3.7V59c0 2.4-.7 4.3-2 5.6s-3 1.9-5.1 1.9-3.8-.7-5.1-2-2-3.2-2-5.6v-9.3h3.7V59c-.1 1.3.3 2.4.9 3.1zM309.2 49.8h3.7v16.6h-3.7L301.3 56v10.4h-3.7V49.8h3.4l8.2 10.7zM329.7 52c1.6 1.5 2.4 3.5 2.4 6.1s-.8 4.6-2.3 6.1-3.9 2.3-7.1 2.3H317V49.8h5.9c3 0 5.3.7 6.8 2.2zm-2.7 9.9c.9-.9 1.4-2.1 1.4-3.7s-.5-2.9-1.4-3.8-2.3-1.3-4.2-1.3h-2.1v10.1h2.4c1.7-.1 3-.5 3.9-1.3zM346.7 66.4l-1.5-3.6h-7l-1.5 3.6h-4l7.2-16.7h3.6l7.2 16.7h-4zm-5-11.7-2.1 4.8h4.2l-2.1-4.8zM358.5 53v13.4h-3.8V53H350v-3.2h13.2V53zM365.9 49.8h3.7v16.7h-3.7zM387.7 64.1c-1.7 1.6-3.8 2.5-6.2 2.5-2.5 0-4.5-.8-6.2-2.5-1.7-1.6-2.5-3.7-2.5-6.1s.8-4.5 2.5-6.1 3.8-2.5 6.2-2.5c2.5 0 4.5.8 6.2 2.5 1.7 1.6 2.5 3.7 2.5 6.1s-.8 4.5-2.5 6.1zm-1.2-6.1c0-1.5-.5-2.8-1.4-3.8-1-1-2.1-1.6-3.5-1.6s-2.6.5-3.5 1.6c-1 1-1.4 2.3-1.4 3.8s.5 2.7 1.4 3.8c1 1 2.1 1.6 3.5 1.6s2.6-.5 3.5-1.6c.9-1 1.4-2.3 1.4-3.8zM405 49.8h3.8v16.6H405L397.1 56v10.4h-3.7V49.8h3.5l8.1 10.7z"/><path class="st0" d="M14.5 46.7H5.4v21.4h21.3v-9.2H14.5zM60.3 46.8v12.1H48.1v-.1 9.3h21.3V46.7h-9.2zM5.4 25.4h9.2l-.1-.1V13.2h12.2V4H5.4zM48.1 4v9.2h12.2v12.2h9.1V4z"/><path class="st1" d="M46.9 25.4 34.7 13.2h13.4V4H26.7v9.2l12.2 12.2zM35.9 46.7h-8L38 56.8l2 2.1H26.7v9.2h21.4v-9.3l-6.1-6zM60.3 25.4v13.3l-2.1-2.1-10.1-10.1v8.1l6 6 6.1 6.1h9.2V25.4zM26.7 37.5 14.6 25.4H5.4v21.3h9.1V33.4l12.2 12.2z"/></svg>