<svg id="svg" version="1.1" xmlns="http://www.w3.org/2000/svg" xmlns:xlink="http://www.w3.org/1999/xlink" width="400" height="52.01305767138194" viewBox="0, 0, 400,52.01305767138194"><g id="svgg"><path id="path0" d="M166.115 14.674 C 165.675 14.748,165.225 14.881,165.115 14.970 C 165.006 15.059,164.598 15.227,164.208 15.343 C 163.819 15.458,163.500 15.607,163.500 15.673 C 163.500 15.739,163.275 15.886,163.000 16.000 C 162.725 16.114,162.500 16.273,162.500 16.354 C 162.500 16.434,162.415 16.500,162.312 16.500 C 162.018 16.500,160.702 17.846,160.486 18.366 C 160.380 18.623,160.232 18.833,160.158 18.833 C 159.468 18.833,159.528 23.868,160.234 25.071 C 160.899 26.206,162.197 27.414,162.958 27.608 C 163.165 27.660,163.333 27.764,163.333 27.839 C 163.333 27.915,163.746 28.068,164.250 28.181 C 164.754 28.294,165.167 28.439,165.167 28.503 C 165.167 28.567,165.729 28.716,166.417 28.833 C 167.104 28.951,167.667 29.107,167.667 29.180 C 167.667 29.253,167.798 29.313,167.958 29.314 C 168.548 29.316,171.000 29.873,171.000 30.005 C 171.000 30.080,171.269 30.229,171.597 30.338 C 174.245 31.212,173.844 35.250,171.034 36.005 C 170.603 36.121,170.179 36.280,170.092 36.358 C 169.883 36.545,166.713 36.542,166.597 36.355 C 166.548 36.276,166.205 36.162,165.835 36.103 C 165.465 36.044,165.013 35.846,164.831 35.664 C 164.649 35.482,164.443 35.333,164.373 35.333 C 164.221 35.333,163.641 34.795,162.785 33.858 C 162.032 33.034,161.811 33.007,161.224 33.667 C 160.979 33.942,160.747 34.136,160.708 34.097 C 160.670 34.059,160.501 34.153,160.331 34.306 C 159.957 34.644,159.741 34.815,159.042 35.330 C 158.424 35.785,158.339 36.319,158.833 36.628 C 159.017 36.742,159.167 36.952,159.167 37.095 C 159.167 37.237,159.242 37.307,159.333 37.250 C 159.425 37.193,159.500 37.208,159.500 37.282 C 159.500 37.509,160.724 38.744,161.167 38.964 C 161.396 39.078,161.921 39.362,162.333 39.596 C 163.174 40.072,164.759 40.494,165.718 40.498 C 166.115 40.499,166.313 40.565,166.246 40.673 C 166.174 40.790,166.821 40.839,168.236 40.823 C 169.390 40.810,170.333 40.747,170.333 40.684 C 170.333 40.620,170.947 40.478,171.697 40.369 C 172.448 40.260,173.104 40.113,173.156 40.043 C 173.208 39.974,173.325 39.912,173.417 39.906 C 173.710 39.888,174.874 39.317,175.120 39.071 C 175.250 38.940,175.422 38.833,175.501 38.833 C 175.831 38.833,177.356 37.033,177.617 36.337 C 177.773 35.922,177.978 35.530,178.075 35.464 C 178.313 35.302,178.313 30.363,178.074 30.202 C 177.977 30.137,177.794 29.821,177.667 29.500 C 177.540 29.179,177.338 28.857,177.218 28.783 C 177.098 28.710,177.000 28.573,177.000 28.480 C 177.000 27.889,174.170 26.162,172.792 25.910 C 172.448 25.848,172.167 25.743,172.167 25.677 C 172.167 25.543,170.280 25.167,169.606 25.167 C 169.364 25.167,169.167 25.092,169.167 25.000 C 169.167 24.908,169.110 24.848,169.042 24.866 C 168.813 24.926,166.333 24.274,166.333 24.154 C 166.333 24.089,166.160 23.993,165.947 23.939 C 165.735 23.886,165.379 23.684,165.156 23.490 C 164.933 23.296,164.637 23.074,164.500 22.997 C 163.620 22.503,164.708 19.500,165.767 19.500 C 165.875 19.500,166.002 19.401,166.049 19.280 C 166.276 18.689,169.888 18.543,170.849 19.087 C 171.070 19.211,171.481 19.421,171.764 19.553 C 172.326 19.815,173.167 20.588,173.167 20.841 C 173.167 20.928,173.242 21.000,173.333 21.000 C 173.425 21.000,173.500 21.117,173.500 21.260 C 173.500 21.403,173.569 21.477,173.652 21.425 C 173.736 21.374,173.835 21.422,173.872 21.532 C 173.918 21.670,174.101 21.617,174.453 21.366 C 174.737 21.165,175.047 21.000,175.142 21.000 C 175.238 21.000,175.377 20.903,175.450 20.785 C 175.601 20.542,177.151 19.500,177.362 19.500 C 177.438 19.500,177.500 19.313,177.500 19.083 C 177.500 18.854,177.417 18.667,177.316 18.667 C 177.214 18.667,177.174 18.554,177.227 18.417 C 177.280 18.279,177.248 18.167,177.156 18.167 C 177.065 18.167,176.940 18.038,176.880 17.881 C 176.710 17.439,175.484 16.278,174.833 15.943 C 174.512 15.777,174.063 15.536,173.833 15.407 C 173.604 15.278,173.285 15.170,173.125 15.169 C 172.965 15.168,172.833 15.104,172.833 15.028 C 172.833 14.951,172.740 14.879,172.625 14.868 C 172.510 14.856,172.079 14.772,171.667 14.681 C 170.784 14.485,167.265 14.481,166.115 14.674 M195.009 14.682 C 194.602 14.762,193.947 14.978,193.553 15.163 C 193.159 15.349,192.761 15.500,192.668 15.500 C 192.576 15.500,192.500 15.567,192.500 15.649 C 192.500 15.730,192.318 15.843,192.095 15.899 C 191.872 15.955,191.591 16.096,191.470 16.212 C 191.349 16.328,190.923 16.661,190.523 16.951 C 190.123 17.242,189.688 17.634,189.555 17.823 C 189.121 18.442,189.000 18.190,189.000 16.667 L 189.000 15.167 186.750 15.167 L 184.500 15.167 184.500 33.583 L 184.500 52.000 186.750 52.000 L 189.000 52.000 189.000 44.236 C 189.000 36.317,189.038 35.857,189.595 36.965 C 189.738 37.249,190.932 38.282,192.090 39.124 C 192.766 39.615,194.318 40.219,195.276 40.363 C 195.903 40.458,196.547 40.602,196.706 40.684 C 197.069 40.871,200.333 40.882,200.333 40.697 C 200.333 40.621,200.894 40.473,201.578 40.366 C 202.263 40.260,203.106 40.021,203.451 39.836 C 203.796 39.651,204.173 39.500,204.289 39.500 C 204.405 39.500,204.500 39.421,204.500 39.323 C 204.500 39.226,204.575 39.193,204.667 39.250 C 204.758 39.307,204.833 39.286,204.833 39.203 C 204.833 39.121,205.024 38.967,205.257 38.861 C 206.219 38.422,208.290 36.306,208.913 35.125 C 209.094 34.781,209.292 34.500,209.353 34.500 C 209.414 34.500,209.561 34.167,209.681 33.761 C 209.802 33.354,209.947 33.051,210.005 33.087 C 210.064 33.123,210.115 33.062,210.119 32.951 C 210.138 32.503,210.589 31.075,210.747 30.964 C 211.011 30.779,210.974 24.464,210.708 24.375 C 210.594 24.337,210.500 24.163,210.500 23.989 C 210.500 23.513,210.115 22.167,209.979 22.167 C 209.913 22.167,209.810 21.941,209.750 21.665 C 209.689 21.389,209.552 21.070,209.445 20.957 C 209.338 20.843,209.120 20.469,208.961 20.125 C 208.802 19.781,208.596 19.500,208.503 19.500 C 208.410 19.500,208.333 19.410,208.333 19.301 C 208.333 18.803,204.794 15.833,204.201 15.833 C 204.106 15.833,204.003 15.777,203.972 15.708 C 203.907 15.562,201.920 14.905,200.833 14.670 C 199.922 14.473,196.034 14.481,195.009 14.682 M224.500 14.686 C 223.996 14.767,223.433 14.905,223.250 14.993 C 223.067 15.081,222.598 15.234,222.208 15.333 C 221.819 15.432,221.500 15.576,221.500 15.652 C 221.500 15.729,221.293 15.833,221.039 15.884 C 220.786 15.934,220.402 16.129,220.186 16.316 C 219.970 16.504,219.650 16.702,219.475 16.758 C 219.299 16.814,218.952 17.046,218.703 17.275 C 218.454 17.503,218.119 17.810,217.958 17.957 C 217.490 18.387,217.589 18.569,219.110 20.077 L 220.554 21.508 220.984 21.129 C 221.220 20.920,221.452 20.711,221.499 20.663 C 221.620 20.538,222.519 19.957,222.947 19.727 C 223.147 19.619,223.560 19.478,223.864 19.413 C 224.168 19.348,224.496 19.231,224.593 19.154 C 224.947 18.870,227.263 18.628,228.583 18.737 C 231.096 18.946,233.333 20.479,233.333 21.992 C 233.333 22.180,233.408 22.333,233.500 22.333 C 233.594 22.333,233.667 22.806,233.667 23.417 L 233.667 24.500 230.625 24.510 C 228.952 24.516,227.021 24.591,226.333 24.678 C 225.646 24.765,224.915 24.850,224.708 24.868 C 224.502 24.885,224.333 24.955,224.333 25.021 C 224.333 25.088,223.917 25.195,223.408 25.258 C 222.900 25.322,222.393 25.463,222.283 25.572 C 222.173 25.680,221.727 25.868,221.292 25.990 C 220.856 26.111,220.500 26.270,220.500 26.344 C 220.500 26.417,220.357 26.523,220.183 26.578 C 219.558 26.776,217.559 28.888,217.336 29.583 C 217.219 29.950,217.039 30.355,216.937 30.484 C 216.682 30.803,216.680 35.634,216.934 35.798 C 217.035 35.863,217.205 36.182,217.310 36.506 C 217.470 36.997,218.612 38.321,219.556 39.110 C 220.273 39.709,222.601 40.500,223.649 40.500 C 223.934 40.500,224.167 40.575,224.167 40.667 C 224.167 40.767,224.861 40.833,225.917 40.833 C 226.972 40.833,227.667 40.767,227.667 40.667 C 227.667 40.575,227.858 40.500,228.093 40.500 C 228.727 40.500,230.048 40.150,230.333 39.906 C 230.471 39.789,230.792 39.641,231.046 39.577 C 231.301 39.514,231.584 39.320,231.677 39.147 C 231.769 38.975,231.925 38.833,232.022 38.833 C 232.228 38.833,233.748 37.318,233.883 36.979 C 233.933 36.853,233.980 37.374,233.987 38.136 C 234.007 40.220,233.941 40.167,236.506 40.167 L 238.667 40.167 238.667 39.597 C 238.667 39.284,238.573 38.997,238.458 38.958 C 238.297 38.905,238.228 36.940,238.152 30.236 C 238.091 24.778,237.989 21.388,237.876 21.054 C 237.778 20.763,237.740 20.482,237.793 20.429 C 237.846 20.376,237.808 20.333,237.709 20.333 C 237.610 20.333,237.479 20.033,237.417 19.667 C 237.355 19.300,237.231 19.000,237.142 19.000 C 237.053 19.000,237.027 18.925,237.083 18.833 C 237.140 18.742,237.125 18.667,237.051 18.667 C 236.976 18.667,236.818 18.448,236.700 18.181 C 236.438 17.589,235.200 16.327,234.555 15.994 C 234.296 15.860,234.038 15.689,233.983 15.614 C 233.928 15.539,233.778 15.457,233.650 15.431 C 233.325 15.365,232.804 15.171,232.460 14.987 C 231.626 14.542,226.586 14.351,224.500 14.686 M254.708 14.702 C 254.135 14.790,253.667 14.924,253.667 15.000 C 253.667 15.076,253.365 15.188,252.997 15.251 C 252.628 15.313,252.234 15.451,252.122 15.557 C 252.009 15.663,251.692 15.862,251.417 16.000 C 251.142 16.137,250.879 16.295,250.833 16.350 C 250.787 16.405,250.575 16.542,250.361 16.655 C 249.514 17.101,247.614 18.972,247.310 19.659 C 247.186 19.938,247.030 20.167,246.962 20.167 C 246.844 20.167,246.340 21.226,246.355 21.443 C 246.359 21.500,246.292 21.592,246.206 21.648 C 245.228 22.288,244.577 31.046,245.462 31.653 C 245.540 31.706,245.698 32.181,245.814 32.708 C 245.929 33.236,246.131 33.774,246.262 33.905 C 246.393 34.036,246.500 34.204,246.500 34.280 C 246.501 34.814,249.497 38.322,249.958 38.330 C 250.073 38.332,250.167 38.396,250.167 38.473 C 250.167 38.978,254.123 40.491,255.458 40.498 C 255.756 40.499,256.000 40.575,256.000 40.667 C 256.000 40.768,256.722 40.833,257.833 40.833 C 258.944 40.833,259.667 40.768,259.667 40.667 C 259.667 40.575,259.985 40.497,260.375 40.494 C 261.180 40.487,263.003 40.086,263.151 39.883 C 263.206 39.809,263.550 39.644,263.917 39.517 C 264.283 39.390,264.621 39.241,264.667 39.185 C 264.712 39.129,265.125 38.823,265.583 38.505 C 266.463 37.894,267.500 36.886,267.500 36.642 C 267.500 36.562,266.781 35.781,265.902 34.907 L 264.305 33.317 263.467 34.168 C 261.799 35.863,260.245 36.500,257.781 36.500 C 256.816 36.500,256.167 36.433,256.167 36.333 C 256.167 36.242,256.019 36.167,255.838 36.167 C 255.371 36.167,253.838 35.427,253.266 34.925 C 252.999 34.691,252.733 34.500,252.673 34.500 C 252.293 34.500,250.388 31.334,250.625 31.097 C 250.679 31.044,250.647 31.000,250.554 31.000 C 249.877 31.000,249.822 24.354,250.495 23.833 C 250.554 23.787,250.702 23.488,250.825 23.167 C 251.364 21.753,252.702 20.266,253.995 19.644 C 254.410 19.444,254.882 19.216,255.043 19.138 C 256.227 18.561,260.151 18.627,260.757 19.234 C 260.889 19.365,261.217 19.521,261.487 19.581 C 261.760 19.640,262.438 20.129,263.011 20.678 C 264.214 21.829,264.259 21.839,264.921 21.125 C 265.198 20.827,265.611 20.486,265.841 20.367 C 266.070 20.248,266.404 19.933,266.583 19.668 C 266.761 19.402,266.939 19.217,266.979 19.257 C 267.094 19.372,267.489 18.775,267.495 18.475 C 267.501 18.173,265.731 16.500,265.406 16.500 C 265.294 16.500,265.157 16.383,265.102 16.239 C 265.047 16.096,264.938 16.019,264.859 16.067 C 264.781 16.116,264.473 15.976,264.175 15.756 C 263.878 15.537,263.341 15.308,262.984 15.247 C 262.626 15.187,262.333 15.085,262.333 15.021 C 262.333 14.957,262.202 14.892,262.042 14.877 C 261.881 14.862,261.375 14.775,260.917 14.685 C 259.874 14.479,256.096 14.489,254.708 14.702 M281.417 14.675 C 281.050 14.749,280.600 14.833,280.417 14.863 C 280.233 14.892,280.046 14.958,280.000 15.008 C 279.954 15.058,279.598 15.193,279.208 15.306 C 278.819 15.420,278.500 15.573,278.500 15.647 C 278.500 15.720,278.200 15.879,277.833 16.000 C 277.467 16.121,277.167 16.285,277.167 16.364 C 277.167 16.443,276.979 16.580,276.750 16.667 C 276.521 16.754,276.333 16.902,276.333 16.996 C 276.333 17.090,276.235 17.167,276.115 17.167 C 275.864 17.167,274.833 18.128,274.833 18.363 C 274.833 18.449,274.764 18.477,274.679 18.424 C 274.594 18.372,274.479 18.471,274.423 18.646 C 274.368 18.820,274.135 19.177,273.907 19.440 C 273.188 20.263,273.148 20.328,272.889 21.089 C 272.749 21.499,272.578 21.833,272.507 21.833 C 272.437 21.833,272.281 22.302,272.161 22.875 C 272.042 23.448,271.863 23.970,271.764 24.036 C 271.512 24.202,271.514 30.967,271.766 31.131 C 271.866 31.196,271.991 31.512,272.043 31.833 C 272.095 32.154,272.231 32.642,272.346 32.917 C 272.460 33.192,272.542 33.473,272.527 33.542 C 272.512 33.610,272.575 33.667,272.667 33.667 C 272.758 33.667,272.839 33.798,272.846 33.958 C 272.852 34.119,273.001 34.475,273.177 34.750 C 273.353 35.025,273.548 35.362,273.611 35.500 C 273.674 35.637,273.881 35.914,274.071 36.114 C 274.261 36.314,274.754 36.856,275.167 37.319 C 275.579 37.781,276.007 38.161,276.117 38.163 C 276.227 38.165,276.377 38.261,276.450 38.375 C 276.523 38.490,276.808 38.696,277.083 38.833 C 277.358 38.971,277.621 39.127,277.667 39.180 C 278.065 39.646,280.599 40.488,281.625 40.496 C 281.923 40.498,282.167 40.575,282.167 40.667 C 282.167 40.769,282.976 40.833,284.260 40.833 C 285.613 40.833,286.317 40.774,286.250 40.667 C 286.188 40.567,286.402 40.499,286.782 40.497 C 287.131 40.495,287.904 40.380,288.500 40.242 C 289.096 40.104,289.677 39.980,289.792 39.968 C 289.906 39.955,290.000 39.898,290.000 39.842 C 290.000 39.786,290.337 39.640,290.750 39.518 C 291.162 39.396,291.500 39.228,291.500 39.144 C 291.500 39.060,291.688 38.920,291.917 38.833 C 292.146 38.746,292.333 38.598,292.333 38.504 C 292.333 38.410,292.432 38.333,292.554 38.333 C 292.801 38.333,295.167 35.939,295.167 35.689 C 295.167 35.600,295.246 35.501,295.342 35.469 C 295.439 35.437,295.204 35.187,294.820 34.914 C 294.437 34.640,293.955 34.248,293.751 34.042 C 293.546 33.835,293.293 33.667,293.189 33.667 C 293.085 33.667,293.000 33.591,293.000 33.498 C 293.000 33.405,292.768 33.188,292.485 33.016 L 291.971 32.703 290.860 33.810 C 290.250 34.419,289.450 35.067,289.083 35.250 C 288.717 35.433,288.392 35.638,288.362 35.704 C 288.333 35.771,287.864 35.917,287.321 36.029 C 286.778 36.142,286.333 36.293,286.333 36.367 C 286.333 36.440,285.471 36.500,284.417 36.500 C 283.250 36.500,282.500 36.435,282.500 36.333 C 282.500 36.242,282.352 36.167,282.172 36.167 C 281.726 36.167,280.139 35.427,279.586 34.962 C 278.805 34.303,278.167 33.681,278.167 33.578 C 278.167 33.523,277.987 33.239,277.766 32.947 C 277.252 32.265,276.574 30.616,276.437 29.710 L 276.330 29.003 286.290 28.960 L 296.250 28.917 296.298 27.542 C 296.329 26.669,296.283 26.167,296.173 26.167 C 296.078 26.167,295.999 25.848,295.999 25.458 C 295.997 24.677,295.718 22.726,295.551 22.333 C 295.493 22.196,295.433 22.046,295.417 22.000 C 295.379 21.889,295.018 20.982,294.885 20.667 C 294.828 20.529,294.792 20.360,294.807 20.292 C 294.821 20.223,294.756 20.167,294.663 20.167 C 294.520 20.167,294.222 19.629,294.201 19.333 C 294.177 19.005,291.472 16.296,291.030 16.157 C 290.653 16.039,290.167 15.763,290.167 15.668 C 290.167 15.606,290.073 15.550,289.958 15.543 C 289.715 15.529,288.622 15.122,288.500 15.000 C 288.071 14.571,283.080 14.342,281.417 14.675 M199.309 18.856 C 199.907 18.960,200.749 19.222,201.180 19.439 C 201.612 19.656,202.040 19.833,202.131 19.833 C 202.223 19.833,202.341 19.946,202.394 20.083 C 202.446 20.221,202.586 20.333,202.704 20.333 C 203.199 20.333,205.096 22.817,205.376 23.833 C 205.465 24.154,205.600 24.456,205.676 24.504 C 206.164 24.811,206.216 29.329,205.744 30.417 C 205.625 30.692,205.431 31.198,205.314 31.542 C 205.196 31.885,205.045 32.167,204.978 32.167 C 204.911 32.167,204.803 32.335,204.739 32.542 C 204.674 32.748,204.407 33.163,204.144 33.464 C 203.882 33.765,203.667 34.075,203.667 34.152 C 203.667 34.230,203.442 34.386,203.167 34.500 C 202.892 34.614,202.667 34.769,202.667 34.846 C 202.667 34.922,202.404 35.109,202.083 35.261 C 201.762 35.413,201.500 35.601,201.500 35.679 C 201.500 35.757,201.050 35.913,200.500 36.027 C 199.950 36.140,199.500 36.293,199.500 36.367 C 199.500 36.885,194.345 36.243,193.833 35.661 C 193.787 35.609,193.477 35.439,193.143 35.284 C 192.809 35.129,192.493 34.889,192.440 34.751 C 192.387 34.613,192.239 34.500,192.112 34.500 C 191.984 34.500,191.738 34.299,191.565 34.054 C 191.392 33.809,191.096 33.453,190.907 33.263 C 190.461 32.813,189.905 31.717,189.660 30.807 C 189.553 30.409,189.387 30.034,189.290 29.974 C 189.058 29.829,189.044 25.603,189.276 25.305 C 189.371 25.183,189.548 24.708,189.670 24.250 C 189.792 23.792,189.944 23.379,190.007 23.333 C 190.070 23.287,190.276 22.950,190.463 22.583 C 190.809 21.909,192.235 20.333,192.499 20.333 C 192.578 20.333,192.742 20.235,192.863 20.115 C 193.150 19.831,194.155 19.333,194.442 19.333 C 194.566 19.333,194.667 19.267,194.667 19.186 C 194.667 18.786,197.679 18.572,199.309 18.856 M285.910 18.854 C 286.601 18.956,287.167 19.106,287.167 19.187 C 287.167 19.267,287.223 19.322,287.292 19.308 C 288.347 19.090,291.589 23.015,291.060 23.870 C 291.016 23.942,291.060 24.000,291.157 24.000 C 291.254 24.000,291.333 24.262,291.333 24.583 L 291.333 25.167 283.893 25.167 L 276.454 25.167 276.557 24.293 C 276.614 23.812,276.733 23.395,276.821 23.365 C 276.909 23.336,277.071 23.035,277.180 22.698 C 277.393 22.038,277.468 21.935,278.480 20.917 C 279.419 19.972,279.536 19.888,280.614 19.396 C 282.124 18.705,283.774 18.536,285.910 18.854 M233.667 29.657 C 233.667 30.385,233.604 31.019,233.528 31.066 C 233.452 31.113,233.293 31.582,233.176 32.108 C 232.963 33.059,232.400 34.112,231.764 34.750 C 231.265 35.250,229.945 36.167,229.723 36.167 C 229.616 36.167,229.503 36.242,229.472 36.334 C 229.358 36.675,226.753 36.914,225.360 36.711 C 222.799 36.338,221.504 35.058,221.501 32.900 C 221.499 31.376,222.524 29.710,223.583 29.514 C 223.675 29.498,223.920 29.372,224.129 29.235 C 224.458 29.020,226.017 28.634,226.625 28.617 C 226.740 28.614,226.833 28.549,226.833 28.472 C 226.833 28.396,228.371 28.333,230.250 28.333 L 233.667 28.333 233.667 29.657 " stroke="none" fill="#cccccc" fill-rule="evenodd"></path><path id="path1" d="M303.500 20.083 L 303.500 40.167 305.750 40.167 L 308.000 40.167 308.000 20.083 L 308.000 0.000 305.750 0.000 L 303.500 0.000 303.500 20.083 M361.000 20.083 L 361.000 40.167 363.250 40.167 L 365.500 40.167 365.519 33.792 C 365.530 30.285,365.576 27.529,365.623 27.667 C 365.669 27.804,366.209 28.367,366.822 28.917 C 367.436 29.467,368.107 30.155,368.315 30.445 C 368.522 30.736,369.436 31.730,370.346 32.655 C 371.256 33.579,372.000 34.410,372.000 34.501 C 372.000 34.592,372.113 34.667,372.250 34.667 C 372.387 34.667,372.500 34.750,372.500 34.851 C 372.500 34.953,373.279 35.811,374.231 36.759 C 375.184 37.706,375.935 38.509,375.902 38.543 C 375.868 38.577,376.213 38.956,376.668 39.385 L 377.496 40.167 380.664 40.167 C 383.329 40.167,383.833 40.128,383.833 39.924 C 383.833 39.790,382.577 38.408,381.042 36.853 C 375.499 31.238,370.593 26.168,370.923 26.395 C 370.972 26.429,371.448 26.016,371.982 25.478 C 372.515 24.940,372.996 24.500,373.050 24.500 C 373.105 24.500,373.940 23.731,374.907 22.792 C 375.873 21.852,377.235 20.558,377.932 19.917 C 378.629 19.275,379.504 18.431,379.877 18.042 C 380.249 17.652,380.659 17.333,380.787 17.333 C 380.915 17.333,380.990 17.277,380.953 17.208 C 380.890 17.091,381.406 16.504,381.580 16.496 C 381.752 16.488,382.459 15.681,382.371 15.593 C 382.320 15.542,382.365 15.500,382.472 15.500 C 382.579 15.500,382.667 15.425,382.667 15.333 C 382.667 15.228,381.481 15.167,379.443 15.167 L 376.220 15.167 375.634 15.792 C 375.312 16.135,374.681 16.766,374.232 17.193 C 373.784 17.620,373.204 18.202,372.944 18.485 C 372.684 18.768,372.382 19.000,372.272 19.000 C 372.162 19.000,371.939 19.225,371.777 19.500 C 371.614 19.775,371.415 20.000,371.334 20.000 C 371.253 20.000,369.996 21.200,368.541 22.667 C 367.086 24.133,365.807 25.333,365.698 25.333 C 365.547 25.333,365.500 22.329,365.500 12.667 L 365.500 0.000 363.250 0.000 L 361.000 0.000 361.000 20.083 M129.167 2.617 C 127.340 3.282,126.802 7.303,128.424 8.171 C 128.649 8.291,128.833 8.456,128.833 8.538 C 128.833 8.620,128.903 8.643,128.988 8.590 C 129.074 8.538,129.191 8.571,129.248 8.664 C 129.813 9.577,133.005 8.387,133.502 7.077 C 134.583 4.236,132.005 1.585,129.167 2.617 M318.198 2.606 C 316.893 3.177,315.644 6.631,316.625 6.958 C 316.740 6.997,316.833 7.132,316.833 7.258 C 316.833 8.470,319.765 9.317,321.233 8.530 C 322.543 7.828,323.469 4.598,322.527 4.016 C 322.404 3.940,322.214 3.699,322.105 3.481 C 321.996 3.262,321.813 3.083,321.697 3.083 C 321.582 3.083,321.418 2.971,321.333 2.833 C 321.175 2.577,318.678 2.396,318.198 2.606 M22.875 4.762 C 22.394 5.260,22.000 5.628,22.000 5.578 C 22.000 5.529,21.719 5.803,21.375 6.187 C 20.622 7.029,17.606 10.042,16.781 10.776 C 16.456 11.065,16.209 11.327,16.232 11.359 C 16.254 11.391,15.799 11.879,15.220 12.444 C 14.641 13.009,14.167 13.441,14.167 13.404 C 14.167 13.310,13.236 14.291,12.620 15.034 C 12.339 15.373,12.060 15.621,12.001 15.584 C 11.943 15.548,11.773 15.724,11.624 15.975 C 11.476 16.227,11.165 16.534,10.933 16.658 C 10.701 16.782,10.533 16.929,10.560 16.983 C 10.587 17.038,10.285 17.400,9.888 17.788 C 9.491 18.175,9.167 18.459,9.167 18.419 C 9.167 18.378,8.993 18.511,8.781 18.714 C 8.569 18.917,8.404 19.121,8.414 19.167 C 8.424 19.212,7.960 19.712,7.383 20.277 C 6.806 20.842,6.333 21.276,6.333 21.242 C 6.333 21.207,6.160 21.345,5.948 21.548 C 5.735 21.751,5.573 21.954,5.586 22.000 C 5.599 22.046,5.285 22.400,4.888 22.788 C 4.491 23.175,4.166 23.438,4.166 23.371 C 4.165 23.304,4.023 23.464,3.850 23.726 C 3.678 23.988,3.322 24.344,3.060 24.517 C 2.798 24.690,2.638 24.832,2.704 24.832 C 2.771 24.833,2.509 25.158,2.121 25.555 C 1.734 25.951,1.379 26.265,1.333 26.252 C 1.287 26.239,1.084 26.402,0.881 26.614 C 0.678 26.826,0.547 27.000,0.589 27.000 C 0.632 27.000,0.517 27.150,0.333 27.333 C -0.170 27.836,-0.102 27.981,1.264 29.333 C 1.959 30.021,2.653 30.720,2.805 30.886 C 2.958 31.052,4.571 32.665,6.390 34.469 C 8.208 36.274,9.783 37.838,9.890 37.946 C 14.503 42.603,19.244 47.349,19.854 47.920 C 20.293 48.331,20.629 48.667,20.600 48.667 C 20.571 48.667,21.264 49.379,22.139 50.250 C 23.094 51.200,23.864 51.833,24.066 51.833 C 24.414 51.833,36.833 39.520,36.833 39.175 C 36.833 39.079,36.933 39.000,37.056 39.000 C 37.253 39.000,37.455 38.803,38.470 37.623 C 38.723 37.328,37.490 35.929,34.347 32.948 C 33.943 32.564,33.495 32.119,33.352 31.958 C 32.908 31.459,32.783 31.560,28.428 35.917 C 26.092 38.254,24.120 40.167,24.047 40.167 C 23.973 40.167,21.758 38.005,19.123 35.362 C 16.489 32.719,14.333 30.573,14.333 30.592 C 14.333 30.611,13.721 29.999,12.974 29.233 L 11.614 27.840 13.265 26.157 C 14.174 25.231,15.053 24.348,15.220 24.195 C 16.051 23.432,22.139 17.333,22.069 17.333 C 22.025 17.333,22.385 16.984,22.869 16.556 C 23.354 16.129,23.775 15.716,23.806 15.639 C 23.910 15.378,24.314 15.499,24.574 15.870 C 24.717 16.074,24.834 16.168,24.836 16.079 C 24.837 15.990,24.932 16.103,25.047 16.330 C 25.162 16.557,25.443 16.838,25.670 16.953 C 25.897 17.068,26.034 17.163,25.973 17.164 C 25.912 17.166,26.099 17.418,26.389 17.725 C 26.679 18.032,26.973 18.252,27.042 18.215 C 27.110 18.178,27.167 18.215,27.167 18.299 C 27.167 18.507,30.646 22.000,30.853 22.000 C 30.945 22.000,30.980 22.064,30.932 22.142 C 30.884 22.219,31.027 22.381,31.250 22.500 C 31.473 22.619,31.628 22.762,31.595 22.817 C 31.562 22.872,31.640 23.013,31.767 23.132 C 31.895 23.250,32.000 23.287,32.001 23.215 C 32.002 23.143,32.151 23.308,32.333 23.583 C 32.515 23.858,32.666 24.008,32.668 23.917 C 32.670 23.825,32.766 23.936,32.881 24.163 C 32.996 24.391,33.276 24.671,33.503 24.786 C 33.731 24.901,33.842 24.997,33.750 24.999 C 33.658 25.001,33.808 25.151,34.083 25.333 C 34.358 25.515,34.529 25.665,34.463 25.666 C 34.398 25.666,34.795 26.117,35.347 26.667 C 35.898 27.217,36.426 27.667,36.518 27.667 C 36.611 27.667,36.643 27.736,36.591 27.821 C 36.538 27.906,36.634 28.020,36.804 28.074 C 36.974 28.128,37.212 28.356,37.332 28.580 C 37.452 28.805,37.614 28.949,37.692 28.901 C 37.770 28.853,37.833 28.932,37.833 29.076 C 37.833 29.220,38.077 29.486,38.375 29.668 C 38.673 29.849,38.882 30.016,38.840 30.040 C 38.798 30.064,39.004 30.330,39.298 30.631 C 39.593 30.932,39.834 31.119,39.834 31.047 C 39.835 30.976,39.985 31.142,40.167 31.417 C 40.349 31.692,40.498 31.857,40.499 31.785 C 40.500 31.713,40.605 31.750,40.734 31.868 C 40.863 31.987,40.957 32.152,40.942 32.236 C 40.928 32.321,41.085 32.477,41.291 32.585 C 41.496 32.692,41.622 32.822,41.570 32.875 C 41.518 32.927,41.619 33.015,41.794 33.071 C 41.970 33.127,42.212 33.356,42.332 33.580 C 42.452 33.805,42.603 33.956,42.667 33.916 C 42.732 33.876,42.873 34.039,42.982 34.277 C 43.090 34.515,43.226 34.663,43.283 34.605 C 43.341 34.548,43.524 34.726,43.691 35.001 C 43.858 35.275,44.113 35.500,44.257 35.500 C 44.402 35.500,44.477 35.570,44.424 35.655 C 44.372 35.740,44.484 35.859,44.674 35.919 C 44.864 35.979,45.090 36.214,45.176 36.441 C 45.262 36.668,45.408 36.807,45.500 36.750 C 45.592 36.693,45.667 36.738,45.667 36.848 C 45.667 37.097,46.641 38.058,47.052 38.216 C 47.218 38.279,47.311 38.401,47.258 38.487 C 47.205 38.573,47.317 38.692,47.507 38.752 C 47.697 38.813,47.923 39.047,48.009 39.274 C 48.095 39.501,48.230 39.647,48.309 39.599 C 48.387 39.550,48.538 39.700,48.643 39.931 C 48.748 40.163,48.891 40.318,48.959 40.277 C 49.127 40.176,49.509 40.603,49.372 40.739 C 49.313 40.798,49.436 40.891,49.645 40.946 C 49.854 41.001,50.095 41.227,50.179 41.449 C 50.264 41.672,50.408 41.807,50.500 41.750 C 50.592 41.693,50.740 41.839,50.830 42.073 C 50.919 42.308,51.088 42.500,51.206 42.500 C 51.324 42.500,51.495 42.669,51.585 42.875 C 51.676 43.081,51.862 43.250,52.000 43.250 C 52.137 43.250,52.251 43.325,52.253 43.417 C 52.254 43.508,52.479 43.807,52.753 44.081 C 53.026 44.354,53.325 44.579,53.417 44.581 C 53.508 44.582,53.583 44.696,53.583 44.833 C 53.583 44.971,53.752 45.157,53.958 45.248 C 54.165 45.338,54.333 45.509,54.333 45.627 C 54.333 45.745,54.525 45.915,54.760 46.004 C 54.997 46.094,55.138 46.245,55.077 46.344 C 55.016 46.442,55.115 46.561,55.296 46.609 C 55.478 46.656,55.709 46.876,55.809 47.097 C 55.910 47.319,56.098 47.500,56.227 47.500 C 56.356 47.500,56.500 47.650,56.548 47.833 C 56.596 48.017,56.755 48.167,56.901 48.167 C 57.047 48.167,57.167 48.281,57.167 48.420 C 57.167 48.560,57.348 48.756,57.569 48.857 C 57.791 48.958,58.011 49.189,58.058 49.370 C 58.105 49.552,58.213 49.658,58.298 49.605 C 58.382 49.553,58.536 49.696,58.639 49.922 C 58.742 50.148,58.932 50.333,59.060 50.333 C 59.189 50.333,59.335 50.489,59.385 50.679 C 59.435 50.869,59.630 51.065,59.819 51.115 C 60.008 51.164,60.119 51.276,60.065 51.363 C 60.011 51.451,60.124 51.564,60.317 51.614 C 60.509 51.664,60.667 51.772,60.667 51.853 C 60.667 52.234,61.277 51.919,62.077 51.125 C 62.561 50.644,63.099 50.131,63.271 49.986 C 63.443 49.841,63.892 49.391,64.269 48.986 C 64.645 48.581,65.283 47.942,65.685 47.565 C 66.087 47.188,66.729 46.550,67.110 46.148 C 67.492 45.746,68.129 45.105,68.527 44.724 C 68.925 44.344,69.562 43.706,69.942 43.308 C 70.323 42.909,70.961 42.275,71.359 41.899 C 71.757 41.522,72.240 41.035,72.431 40.815 C 72.623 40.596,72.960 40.258,73.181 40.064 C 73.402 39.871,74.044 39.233,74.606 38.648 C 75.168 38.062,75.921 37.320,76.278 36.997 C 76.635 36.675,77.037 36.260,77.172 36.076 C 77.306 35.891,77.957 35.236,78.618 34.620 C 79.279 34.004,79.786 33.500,79.745 33.500 C 79.704 33.500,79.913 33.272,80.210 32.992 C 81.504 31.776,82.633 30.667,82.576 30.667 C 82.543 30.667,83.112 30.092,83.841 29.389 C 85.306 27.977,85.363 27.845,84.728 27.345 C 84.486 27.155,84.330 27.000,84.380 27.000 C 84.431 27.000,84.217 26.737,83.906 26.417 C 83.594 26.096,83.304 25.833,83.260 25.833 C 83.217 25.833,81.080 23.752,78.513 21.208 C 75.946 18.665,72.736 15.517,71.381 14.214 C 70.026 12.911,67.604 10.530,66.000 8.923 C 64.396 7.317,62.946 5.957,62.779 5.902 C 62.612 5.848,62.518 5.760,62.571 5.707 C 62.709 5.569,60.799 3.842,60.503 3.837 C 60.248 3.833,54.333 9.761,54.333 10.021 C 54.333 10.101,54.253 10.167,54.155 10.167 C 53.908 10.167,53.493 10.604,53.619 10.730 C 53.676 10.787,53.629 10.833,53.516 10.833 C 53.318 10.833,52.833 11.226,52.833 11.387 C 52.833 11.430,51.371 12.944,49.583 14.752 C 47.324 17.037,46.333 18.153,46.333 18.410 C 46.333 18.792,47.546 20.065,47.732 19.879 C 47.788 19.823,47.833 19.905,47.833 20.061 C 47.833 20.217,48.002 20.412,48.208 20.495 C 48.415 20.578,48.525 20.650,48.454 20.656 C 48.280 20.670,49.348 21.833,49.535 21.833 C 49.617 21.833,50.150 22.321,50.720 22.917 C 51.783 24.028,52.299 24.252,52.451 23.669 C 52.499 23.486,52.604 23.378,52.686 23.428 C 52.767 23.479,52.833 23.449,52.833 23.362 C 52.833 23.209,60.451 15.500,60.602 15.500 C 60.753 15.500,61.995 16.665,65.081 19.702 C 66.824 21.417,69.315 23.867,70.616 25.146 C 71.917 26.426,73.110 27.545,73.267 27.633 C 73.519 27.774,73.482 27.862,72.943 28.402 C 72.608 28.737,72.333 29.084,72.333 29.172 C 72.333 29.261,72.268 29.333,72.187 29.333 C 72.024 29.333,69.500 31.768,69.500 31.925 C 69.500 32.047,69.056 32.500,68.936 32.500 C 68.763 32.500,68.037 33.315,68.129 33.407 C 68.180 33.458,68.142 33.500,68.045 33.500 C 67.825 33.500,65.500 35.808,65.500 36.027 C 65.500 36.115,65.436 36.147,65.358 36.099 C 65.281 36.051,65.119 36.194,65.000 36.417 C 64.881 36.640,64.719 36.783,64.642 36.734 C 64.564 36.686,64.500 36.732,64.500 36.835 C 64.500 37.079,64.079 37.500,63.835 37.500 C 63.732 37.500,63.693 37.575,63.750 37.667 C 63.807 37.758,63.777 37.833,63.684 37.833 C 63.501 37.833,61.667 39.597,61.667 39.773 C 61.667 39.896,61.137 40.320,60.975 40.328 C 60.915 40.331,52.654 32.121,42.617 22.083 C 31.054 10.519,24.255 3.837,24.059 3.844 C 23.889 3.850,23.356 4.263,22.875 4.762 M106.167 14.659 C 105.116 14.856,104.928 14.904,104.833 15.005 C 104.787 15.054,104.337 15.196,103.833 15.321 C 103.329 15.446,102.879 15.593,102.833 15.649 C 102.723 15.783,101.885 16.264,101.201 16.586 C 100.899 16.728,100.610 16.954,100.558 17.089 C 100.507 17.223,100.392 17.333,100.303 17.333 C 100.085 17.333,99.167 18.263,99.167 18.483 C 99.167 18.580,99.351 18.780,99.577 18.928 C 99.802 19.076,100.032 19.340,100.088 19.515 C 100.144 19.690,100.309 19.833,100.456 19.833 C 100.602 19.833,100.678 19.877,100.625 19.931 C 100.571 19.984,100.818 20.336,101.172 20.713 C 101.863 21.446,102.206 21.438,103.021 20.672 C 103.659 20.072,103.975 19.888,105.000 19.519 C 107.174 18.736,110.189 18.467,111.604 18.930 C 112.333 19.169,113.611 19.922,113.963 20.320 C 114.790 21.256,114.983 21.749,115.109 23.243 L 115.212 24.455 111.221 24.531 C 109.026 24.573,107.122 24.675,106.990 24.757 C 106.858 24.840,106.600 24.918,106.417 24.933 C 105.391 25.013,102.295 26.031,102.199 26.320 C 102.166 26.419,102.037 26.500,101.911 26.500 C 101.786 26.500,101.482 26.688,101.234 26.917 C 100.987 27.146,100.723 27.333,100.648 27.333 C 100.467 27.333,99.347 28.458,99.437 28.548 C 99.476 28.587,99.394 28.714,99.254 28.830 C 99.114 28.946,99.000 29.138,99.000 29.257 C 99.000 29.375,98.926 29.497,98.836 29.528 C 98.746 29.558,98.590 30.033,98.491 30.583 C 98.391 31.133,98.240 31.714,98.155 31.873 C 97.945 32.265,97.955 34.500,98.167 34.500 C 98.258 34.500,98.333 34.676,98.333 34.892 C 98.333 35.404,98.669 36.358,98.947 36.637 C 99.068 36.758,99.167 36.964,99.167 37.094 C 99.167 37.224,99.317 37.424,99.500 37.539 C 99.683 37.653,99.833 37.807,99.833 37.880 C 99.833 38.185,100.986 39.096,102.158 39.716 C 102.861 40.089,104.370 40.486,105.115 40.494 C 105.408 40.497,105.693 40.575,105.750 40.667 C 105.807 40.760,106.585 40.833,107.510 40.833 C 108.503 40.833,109.167 40.767,109.167 40.667 C 109.167 40.575,109.410 40.499,109.708 40.498 C 110.723 40.495,112.769 39.695,112.946 39.233 C 112.995 39.106,113.094 39.038,113.165 39.082 C 113.237 39.127,113.388 39.051,113.502 38.915 C 113.615 38.778,113.823 38.667,113.965 38.667 C 114.106 38.667,114.176 38.621,114.120 38.565 C 114.064 38.509,114.235 38.280,114.500 38.057 C 114.765 37.834,115.029 37.504,115.086 37.324 C 115.246 36.820,115.500 37.112,115.501 37.802 C 115.502 38.140,115.550 38.810,115.608 39.292 L 115.713 40.167 117.958 40.167 C 120.034 40.167,120.193 40.145,120.071 39.875 C 119.999 39.715,119.886 35.796,119.819 31.167 C 119.702 23.020,119.665 22.035,119.457 21.500 C 119.403 21.363,119.311 20.959,119.251 20.602 C 119.192 20.246,118.998 19.685,118.822 19.355 C 118.645 19.025,118.500 18.677,118.500 18.581 C 118.500 18.486,118.369 18.283,118.208 18.131 C 118.048 17.979,117.767 17.656,117.583 17.414 C 117.131 16.816,116.940 16.626,116.493 16.333 C 116.283 16.196,115.974 15.952,115.806 15.792 C 115.638 15.631,115.500 15.547,115.500 15.604 C 115.500 15.661,115.406 15.632,115.292 15.540 C 115.177 15.447,114.821 15.316,114.500 15.248 C 114.179 15.180,113.878 15.064,113.830 14.989 C 113.599 14.630,107.688 14.375,106.167 14.659 M151.332 14.672 C 151.010 14.749,150.523 14.928,150.248 15.071 C 149.974 15.214,149.616 15.332,149.453 15.332 C 149.290 15.333,149.116 15.439,149.066 15.568 C 149.016 15.698,148.796 15.848,148.576 15.904 C 148.356 15.959,147.686 16.496,147.088 17.097 C 146.249 17.941,146.000 18.114,146.000 17.855 C 146.000 17.671,145.925 17.473,145.833 17.417 C 145.742 17.360,145.667 16.831,145.667 16.240 L 145.667 15.167 143.542 15.167 L 141.417 15.167 141.464 27.458 C 141.490 34.219,141.543 39.844,141.583 39.958 C 141.637 40.111,142.257 40.167,143.911 40.167 L 146.167 40.167 146.168 33.625 C 146.169 27.422,146.333 24.206,146.657 24.006 C 146.737 23.956,146.856 23.631,146.921 23.283 C 146.987 22.935,147.134 22.557,147.248 22.442 C 147.362 22.328,147.507 22.075,147.569 21.880 C 147.812 21.112,149.439 19.740,150.414 19.480 C 150.782 19.381,151.172 19.228,151.281 19.139 C 151.496 18.963,154.466 19.043,155.197 19.244 L 155.645 19.368 155.716 17.642 C 155.755 16.693,155.846 15.699,155.918 15.432 C 156.128 14.657,155.737 14.497,153.676 14.517 C 152.709 14.526,151.653 14.596,151.332 14.672 M340.750 14.603 C 339.712 14.871,338.358 15.392,337.965 15.675 C 337.717 15.854,337.461 16.000,337.396 16.000 C 337.205 16.000,335.999 17.161,335.208 18.105 L 334.833 18.553 334.833 16.860 L 334.833 15.167 332.641 15.167 L 330.448 15.167 330.557 17.443 C 330.618 18.695,330.667 24.320,330.667 29.943 L 330.667 40.167 332.996 40.167 L 335.325 40.167 335.326 33.289 C 335.326 29.506,335.362 26.187,335.406 25.914 C 335.724 23.932,335.887 23.167,335.992 23.167 C 336.059 23.167,336.204 22.867,336.314 22.500 C 336.423 22.133,336.585 21.833,336.673 21.833 C 336.761 21.833,336.833 21.726,336.833 21.595 C 336.833 21.465,337.018 21.212,337.244 21.034 C 337.470 20.856,337.621 20.676,337.578 20.633 C 337.535 20.591,337.688 20.456,337.917 20.333 C 338.146 20.211,338.333 20.052,338.333 19.981 C 338.333 19.060,343.164 18.356,344.807 19.037 C 345.051 19.138,345.306 19.208,345.375 19.194 C 345.444 19.179,345.500 19.242,345.500 19.333 C 345.500 19.425,345.594 19.500,345.709 19.500 C 346.318 19.500,347.655 21.698,347.793 22.928 C 347.840 23.338,347.943 23.715,348.022 23.764 C 348.102 23.813,348.167 27.524,348.167 32.010 L 348.167 40.167 350.428 40.167 L 352.689 40.167 352.636 30.910 C 352.599 24.425,352.529 21.619,352.400 21.535 C 352.300 21.470,352.169 21.105,352.109 20.724 C 351.887 19.300,349.633 16.000,348.884 16.000 C 348.793 16.000,348.584 15.852,348.420 15.671 C 348.256 15.489,348.062 15.378,347.989 15.423 C 347.916 15.468,347.809 15.429,347.752 15.336 C 347.694 15.243,347.501 15.167,347.323 15.167 C 347.146 15.167,347.000 15.084,347.000 14.982 C 347.000 14.881,346.897 14.837,346.770 14.886 C 346.644 14.934,346.459 14.893,346.360 14.793 C 346.173 14.606,341.370 14.443,340.750 14.603 M128.333 27.667 L 128.333 40.167 130.583 40.167 L 132.833 40.167 132.833 27.667 L 132.833 15.167 130.583 15.167 L 128.333 15.167 128.333 27.667 M317.333 27.667 L 317.333 40.167 319.667 40.167 L 322.000 40.167 322.000 27.667 L 322.000 15.167 319.667 15.167 L 317.333 15.167 317.333 27.667 M115.167 29.260 C 115.167 30.475,114.828 32.500,114.624 32.500 C 114.536 32.500,114.508 32.612,114.560 32.750 C 114.613 32.887,114.584 33.000,114.495 33.000 C 114.406 33.000,114.333 33.098,114.333 33.219 C 114.333 33.339,114.183 33.598,114.000 33.795 C 113.817 33.992,113.667 34.231,113.667 34.326 C 113.667 34.422,113.592 34.500,113.500 34.500 C 113.408 34.500,113.333 34.603,113.333 34.730 C 113.333 34.856,113.105 35.054,112.827 35.169 C 112.548 35.285,112.248 35.516,112.158 35.682 C 112.069 35.849,111.735 36.035,111.416 36.094 C 111.097 36.154,110.872 36.261,110.916 36.333 C 111.152 36.714,107.788 36.957,106.417 36.657 C 105.867 36.537,105.355 36.454,105.279 36.473 C 105.204 36.493,105.185 36.439,105.237 36.354 C 105.290 36.269,105.098 36.117,104.812 36.017 C 104.187 35.800,103.542 35.141,103.400 34.576 C 103.343 34.351,103.230 34.167,103.149 34.167 C 102.882 34.167,102.981 31.924,103.274 31.317 C 103.957 29.903,105.943 28.783,108.042 28.628 C 108.294 28.609,108.500 28.535,108.500 28.464 C 108.500 28.392,110.000 28.333,111.833 28.333 L 115.167 28.333 115.167 29.260 M390.167 36.000 C 390.167 36.650,390.181 36.667,390.744 36.667 L 391.322 36.667 391.369 38.458 L 391.417 40.250 392.042 40.302 L 392.667 40.353 392.667 38.510 L 392.667 36.667 393.417 36.667 L 394.167 36.667 394.167 36.000 L 394.167 35.333 392.167 35.333 L 390.167 35.333 390.167 36.000 M394.667 37.833 L 394.667 40.333 395.333 40.333 L 396.000 40.333 396.023 39.208 C 396.035 38.590,396.078 38.252,396.118 38.458 C 396.157 38.665,396.272 38.833,396.373 38.833 C 396.473 38.833,396.508 38.881,396.450 38.939 C 396.392 38.996,396.455 39.201,396.589 39.392 C 396.723 39.584,396.833 39.874,396.833 40.037 C 396.833 40.939,397.987 40.376,398.277 39.333 C 398.430 38.783,398.617 38.333,398.694 38.333 C 398.771 38.333,398.833 38.783,398.833 39.333 L 398.833 40.333 399.417 40.333 L 400.000 40.333 400.000 37.833 L 400.000 35.333 399.179 35.333 L 398.357 35.333 398.152 36.250 C 398.039 36.754,397.890 37.167,397.821 37.167 C 397.751 37.167,397.619 37.373,397.527 37.625 C 397.375 38.041,397.358 38.049,397.346 37.708 C 397.339 37.502,397.267 37.333,397.186 37.333 C 397.106 37.333,396.952 36.987,396.846 36.564 C 396.590 35.547,396.343 35.333,395.429 35.333 L 394.667 35.333 394.667 37.833 " stroke="none" fill="#5c9cd4" fill-rule="evenodd"></path><path id="path2" d="" stroke="none" fill="#d0b4d0" fill-rule="evenodd"></path><path id="path3" d="" stroke="none" fill="#7cb4d0" fill-rule="evenodd"></path><path id="path4" d="" stroke="none" fill="#5cb8d0" fill-rule="evenodd"></path></g></svg>