<svg xmlns="http://www.w3.org/2000/svg" viewBox="0 0 388 68"><title>alauda_io_H_Blue</title><g id="e422e6eb-a2c1-4c0a-9ac9-db5006dc2667" data-name="Brand Logo"><path d="M66.59,34V66.76H52.18v-33a18.23,18.23,0,0,0-35.59-5.68l-5.43,2.68,4.56,3.78c.49,9,3.67,24.06,30,32.25H33.62A32.88,32.88,0,1,1,66.59,34Z" fill="#3baee4"/><path d="M29.92,35.26a3.79,3.79,0,1,1-3.77-3.81A3.79,3.79,0,0,1,29.92,35.26Z" fill="#3baee4"/><path d="M121.83,66.83V12.46h9.78V66.83Z" fill="#9e9e9f"/><path d="M217.65,49.32a17.28,17.28,0,1,1-34.55,0V33h9.78V49.09a9.66,9.66,0,0,0,2.06,6,7.68,7.68,0,0,0,5.43,2.53,7.37,7.37,0,0,0,5.35-2.53,9.26,9.26,0,0,0,2.14-6V33h9.79Z" fill="#9e9e9f"/><path d="M254.39,61.86a17.5,17.5,0,1,1,0-25.08V12.46h9v53.3h-9Zm-17-6.19a8.29,8.29,0,0,0,6,2.6,8.46,8.46,0,0,0,6.12-2.6A9.28,9.28,0,0,0,252,49.32,9.38,9.38,0,0,0,249.5,43a8.46,8.46,0,0,0-6.12-2.6,8.29,8.29,0,0,0-6,2.6,9.38,9.38,0,0,0-2.52,6.34A9.28,9.28,0,0,0,237.34,55.67Z" fill="#9e9e9f"/><path d="M307.4,49.4c0-9.64-8.11-17.43-18.27-17.43s-18.2,7.79-18.2,17.43,8.11,17.43,18.2,17.43a18.9,18.9,0,0,0,10.16-2.91v2h8.11V49.4Zm-12.08,6.42a8.46,8.46,0,0,1-6.12,2.6,8.12,8.12,0,0,1-6-2.6,8.83,8.83,0,0,1-2.6-6.42,8.63,8.63,0,0,1,2.6-6.34,7.91,7.91,0,0,1,6-2.68,8.23,8.23,0,0,1,6.12,2.68,9,9,0,0,1,2.44,6.26A9.56,9.56,0,0,1,295.32,55.82Z" fill="#9e9e9f"/><path d="M175.61,49.4c0-9.64-8.1-17.43-18.27-17.43s-18.19,7.79-18.19,17.43,8.1,17.43,18.19,17.43a18.91,18.91,0,0,0,10.17-2.91v2h8.1V49.4Zm-12.07,6.42a8.47,8.47,0,0,1-6.12,2.6,8.1,8.1,0,0,1-6-2.6,8.83,8.83,0,0,1-2.6-6.42,8.63,8.63,0,0,1,2.6-6.34,7.89,7.89,0,0,1,6-2.68,8.25,8.25,0,0,1,6.12,2.68A9,9,0,0,1,166,49.32,9.56,9.56,0,0,1,163.54,55.82Z" fill="#9e9e9f"/><path d="M114.16,49.4c0-9.64-8.1-17.43-18.26-17.43S77.7,39.76,77.7,49.4s8.11,17.43,18.2,17.43a18.9,18.9,0,0,0,10.16-2.91v2h8.1V49.4Zm-12.07,6.42A8.46,8.46,0,0,1,96,58.42a8.1,8.1,0,0,1-6-2.6,8.83,8.83,0,0,1-2.6-6.42A8.63,8.63,0,0,1,90,43.06a7.89,7.89,0,0,1,6-2.68,8.23,8.23,0,0,1,6.12,2.68,9,9,0,0,1,2.44,6.26A9.56,9.56,0,0,1,102.09,55.82Z" fill="#9e9e9f"/><path d="M386.11,45.88c0-.08,0-.16-.06-.25a18.43,18.43,0,0,0-35.6,0c0,.09-.05.17-.06.25s0,.2-.05.29a17,17,0,0,0,7.78,17.76h0a19.7,19.7,0,0,0,2.07,1.13l.37.17,1,.4.33.11a18.39,18.39,0,0,0,2,.57l.39.1.9.16.75.11.78.08c.45,0,.89.06,1.35.06l.25,0,.25,0c.46,0,.9,0,1.35-.06l.78-.08.75-.11.89-.16.4-.1a18.39,18.39,0,0,0,2-.57l.33-.11,1-.4.37-.17a19.7,19.7,0,0,0,2.07-1.13h0a17,17,0,0,0,7.78-17.76C386.14,46.08,386.13,46,386.11,45.88ZM374.4,55.82a8.43,8.43,0,0,1-6.11,2.6h-.08a8.43,8.43,0,0,1-6.11-2.6,9.52,9.52,0,0,1-2.45-6.5,8.93,8.93,0,0,1,2.45-6.26,8.21,8.21,0,0,1,6.11-2.68h.08a8.21,8.21,0,0,1,6.11,2.68,8.93,8.93,0,0,1,2.45,6.26A9.52,9.52,0,0,1,374.4,55.82Z" fill="#3baee4"/><path d="M333.76,66.83V33h9.78V66.83Z" fill="#3baee4"/><path d="M344.31,21.93a5.66,5.66,0,1,1-5.66-5.67A5.65,5.65,0,0,1,344.31,21.93Z" fill="#3baee4"/><path d="M325.94,61.37a5.66,5.66,0,1,1-5.66-5.67A5.65,5.65,0,0,1,325.94,61.37Z" fill="#3baee4"/></g></svg>