<svg xmlns="http://www.w3.org/2000/svg" width="196" height="52" xmlns:v="https://vecta.io/nano"><path d="M83.853 33.891V11.844h-4.487v22.047h4.487zm8.559-22.047v22.047h-4.487V11.844h4.487zM66.1 34.315q1.537 0 2.855-.565c.879-.377 1.564-.884 2.055-1.522v1.663h4.314V19.392H71.56l-.298 1.412q-1.632-1.914-4.754-1.914-2.118 0-3.773.981-1.655.981-2.565 2.754-.91 1.773-.91 4.127 0 2.26.847 3.962.847 1.703 2.408 2.652 1.561.949 3.585.949zm-1.31-5.068c.633.68 1.467 1.02 2.502 1.02 1.046 0 1.896-.337 2.549-1.012q.981-1.012.981-2.691 0-1.632-.981-2.628-.981-.996-2.549-.996-1.569 0-2.51 1.012-.941 1.012-.941 2.644 0 1.632.949 2.652zm37.57-7.314V33.89h-2.667V21.933H97.12V19.72h2.573v-3.342q0-2.346 1.173-3.512 1.157-1.149 3.455-1.149.863 0 1.506.126v2.213q-.361-.094-1.035-.094-1.114 0-1.647.439-.533.439-.659 1.028-.126.588-.126 1.467v2.825h3.467v2.213h-3.467zm46.559 0V33.89h-2.667V21.933h-2.761V19.72h2.761v-3.766h2.667v3.766h2.792v2.213h-2.792zm-34.235 12.349q1.836 0 3.295-.792 1.459-.792 2.165-2.111v2.511h2.51V19.72h-2.212l-.235 2.275c-.513-.837-1.229-1.496-2.149-1.977s-1.982-.722-3.185-.722q-2.024 0-3.577.934-1.553.934-2.439 2.652-.886 1.718-.886 3.962 0 2.197.847 3.884c.565 1.125 1.357 1.998 2.377 2.621q1.53.934 3.491.934zm19.369 0c1.778 0 3.292-.473 4.542-1.42a5.72 5.72 0 0 0 2.267-3.727h-2.73c-.188.837-.659 1.512-1.412 2.024s-1.663.769-2.73.769q-2.149 0-3.373-1.404-1.224-1.404-1.224-3.711c0-1.601.424-2.861 1.271-3.782q1.271-1.381 3.326-1.381c1.067 0 1.972.251 2.714.753a3.35 3.35 0 0 1 1.428 2.071h2.73c-.251-1.59-.999-2.851-2.243-3.782s-2.777-1.397-4.597-1.397q-2.149 0-3.804.934-1.655.934-2.589 2.636-.934 1.703-.934 3.915 0 2.228.918 3.931c.612 1.135 1.475 2.014 2.589 2.636q1.671.934 3.851.934zm27.646 0c1.485 0 2.806-.327 3.961-.981s2.06-1.551 2.714-2.691.981-2.406.981-3.797c0-1.412-.322-2.686-.965-3.821q-.965-1.703-2.722-2.699-1.757-.996-3.969-.996-2.212 0-3.946.996c-1.156.664-2.055 1.564-2.698 2.699s-.965 2.409-.965 3.821c0 1.402.327 2.67.981 3.805s1.558 2.03 2.714 2.683 2.46.981 3.914.981zm31.591-1.193q-1.545 1.193-4.134 1.193c-1.653 0-3.01-.398-4.071-1.193a4.1 4.1 0 0 1-1.718-3.154h2.604q.094 1.098.941 1.695c.565.398 1.313.596 2.244.596.92 0 1.637-.183 2.149-.549s.769-.884.769-1.553c0-.659-.204-1.132-.612-1.42s-.931-.5-1.569-.636l-2.51-.581c-1.245-.282-2.162-.758-2.753-1.428s-.886-1.485-.886-2.448c0-1.308.494-2.354 1.483-3.138s2.272-1.177 3.851-1.177q2.416 0 3.914 1.208 1.498 1.208 1.561 3.201h-2.604c-.021-.732-.301-1.308-.839-1.726q-.808-.628-2.063-.628c-.795 0-1.425.178-1.891.534q-.698.534-.698 1.491c0 .596.186 1.03.557 1.302q.557.408 1.467.596l2.855.643q1.773.392 2.636 1.436.863 1.044.863 2.519c0 1.349-.515 2.422-1.545 3.217zm-17.243.8v-7.642c0-1.349.348-2.406 1.043-3.17q1.043-1.146 2.973-1.146.643 0 1.004.063v-2.275a7.01 7.01 0 0 0-1.349-.126c-.879 0-1.65.196-2.314.588q-.996.588-1.357 1.687l-.314-2.15h-2.353v14.17h2.667zm-17.831-3.436c.91.962 2.071 1.444 3.483 1.444q2.181 0 3.553-1.444c.915-.963 1.373-2.176 1.373-3.641 0-1.475-.455-2.699-1.365-3.672q-1.365-1.459-3.561-1.459c-1.412 0-2.573.486-3.483 1.459s-1.365 2.197-1.365 3.672c0 1.465.455 2.678 1.365 3.641zm-46.261.008q1.255 1.404 3.31 1.404c1.391 0 2.515-.465 3.373-1.397s1.286-2.181 1.286-3.75q0-2.275-1.271-3.64-1.271-1.365-3.326-1.365-2.118 0-3.373 1.397-1.255 1.397-1.255 3.672 0 2.275 1.255 3.68z" fill="#2f2f2f" fill-rule="evenodd"/><g fill="#f4604e"><path d="M13.675 22.009c1.377 0 2.494 2.151 2.494 3.542 0 1.367-1.079 3.587-2.424 3.624l-.07.001S.806 26.942.806 25.551c0-1.367 12.869-3.542 12.869-3.542zm37.609 3.542c0 1.367-12.949 3.542-12.949 3.542-1.333 0-2.413-2.151-2.413-3.542 0-1.367 1.044-3.254 2.346-3.292 0 0 13.017 1.901 13.017 3.292zM22.503 37.924c0-1.377 2.151-2.494 3.542-2.494 1.367 0 3.504 1.079 3.541 2.424l.001.07s-2.151 12.869-3.542 12.869c-1.367 0-3.542-12.869-3.542-12.869zM26.045.308c1.367 0 3.542 12.949 3.542 12.949 0 1.333-2.151 2.413-3.542 2.413-1.367 0-3.504-1.044-3.541-2.346l-.001-.068S24.654.308 26.045.308zm-7.637 29.777c.677-.677 2.123-.33 2.779.326.644.644 1.003 2.065.359 2.744l-.034.035s-7.227 5.434-7.882 4.778c-.644-.644 4.778-7.883 4.778-7.883zM38.46 13.134c.644.644-4.818 7.922-4.818 7.922-.656.656-2.084.291-2.739-.365-.644-.644-1.021-2.048-.398-2.706l.033-.034s7.266-5.473 7.922-4.818zm-7.883 20.055c-.677-.677-.33-2.123.326-2.779.644-.644 2.065-1.003 2.744-.359l.035.034s5.434 7.227 4.778 7.883c-.644.644-7.882-4.778-7.882-4.778z"/><path d="M13.63 13.134c.644-.644 7.922 4.818 7.922 4.818.656.656.291 2.084-.365 2.739-.644.644-2.048 1.02-2.706.398l-.034-.033s-5.473-7.266-4.818-7.922z"/></g></svg>