<svg width="2230" height="2500" viewBox="0 0 256 287" xmlns="http://www.w3.org/2000/svg" preserveAspectRatio="xMidYMid"><defs><linearGradient x1="14.551%" y1="49.972%" x2="411.685%" y2="49.972%" id="a"><stop stop-color="#FFF" stop-opacity="0" offset="0%"/><stop stop-color="#FFF" offset="100%"/></linearGradient><linearGradient x1="5.239%" y1="82.91%" x2="379.916%" y2="-193.342%" id="b"><stop stop-color="#FFF" stop-opacity="0" offset="0%"/><stop stop-color="#FFF" offset="100%"/></linearGradient><linearGradient x1="62.675%" y1="44.012%" x2="-363.978%" y2="243.704%" id="c"><stop stop-color="#FFF" stop-opacity="0" offset="0%"/><stop stop-color="#FFF" offset="100%"/></linearGradient><linearGradient x1="11.134%" y1="19.904%" x2="355.291%" y2="478.171%" id="d"><stop stop-color="#FFF" stop-opacity="0" offset="0%"/><stop stop-color="#FFF" offset="100%"/></linearGradient><linearGradient x1="53.115%" y1="2.534%" x2="46.266%" y2="110.506%" id="e"><stop stop-color="#1A3B54" stop-opacity="0" offset="0%"/><stop stop-color="#1A3B54" offset="100%"/></linearGradient></defs><path d="M142.4 3.9l99.3 57.3C251 66.6 256 75.5 256 86.9v114c0 10.8-4.9 19.2-14.1 24.6-33 19.1-66.1 38.1-99.1 57.2-9.6 5.6-20 5.5-29.7-.1-32.9-19-65.9-38-98.8-57.1C6.4 221 0 211.9 0 200.4V81.8c0-10.4 4.9-15.7 14.1-21L53.7 38v148.3l74.3 42.9 74.3-42.9v-85.8L128 57.6l-31.2 18v-62c5.6-3.2 11.2-6.5 16.9-9.7 8.7-5.1 19.5-5.3 28.7 0z" fill="#2A5D84"/><path d="M159.2 125.2v36l-15.6 9-15.6 9.1-15.6-9.1-15.6-9v-36l15.6-9 15.6-9 15.6 9 15.6 9z" fill="#1A3B54"/><path d="M158.1 125.9L128 108.5l-30.1 17.4 30.1 17.5 30.1-17.5z" fill="url(#a)"/><path d="M128 178l30.1-17.4v-34.7L128 143.2V178z" fill="url(#b)"/><path d="M128 178l-30.1-17.4v-34.7l30.1 17.3V178z" fill="url(#c)"/><path d="M97.9 14.3v59.4L128 56.3l75.4 43.5v.3l48.1-27.6c-2.3-4.2-5.7-7.7-10.4-10.4-33.1-19-66.2-38.1-99.3-57.2-8.6-5-19-5-27.6 0-5.4 3.1-10.9 6.2-16.3 9.4z" fill="url(#d)"/><path d="M52.6 186.8v-.5c0-50.3.2-98 .2-148.3L14.9 59.8c-8.8 5.1-13.8 11.9-13.8 22v118.6c0 4.9 1.3 9.7 3.6 13.9l47.9-27.5z" fill="url(#e)"/></svg>