<svg width="1920" height="211" viewBox="0 0 1920 211" fill="none" xmlns="http://www.w3.org/2000/svg">
<path d="M160.059 16.3556C143.965 6.42541 124.36 0.584139 103.877 0.584139C45.3549 0.584139 0 44.6857 0 105.143C0 169.981 47.9884 210.286 103.877 210.286C124.068 210.286 145.428 203.568 160.352 194.514C166.496 191.302 167.959 183.708 163.278 177.283C159.474 172.61 153.329 171.733 148.062 174.654C134.894 182.832 119.971 187.213 103.877 187.213C59.6929 187.213 25.1647 156.546 25.1647 105.143C25.1647 57.2444 57.9372 23.6572 103.877 23.6572C120.264 23.6572 135.187 28.6222 148.062 36.2159C153.621 39.1365 159.474 38.8445 162.985 33.8794C167.667 27.746 166.496 20.1524 160.059 16.3556ZM353.924 195.975C353.924 189.257 348.657 184.292 341.927 184.292H253.265V14.6032C253.265 7.88573 247.706 2.92065 241.268 2.92065C233.953 2.92065 228.978 7.88573 228.978 14.6032V195.39C228.978 202.108 233.953 207.365 240.683 207.365H341.927C348.657 207.365 353.924 202.692 353.924 195.975ZM597.153 105.143C597.153 44.9778 555.894 0 498.542 0C440.898 0 399.93 44.9778 399.93 105.143C399.93 165.308 440.898 210.286 498.542 210.286C555.894 210.286 597.153 165.308 597.153 105.143ZM571.988 105.143C571.988 152.457 541.556 186.921 498.542 186.921C455.236 186.921 425.097 152.749 425.097 105.143C425.097 57.5365 455.236 23.3651 498.542 23.3651C541.556 23.3651 571.988 57.5365 571.988 105.143ZM808.906 2.62858C801.884 2.62858 797.787 7.88573 797.787 14.6032V130.552C797.787 162.679 772.037 186.044 742.191 186.044C712.93 186.044 688.058 162.679 688.058 130.552V14.6032C688.058 7.88573 682.498 2.62858 676.06 2.62858C668.745 2.62858 663.771 7.88573 663.771 14.6032V130.552C663.771 175.53 697.421 209.41 742.191 209.41C786.668 209.41 820.318 175.53 820.318 130.552V14.6032C820.318 7.88573 815.637 2.62858 808.906 2.62858ZM911.016 2.92065C904.286 2.92065 899.311 7.88573 899.311 14.6032V195.39C899.311 202.108 904.286 207.365 911.016 207.365H984.169C1041.81 207.365 1070.49 161.511 1070.49 105.143C1070.49 50.2349 1041.81 2.92065 984.169 2.92065H911.016ZM981.243 25.4095C1026.31 25.4095 1045.32 62.7936 1045.32 105.143C1045.32 148.952 1026.31 184.584 981.243 184.584H923.598V25.4095H981.243ZM1150.6 207.365C1157.33 207.365 1161.43 202.108 1161.43 195.39V124.419H1223.17C1240.14 124.419 1257.7 131.721 1257.7 156.546C1257.7 189.549 1267.65 200.063 1277.01 205.321C1281.69 208.241 1290.18 208.241 1293.98 202.692C1297.78 197.435 1295.74 190.425 1290.18 187.213C1283.45 183.416 1281.98 175.822 1281.11 154.21C1280.52 133.765 1269.69 119.454 1254.77 112.444C1273.79 103.975 1287.84 84.1143 1287.84 60.7492C1287.84 27.1619 1262.09 2.92065 1229.61 2.92065H1148.84C1142.11 2.92065 1137.14 7.88573 1137.14 14.6032V195.39C1137.14 202.108 1143.29 207.365 1150.6 207.365ZM1228.14 25.4095C1248.04 25.4095 1262.67 40.8889 1262.67 61.3333C1262.67 85.8667 1246.58 102.514 1229.61 103.39H1161.43V25.4095H1228.14ZM1518.93 196.559C1518.93 195.098 1518.64 193.638 1518.06 191.886L1442.56 9.63811C1440.81 4.96509 1436.42 2.04446 1431.44 2.04446C1426.47 1.75239 1422.08 4.0889 1420.03 9.63811L1344.24 193.638C1343.66 195.098 1343.37 196.559 1343.66 198.019C1343.66 203.568 1347.17 207.949 1354.49 207.949C1358.88 207.949 1362.97 205.029 1364.73 200.356L1384.33 152.749H1477.09L1496.7 200.063C1498.74 205.029 1502.84 207.949 1507.52 207.949C1513.37 207.949 1518.93 203.568 1518.93 196.559ZM1393.7 129.968L1430.27 40.8889L1467.43 129.968H1393.7ZM1590.79 207.365C1597.52 207.365 1602.78 202.108 1602.78 195.39V114.197H1680.03C1686.76 114.197 1692.03 108.94 1692.03 103.098C1692.03 96.3809 1686.76 91.4159 1680.03 91.4159H1602.78V25.4095H1693.2C1699.93 25.4095 1705.2 20.4445 1705.2 14.3111C1705.2 7.59366 1699.93 2.92065 1693.2 2.92065H1590.49C1583.76 2.92065 1578.79 7.88573 1578.79 14.6032V195.39C1578.79 202.108 1583.47 207.365 1590.79 207.365ZM1839.82 207.365C1847.14 207.365 1852.41 202.108 1852.41 195.39V25.1175H1908C1914.73 25.1175 1920 21.0286 1920 14.0191C1920 7.3016 1914.73 2.92065 1908 2.92065H1771.94C1765.21 2.92065 1760.23 7.3016 1760.23 14.0191C1760.23 20.7365 1765.21 25.1175 1771.94 25.1175H1827.53V195.39C1827.53 202.108 1832.8 207.365 1839.82 207.365Z" fill="#00BD6E"/>
</svg>
