<svg width="262" height="48" viewBox="0 0 262 48" fill="none" xmlns="http://www.w3.org/2000/svg">
<g clip-path="url(#clip0_1989_23454)">
<path d="M183.135 7.70638H203.168V14.1384H196.405V47.494H189.833V14.1384H183.139V7.70638H183.135ZM206.987 7.70638H213.571V47.494H206.991V7.70638H206.987ZM180.835 18.7115V20.7973H174.255V18.4278C174.255 14.8147 172.169 13.5711 169.813 13.5711C167.456 13.5711 165.423 14.758 165.423 18.4278V36.7551C165.423 40.3638 167.504 41.6075 169.813 41.6075C171.995 41.6075 174.255 40.4206 174.255 36.7551V33.8926H180.84V36.5457C180.84 43.2569 176.28 48.0002 169.83 48.0002C163.381 48.0002 158.834 43.2569 158.834 36.5457V18.7115C158.834 11.9347 163.337 7.2002 169.813 7.2002C176.288 7.2002 180.84 11.9347 180.84 18.7115H180.835ZM234.072 7.70638H240.765L232.038 47.494H225.122L216.395 7.70638H223.088L228.547 36.7682L234.072 7.70638ZM250.029 14.1384V24.5195H258.848V30.3362H250.029V41.1144H261.903V47.494H243.445V7.70638H261.903V14.1384H250.029ZM104.376 18.7027V20.7886H97.8301V18.4278C97.8301 14.8147 95.7487 13.5711 93.3836 13.5711C91.0185 13.5711 89.02 14.758 89.02 18.4278V36.7551C89.02 40.3638 91.0971 41.6075 93.3836 41.6075C95.6701 41.6075 97.8301 40.4206 97.8301 36.7551V33.8926H104.376V36.5457C104.376 43.2569 99.8331 48.0002 93.3618 48.0002C86.8905 48.0002 82.3916 43.2569 82.3916 36.5457V18.7115C82.3916 11.9347 86.8949 7.2002 93.3618 7.2002C99.8287 7.2002 104.376 11.9347 104.376 18.7115V18.7027ZM123.257 36.7682C123.257 40.4337 121.01 41.6206 118.815 41.6206C116.507 41.6206 114.425 40.3769 114.425 36.7682V18.4409C114.425 14.7711 116.563 13.5842 118.815 13.5842C121.18 13.5842 123.257 14.8278 123.257 18.4409V36.7682ZM118.815 7.2002C112.339 7.2002 107.84 11.9347 107.84 18.7115V36.5457C107.819 43.2569 112.317 48.0002 118.815 48.0002C125.312 48.0002 129.842 43.2569 129.842 36.5457V18.7115C129.82 11.9347 125.26 7.2002 118.815 7.2002ZM140.777 33.9493L144.268 17.4111L147.702 33.9493H140.777ZM140.72 7.70638L131.16 47.494H137.858L139.603 39.7049H148.832L150.521 47.494H157.206L147.816 7.70638H140.72Z" fill="url(#paint0_linear_1989_23454)"/>
<path d="M50.5457 0H24.3675C18.0904 0 12.0586 2.41171 7.53479 6.72274C3.01097 11.0338 0.356463 16.9084 0.11555 23.1188C-0.125364 29.3292 2.07409 35.3893 6.24992 40.0272C10.4257 44.6651 17.2793 48 22.8977 48L50.5457 0Z" fill="url(#paint1_linear_1989_23454)"/>
<path d="M50.5375 -0.00012207L22.8984 47.9999H78.0984L50.5375 -0.00012207Z" fill="#6EDB72"/>
</g>
<defs>
<linearGradient id="paint0_linear_1989_23454" x1="261.698" y1="26.4002" x2="211.845" y2="-54.149" gradientUnits="userSpaceOnUse">
<stop stop-color="#169A5B"/>
<stop offset="1" stop-color="#68D773"/>
</linearGradient>
<linearGradient id="paint1_linear_1989_23454" x1="30.0977" y1="39.6" x2="0.0976611" y2="24" gradientUnits="userSpaceOnUse">
<stop stop-color="#169A5B"/>
<stop offset="1" stop-color="#68D773"/>
</linearGradient>
<clipPath id="clip0_1989_23454">
<rect width="261.805" height="48" fill="white" transform="translate(0.0976562)"/>
</clipPath>
</defs>
</svg>
