<svg xmlns="http://www.w3.org/2000/svg" xmlns:xlink="http://www.w3.org/1999/xlink" width="1280" zoomAndPan="magnify" viewBox="0 0 960 479.999983" height="640" preserveAspectRatio="xMidYMid meet" version="1.0"><defs><g/></defs><rect x="-96" width="1152" fill="#ffffff" y="-47.999998" height="575.99998" fill-opacity="1"/><rect x="-96" width="1152" fill="#fffffe" y="-47.999998" height="575.99998" fill-opacity="1"/><path fill="#6c1899" d="M 127.652344 235.308594 L 128.195312 258.324219 L 152.386719 273.273438 L 151.84375 250.257812 Z M 186.730469 330.8125 L 186.1875 308.34375 L 164.984375 295.203125 C 164.710938 295.023438 164.347656 294.75 164.078125 294.570312 L 164.621094 317.132812 Z M 111.160156 361.167969 L 55.796875 326.828125 L 54.4375 269.289062 L 81.527344 257.597656 L 80.984375 234.582031 L 37.671875 253.25 C 34.320312 254.699219 32.328125 257.78125 32.417969 261.3125 L 34.046875 330.359375 C 34.140625 333.894531 36.3125 337.429688 39.757812 339.511719 L 106.175781 380.652344 C 109.257812 382.554688 112.972656 383.097656 116.144531 382.101562 C 116.503906 382.007812 116.777344 381.917969 117.050781 381.738281 L 157.824219 364.160156 L 135.714844 350.476562 Z M 290.027344 233.949219 C 289.9375 229.78125 287.398438 225.703125 283.414062 223.257812 L 202.859375 173.328125 L 200.414062 174.417969 L 200.957031 198.609375 L 264.746094 238.117188 L 266.289062 302.816406 L 290.664062 317.945312 L 292.019531 317.402344 Z M 290.027344 233.949219 " fill-opacity="1" fill-rule="nonzero"/><path fill="#6c1899" d="M 193.527344 347.488281 L 118.679688 301.09375 L 116.867188 223.167969 L 150.9375 208.488281 L 150.304688 181.667969 L 97.386719 204.5 C 93.488281 206.222656 91.132812 209.757812 91.226562 213.925781 L 93.398438 305.261719 C 93.488281 309.429688 96.027344 313.507812 100.015625 315.953125 L 187.726562 370.320312 C 191.351562 372.585938 195.699219 373.128906 199.324219 372.042969 C 199.6875 371.953125 200.050781 371.769531 200.414062 371.589844 L 252.242188 349.207031 L 226.507812 333.261719 Z M 193.527344 347.488281 " fill-opacity="1" fill-rule="nonzero"/><path fill="#6c1899" d="M 404.109375 170.066406 L 291.566406 100.296875 C 287.398438 97.757812 282.507812 97.035156 278.25 98.394531 C 277.796875 98.484375 277.433594 98.664062 276.980469 98.847656 L 167.25 146.144531 C 162.808594 148.050781 160.089844 152.125 160.269531 156.929688 L 162.988281 274 C 163.082031 278.710938 165.980469 283.421875 170.511719 286.234375 L 283.050781 355.914062 C 287.21875 358.449219 292.113281 359.175781 296.371094 357.816406 C 296.824219 357.726562 297.1875 357.542969 297.640625 357.363281 L 407.371094 310.0625 C 411.8125 308.160156 414.4375 304.082031 414.347656 299.28125 L 411.628906 182.210938 C 411.539062 177.496094 408.640625 172.875 404.109375 170.066406 Z M 289.757812 329.816406 L 191.984375 269.199219 L 189.539062 167.53125 L 284.953125 126.394531 L 382.722656 187.011719 L 385.171875 288.679688 Z M 289.757812 329.816406 " fill-opacity="1" fill-rule="nonzero"/><path fill="#43105f" d="M 560.832031 230.835938 C 560.710938 227.273438 560.148438 224.007812 559.136719 221.035156 C 558.128906 218.070312 556.617188 215.488281 554.597656 213.289062 C 552.574219 211.09375 550.054688 209.367188 547.027344 208.125 C 543.996094 206.878906 540.464844 206.25 536.425781 206.25 C 532.507812 206.25 528.917969 206.992188 525.652344 208.476562 C 522.382812 209.964844 519.621094 211.894531 517.367188 214.269531 C 515.136719 216.59375 513.386719 219.238281 512.109375 222.195312 C 510.863281 225.105469 510.242188 227.984375 510.242188 230.835938 Z M 510.242188 243.660156 C 510.242188 247.34375 511.042969 250.699219 512.644531 253.726562 C 514.226562 256.738281 516.335938 259.320312 518.96875 261.476562 C 521.578125 263.613281 524.609375 265.277344 528.054688 266.460938 C 531.515625 267.660156 535.078125 268.253906 538.742188 268.242188 C 543.730469 268.242188 548.0625 267.085938 551.75 264.769531 C 555.425781 262.457031 558.8125 259.398438 561.902344 255.597656 L 574.015625 264.859375 C 565.105469 276.378906 552.636719 282.140625 536.605469 282.140625 C 529.953125 282.140625 523.925781 281.007812 518.523438 278.753906 C 513.121094 276.5 508.546875 273.382812 504.808594 269.402344 C 501.070312 265.425781 498.183594 260.734375 496.167969 255.332031 C 494.148438 249.925781 493.140625 244.078125 493.140625 237.78125 C 493.140625 231.488281 494.238281 225.640625 496.4375 220.234375 C 498.632812 214.835938 501.660156 210.144531 505.519531 206.164062 C 509.378906 202.183594 513.980469 199.066406 519.328125 196.808594 C 524.667969 194.554688 530.488281 193.425781 536.785156 193.425781 C 544.265625 193.425781 550.589844 194.734375 555.753906 197.347656 C 560.921875 199.957031 565.164062 203.371094 568.492188 207.589844 C 571.816406 211.804688 574.222656 216.558594 575.707031 221.839844 C 577.191406 227.109375 577.933594 232.484375 577.933594 237.960938 L 577.933594 243.660156 Z M 591.824219 195.5625 L 607.855469 195.5625 L 607.855469 208.566406 L 608.210938 208.566406 C 610.230469 204.054688 613.734375 200.402344 618.722656 197.613281 C 623.710938 194.824219 629.46875 193.425781 636 193.425781 C 640.039062 193.425781 643.929688 194.050781 647.667969 195.296875 C 651.410156 196.546875 654.675781 198.476562 657.464844 201.085938 C 660.253906 203.699219 662.480469 207.054688 664.148438 211.152344 C 665.808594 215.246094 666.640625 220.089844 666.640625 225.667969 L 666.640625 280.003906 L 650.605469 280.003906 L 650.605469 230.125 C 650.605469 226.203125 650.074219 222.847656 649.007812 220.058594 C 647.9375 217.269531 646.511719 215.011719 644.726562 213.289062 C 642.96875 211.570312 640.917969 210.324219 638.582031 209.546875 C 636.242188 208.769531 633.839844 208.382812 631.371094 208.390625 C 628.042969 208.390625 624.957031 208.925781 622.105469 209.992188 C 619.253906 211.0625 616.761719 212.753906 614.621094 215.070312 C 612.484375 217.386719 610.820312 220.324219 609.636719 223.886719 C 608.449219 227.453125 607.855469 231.667969 607.855469 236.535156 L 607.855469 280.003906 L 591.824219 280.003906 L 591.824219 195.5625 M 671.792969 195.5625 L 690.335938 195.5625 L 715.632812 260.230469 L 739.855469 195.5625 L 756.949219 195.5625 L 723.816406 279.992188 L 706.179688 279.992188 L 671.792969 195.5625 M 775.128906 237.78125 C 775.128906 242.058594 775.78125 246.007812 777.089844 249.628906 C 778.394531 253.253906 780.234375 256.339844 782.613281 258.894531 C 784.984375 261.445312 787.894531 263.464844 791.339844 264.949219 C 794.785156 266.4375 798.644531 267.175781 802.917969 267.175781 C 807.195312 267.175781 811.050781 266.4375 814.496094 264.949219 C 817.941406 263.464844 820.847656 261.445312 823.226562 258.894531 C 825.601562 256.339844 827.441406 253.253906 828.75 249.628906 C 830.054688 246.007812 830.710938 242.058594 830.710938 237.78125 C 830.710938 233.507812 830.054688 229.558594 828.75 225.9375 C 827.441406 222.316406 825.601562 219.226562 823.226562 216.671875 C 820.847656 214.121094 817.941406 212.105469 814.496094 210.617188 C 811.050781 209.132812 807.195312 208.390625 802.917969 208.390625 C 798.644531 208.390625 794.785156 209.132812 791.339844 210.617188 C 787.894531 212.105469 784.984375 214.121094 782.613281 216.671875 C 780.234375 219.226562 778.394531 222.316406 777.089844 225.9375 C 775.78125 229.558594 775.128906 233.507812 775.128906 237.78125 Z M 758.027344 237.78125 C 758.027344 231.609375 759.1875 225.847656 761.5 220.503906 C 763.816406 215.160156 766.992188 210.46875 771.03125 206.429688 C 775.066406 202.394531 779.820312 199.214844 785.285156 196.898438 C 790.746094 194.582031 796.621094 193.425781 802.917969 193.425781 C 809.210938 193.425781 815.089844 194.582031 820.554688 196.898438 C 826.015625 199.214844 830.769531 202.394531 834.808594 206.429688 C 838.882812 210.511719 842.0625 215.203125 844.339844 220.503906 C 846.652344 225.847656 847.8125 231.609375 847.8125 237.78125 C 847.8125 243.957031 846.652344 249.75 844.339844 255.152344 C 842.019531 260.558594 838.84375 265.246094 834.808594 269.226562 C 830.769531 273.203125 826.015625 276.347656 820.554688 278.667969 C 815.089844 280.980469 809.210938 282.140625 802.917969 282.140625 C 796.621094 282.140625 790.746094 280.980469 785.285156 278.667969 C 779.820312 276.347656 775.066406 273.203125 771.03125 269.226562 C 766.992188 265.246094 763.816406 260.558594 761.5 255.152344 C 759.1875 249.75 758.027344 243.957031 758.027344 237.78125 Z M 849.054688 195.5625 L 867.582031 195.5625 L 892.585938 261.476562 L 892.945312 261.476562 L 916.929688 195.5625 L 934.027344 195.5625 L 893.949219 298.171875 C 892.636719 301.601562 891.160156 304.957031 889.511719 308.238281 C 887.976562 311.261719 886.140625 313.847656 884.015625 315.988281 C 881.882812 318.125 879.3125 319.785156 876.292969 320.972656 C 873.277344 322.160156 869.582031 322.753906 865.207031 322.753906 C 862.839844 322.753906 860.445312 322.605469 858.023438 322.308594 C 855.597656 322.015625 853.265625 321.390625 851.015625 320.441406 L 852.964844 305.832031 C 856.148438 307.136719 859.335938 307.789062 862.523438 307.789062 C 865 307.789062 867.09375 307.460938 868.804688 306.8125 C 870.488281 306.179688 871.960938 305.230469 873.230469 303.960938 C 874.5 302.671875 875.53125 301.21875 876.328125 299.597656 C 877.152344 297.933594 877.980469 296.035156 878.808594 293.894531 L 883.996094 280.535156 L 849.054688 195.5625 " fill-opacity="1" fill-rule="evenodd"/><path fill="#43105f" d="M 609.386719 334.378906 C 609.386719 339.910156 607.972656 344.105469 605.144531 346.984375 C 602.3125 349.855469 598.222656 351.292969 592.859375 351.292969 C 589.875 351.292969 587.1875 350.859375 584.789062 349.996094 C 582.394531 349.132812 580.113281 347.636719 577.953125 345.523438 L 581.582031 341.371094 C 583.183594 343.097656 584.875 344.410156 586.667969 345.292969 C 588.460938 346.175781 590.523438 346.621094 592.859375 346.621094 C 595.199219 346.621094 596.976562 346.285156 598.464844 345.621094 C 599.953125 344.949219 601.132812 344.039062 601.996094 342.902344 C 602.859375 341.753906 603.464844 340.449219 603.808594 338.980469 C 604.148438 337.511719 604.328125 335.976562 604.328125 334.378906 L 604.328125 330.492188 L 604.195312 330.492188 C 602.984375 332.433594 601.410156 333.863281 599.46875 334.765625 C 597.523438 335.675781 595.535156 336.128906 593.503906 336.128906 C 591.128906 336.128906 588.945312 335.742188 586.957031 334.964844 C 584.96875 334.1875 583.261719 333.105469 581.839844 331.722656 C 580.417969 330.339844 579.308594 328.699219 578.53125 326.796875 C 577.753906 324.890625 577.367188 322.824219 577.367188 320.570312 C 577.367188 318.105469 577.753906 315.878906 578.53125 313.898438 C 579.308594 311.910156 580.402344 310.234375 581.808594 308.878906 C 583.210938 307.515625 584.910156 306.46875 586.890625 305.738281 C 588.882812 305.003906 591.082031 304.636719 593.503906 304.636719 C 594.539062 304.636719 595.582031 304.753906 596.613281 304.992188 C 597.648438 305.230469 598.65625 305.597656 599.632812 306.09375 C 600.605469 306.585938 601.476562 307.21875 602.253906 307.96875 C 603.03125 308.726562 603.683594 309.601562 604.195312 310.589844 L 604.328125 310.589844 L 604.328125 305.40625 L 609.378906 305.40625 L 609.378906 334.378906 Z M 582.816406 320.578125 C 582.816406 322.132812 583.097656 323.566406 583.65625 324.886719 C 584.21875 326.203125 584.988281 327.347656 585.957031 328.316406 C 586.933594 329.292969 588.066406 330.054688 589.363281 330.617188 C 590.660156 331.175781 592.042969 331.457031 593.511719 331.457031 C 595.238281 331.457031 596.773438 331.15625 598.117188 330.550781 C 599.453125 329.945312 600.585938 329.132812 601.523438 328.121094 C 602.449219 327.105469 603.15625 325.9375 603.628906 324.621094 C 604.105469 323.304688 604.339844 321.90625 604.339844 320.4375 C 604.339844 318.796875 604.085938 317.296875 603.5625 315.933594 C 603.042969 314.570312 602.3125 313.398438 601.363281 312.402344 C 600.414062 311.40625 599.269531 310.644531 597.933594 310.105469 C 596.59375 309.5625 595.125 309.292969 593.523438 309.292969 C 591.925781 309.292969 590.46875 309.582031 589.152344 310.167969 C 587.835938 310.75 586.707031 311.550781 585.777344 312.566406 C 584.851562 313.582031 584.125 314.773438 583.605469 316.128906 C 583.085938 317.496094 582.828125 318.96875 582.828125 320.570312 Z M 582.816406 320.578125 " fill-opacity="1" fill-rule="nonzero"/><path fill="#43105f" d="M 618.332031 309.300781 C 619.886719 307.699219 621.738281 306.527344 623.871094 305.769531 C 626.011719 305.011719 628.179688 304.636719 630.386719 304.636719 C 634.878906 304.636719 638.121094 305.695312 640.109375 307.8125 C 642.097656 309.925781 643.09375 313.148438 643.09375 317.46875 L 643.09375 330.496094 C 643.09375 331.359375 643.132812 332.257812 643.226562 333.183594 C 643.308594 334.113281 643.421875 334.96875 643.546875 335.746094 L 638.6875 335.746094 C 638.515625 335.054688 638.417969 334.292969 638.398438 333.449219 C 638.375 332.605469 638.363281 331.859375 638.363281 331.214844 L 638.230469 331.214844 C 637.238281 332.769531 635.90625 334.046875 634.246094 335.042969 C 632.582031 336.035156 630.585938 336.53125 628.253906 336.53125 C 626.699219 336.53125 625.234375 336.339844 623.878906 335.945312 C 622.515625 335.554688 621.328125 334.984375 620.316406 334.226562 C 619.300781 333.46875 618.492188 332.53125 617.882812 331.40625 C 617.277344 330.28125 616.976562 328.988281 616.976562 327.519531 C 616.976562 325.015625 617.621094 323.046875 618.917969 321.625 C 620.214844 320.203125 621.824219 319.140625 623.746094 318.449219 C 625.671875 317.757812 627.746094 317.328125 629.972656 317.152344 C 632.199219 316.980469 634.238281 316.894531 636.097656 316.894531 L 638.039062 316.894531 L 638.039062 315.984375 C 638.039062 313.777344 637.382812 312.121094 636.066406 310.992188 C 634.746094 309.867188 632.894531 309.304688 630.523438 309.304688 C 628.886719 309.304688 627.269531 309.578125 625.695312 310.117188 C 624.117188 310.65625 622.726562 311.488281 621.515625 312.613281 L 618.339844 309.304688 Z M 632.976562 321.15625 C 629.734375 321.15625 627.164062 321.609375 625.261719 322.519531 C 623.359375 323.429688 622.410156 324.917969 622.410156 326.992188 C 622.410156 328.898438 623.046875 330.246094 624.320312 331.042969 C 625.589844 331.839844 627.179688 332.242188 629.082031 332.242188 C 630.550781 332.242188 631.835938 331.992188 632.9375 331.5 C 634.035156 331.003906 634.957031 330.34375 635.6875 329.523438 C 636.425781 328.699219 636.988281 327.738281 637.375 326.636719 C 637.765625 325.535156 637.980469 324.359375 638.019531 323.105469 L 638.019531 321.164062 L 632.96875 321.164062 Z M 632.976562 321.15625 " fill-opacity="1" fill-rule="nonzero"/><path fill="#43105f" d="M 668.949219 309.6875 L 660.003906 309.6875 L 660.003906 324.851562 C 660.003906 325.847656 660.023438 326.761719 660.066406 327.605469 C 660.109375 328.449219 660.285156 329.179688 660.589844 329.804688 C 660.890625 330.429688 661.347656 330.933594 661.953125 331.292969 C 662.558594 331.664062 663.421875 331.847656 664.546875 331.847656 C 665.277344 331.847656 666.035156 331.761719 666.8125 331.589844 C 667.589844 331.417969 668.328125 331.15625 669.019531 330.8125 L 669.210938 335.417969 C 668.347656 335.804688 667.386719 336.089844 666.324219 336.261719 C 665.265625 336.433594 664.265625 336.519531 663.308594 336.519531 C 661.496094 336.519531 660.046875 336.28125 658.96875 335.804688 C 657.886719 335.332031 657.042969 334.660156 656.4375 333.796875 C 655.832031 332.933594 655.4375 331.867188 655.238281 330.589844 C 655.046875 329.316406 654.949219 327.902344 654.949219 326.347656 L 654.949219 309.6875 L 648.335938 309.6875 L 648.335938 305.414062 L 654.949219 305.414062 L 654.949219 296.792969 L 660.003906 296.792969 L 660.003906 305.414062 L 668.945312 305.414062 L 668.945312 309.6875 Z M 668.949219 309.6875 " fill-opacity="1" fill-rule="nonzero"/><path fill="#43105f" d="M 702.257812 330.234375 C 700.445312 332.566406 698.457031 334.199219 696.296875 335.128906 C 694.136719 336.058594 691.632812 336.523438 688.78125 336.523438 C 686.402344 336.523438 684.269531 336.101562 682.367188 335.257812 C 680.460938 334.417969 678.855469 333.285156 677.535156 331.855469 C 676.21875 330.425781 675.207031 328.746094 674.492188 326.800781 C 673.78125 324.859375 673.425781 322.785156 673.425781 320.578125 C 673.425781 318.246094 673.816406 316.097656 674.59375 314.128906 C 675.371094 312.164062 676.449219 310.480469 677.832031 309.074219 C 679.214844 307.671875 680.855469 306.578125 682.761719 305.800781 C 684.664062 305.023438 686.734375 304.636719 688.984375 304.636719 C 691.101562 304.636719 693.050781 304.992188 694.820312 305.703125 C 696.59375 306.414062 698.113281 307.457031 699.394531 308.8125 C 700.664062 310.175781 701.652344 311.835938 702.34375 313.804688 C 703.035156 315.773438 703.378906 318.007812 703.378906 320.511719 L 703.378906 322.132812 L 678.878906 322.132812 C 678.964844 323.429688 679.28125 324.667969 679.824219 325.859375 C 680.363281 327.050781 681.0625 328.085938 681.929688 328.96875 C 682.792969 329.859375 683.808594 330.554688 684.972656 331.078125 C 686.140625 331.597656 687.417969 331.855469 688.792969 331.855469 C 691 331.855469 692.859375 331.464844 694.367188 330.6875 C 695.875 329.910156 697.238281 328.765625 698.449219 327.257812 L 702.269531 330.238281 Z M 697.917969 317.851562 C 697.832031 315.253906 696.988281 313.1875 695.386719 311.625 C 693.789062 310.070312 691.585938 309.292969 688.773438 309.292969 C 685.960938 309.292969 683.695312 310.070312 681.96875 311.625 C 680.246094 313.179688 679.203125 315.253906 678.859375 317.851562 Z M 697.917969 317.851562 " fill-opacity="1" fill-rule="nonzero"/><path fill="#43105f" d="M 743.738281 335.742188 L 738.742188 335.742188 L 730.121094 312.410156 L 729.988281 312.410156 L 722.34375 335.742188 L 717.15625 335.742188 L 707.304688 305.40625 L 712.875 305.40625 L 719.8125 328.738281 L 719.945312 328.738281 L 727.789062 305.40625 L 733.105469 305.40625 L 741.074219 328.738281 L 741.207031 328.738281 L 748.078125 305.40625 L 753.519531 305.40625 L 743.730469 335.742188 Z M 743.738281 335.742188 " fill-opacity="1" fill-rule="nonzero"/><path fill="#43105f" d="M 758.835938 309.300781 C 760.390625 307.699219 762.238281 306.527344 764.375 305.769531 C 766.515625 305.011719 768.683594 304.636719 770.890625 304.636719 C 775.382812 304.636719 778.621094 305.695312 780.613281 307.8125 C 782.601562 309.925781 783.59375 313.148438 783.59375 317.46875 L 783.59375 330.496094 C 783.59375 331.359375 783.636719 332.257812 783.726562 333.183594 C 783.8125 334.113281 783.917969 334.96875 784.050781 335.746094 L 779.1875 335.746094 C 779.015625 335.054688 778.917969 334.292969 778.898438 333.449219 C 778.871094 332.605469 778.867188 331.859375 778.867188 331.214844 L 778.734375 331.214844 C 777.738281 332.769531 776.410156 334.046875 774.75 335.042969 C 773.082031 336.035156 771.085938 336.53125 768.753906 336.53125 C 767.199219 336.53125 765.738281 336.339844 764.382812 335.945312 C 763.015625 335.554688 761.832031 334.984375 760.816406 334.226562 C 759.804688 333.46875 758.992188 332.53125 758.386719 331.40625 C 757.78125 330.28125 757.476562 328.988281 757.476562 327.519531 C 757.476562 325.015625 758.125 323.046875 759.421875 321.625 C 760.71875 320.203125 762.324219 319.140625 764.25 318.449219 C 766.171875 317.757812 768.246094 317.328125 770.472656 317.152344 C 772.699219 316.980469 774.742188 316.894531 776.601562 316.894531 L 778.542969 316.894531 L 778.542969 315.984375 C 778.542969 313.777344 777.882812 312.121094 776.566406 310.992188 C 775.25 309.867188 773.40625 309.304688 771.027344 309.304688 C 769.386719 309.304688 767.773438 309.578125 766.199219 310.117188 C 764.617188 310.65625 763.226562 311.488281 762.015625 312.613281 L 758.839844 309.304688 Z M 773.484375 321.15625 C 770.242188 321.15625 767.675781 321.609375 765.769531 322.519531 C 763.867188 323.429688 762.917969 324.917969 762.917969 326.992188 C 762.917969 328.898438 763.558594 330.246094 764.828125 331.042969 C 766.101562 331.839844 767.6875 332.242188 769.589844 332.242188 C 771.058594 332.242188 772.34375 331.992188 773.445312 331.5 C 774.542969 331.003906 775.46875 330.34375 776.199219 329.523438 C 776.9375 328.699219 777.496094 327.738281 777.882812 326.636719 C 778.273438 325.535156 778.492188 324.359375 778.53125 323.105469 L 778.53125 321.164062 L 773.472656 321.164062 Z M 773.484375 321.15625 " fill-opacity="1" fill-rule="nonzero"/><path fill="#43105f" d="M 804.007812 342.675781 C 803.488281 343.972656 802.960938 345.148438 802.421875 346.207031 C 801.882812 347.269531 801.234375 348.171875 800.476562 348.929688 C 799.71875 349.683594 798.8125 350.265625 797.757812 350.679688 C 796.695312 351.089844 795.414062 351.292969 793.902344 351.292969 C 793.167969 351.292969 792.402344 351.246094 791.605469 351.160156 C 790.808594 351.074219 790.058594 350.859375 789.371094 350.515625 L 790.019531 346.109375 C 790.539062 346.324219 791.078125 346.464844 791.636719 346.53125 C 792.199219 346.597656 792.851562 346.628906 793.582031 346.628906 C 795.222656 346.628906 796.433594 346.175781 797.210938 345.265625 C 797.988281 344.355469 798.660156 343.152344 799.21875 341.636719 L 801.296875 335.929688 L 788.71875 305.40625 L 794.617188 305.40625 L 804.015625 329.191406 L 804.148438 329.191406 L 813.160156 305.40625 L 818.664062 305.40625 L 804.015625 342.671875 Z M 804.007812 342.675781 " fill-opacity="1" fill-rule="nonzero"/><g fill="#43105f" fill-opacity="1"><g transform="translate(506.839658, 335.79413)"><g><path d="M 28.5625 -9.078125 L 9.28125 -9.078125 L 5.28125 0 L -0.046875 0 L 16.375 -36.296875 L 21.515625 -36.296875 L 38 0 L 32.5625 0 Z M 26.75 -13.21875 L 18.921875 -31 L 11.09375 -13.21875 Z M 26.75 -13.21875 "/></g></g></g><g fill="#43105f" fill-opacity="1"><g transform="translate(544.789245, 335.79413)"><g><path d="M 5.4375 -36.296875 L 10.625 -36.296875 L 10.625 0 L 5.4375 0 Z M 5.4375 -36.296875 "/></g></g></g></svg>