<?xml version="1.0" encoding="utf-8"?>
<!-- Generator: Adobe Illustrator 18.1.0, SVG Export Plug-In . SVG Version: 6.00 Build 0)  -->
<svg version="1.1" id="Layer_1" xmlns="http://www.w3.org/2000/svg" xmlns:xlink="http://www.w3.org/1999/xlink" x="0px" y="0px"
	 viewBox="97.5 93 356 67" enable-background="new 97.5 93 356 67" xml:space="preserve">
<g id="ant">
	
		<linearGradient id="SVGID_1_" gradientUnits="userSpaceOnUse" x1="104.3744" y1="541.5061" x2="104.3744" y2="369.4181" gradientTransform="matrix(0.3571 0 0 0.3571 97.0779 -36.6321)">
		<stop  offset="0" style="stop-color:#E14760"/>
		<stop  offset="1" style="stop-color:#FA8816"/>
	</linearGradient>
	<path fill="url(#SVGID_1_)" d="M168.5,116.8l-16.2-20.7c-0.9-1.1-2.7-1.1-3.5,0.1l-6.9,9.8c-2.2-1.2-4.7-1.9-7.4-1.9
		c-2.9,0-5.6,0.7-7.9,2l-6.6-9.6c-0.8-1.2-2.6-1.3-3.5-0.1l-16.3,20.7c-0.7,0.8,0.4,1.9,1.3,1.2l14-12.4c0.4-0.4,1.1-0.3,1.4,0.1
		l1.7,5.4c-8,1.9-13.9,9.1-13.8,17.7c0,9.6,7.4,17.4,16.9,18.1c0.3,3.5,2.3,7.3,8.6,9.5c0.5,0.2,0.9-0.4,0.6-0.8
		c-0.6-0.8-1.3-2-1.5-3.3c1.5,0.5,3.1,0.8,4.8,0.8c1.5,0,3-0.3,4.3-0.7c-0.3,1.2-0.9,2.3-1.5,3.1c-0.3,0.4,0.1,1,0.6,0.8
		c6.4-2.3,8.6-6.1,9-9.5c9.8-0.3,17.7-8.4,17.6-18.2c0-8.6-6.1-15.9-14.2-17.7l1.8-5.6c0.4-0.4,1-0.5,1.4-0.1l14,12.4
		C168.1,118.7,169.2,117.6,168.5,116.8z"/>
	
		<ellipse transform="matrix(0.8521 -0.5233 0.5233 0.8521 -50.9484 81.9271)" fill="#FFFFFF" cx="119.5" cy="131.1" rx="9.6" ry="13"/>
	<g>
		<path fill="#E54D42" d="M115.7,136.9c0,0-0.2-0.6-0.2-1.6c0-1.1,0.2-1.6,0.2-1.6l4.9-2.1l-4.9-2.1c0,0-0.2-0.6-0.2-1.6
			c0-1.1,0.2-1.6,0.2-1.6l8.4,3.6c0,0,0.2,0.6,0.2,1.7c0,1-0.2,1.7-0.2,1.7L115.7,136.9z"/>
	</g>
	
		<ellipse transform="matrix(-0.8521 -0.5233 0.5233 -0.8521 208.4114 321.0699)" fill="#FFFFFF" cx="149.6" cy="131.1" rx="9.7" ry="13.1"/>
	<g>
		<path fill="#E54D42" d="M143.6,133.2c0,0-0.2-0.4-0.2-1.5c0-1.1,0.2-1.5,0.2-1.5h11.2c0,0,0.2,0.4,0.2,1.5c0,1.1-0.2,1.5-0.2,1.5
			H143.6z"/>
	</g>
</g>
<g id="type">
	<path fill="#234A61" d="M202.7,126.8c1.2,0,1.4,0.5,1.3,1.4l-1.1,8.8c-0.5,4.2-3.4,8.4-12.9,8.4c-8.4,0-11.4-3.6-11.4-7.5
		c0-0.3,0.1-0.9,0.1-1.3l2.1-17c0.5-4.2,3.4-8.4,12.9-8.4c8.4,0,11.4,3.6,11.4,7.5c0,0.3-0.1,0.8-0.1,1.3l-0.2,1.3
		c-0.1,1-0.5,1.5-1.6,1.5h-5.1c-1,0-1.4-0.6-1.2-1.5l0.1-0.3c0.1-0.3,0.1-0.6,0.1-0.8c0-1.6-1.4-2.4-3.7-2.4c-2.4,0-4.3,0.9-4.6,3.2
		l-1.8,14.2c-0.1,0.3-0.1,0.8-0.1,1c0,1.8,1.4,2.6,3.7,2.6c2.7,0,4.3-0.9,4.5-3.2l0.3-2.1h-4c-1,0-1.4-0.4-1.3-1.4l0.5-3.8
		c0.1-1,0.6-1.4,1.6-1.4C192.3,126.8,202.7,126.8,202.7,126.8z"/>
	<path fill="#234A61" d="M214.7,143.5c-0.2,1-0.5,1.5-1.6,1.5H208c-1,0-1.4-0.4-1.2-1.5l2.7-21.6c0.1-1,0.5-1.5,1.6-1.5h5.1
		c1,0,1.4,0.4,1.2,1.5L214.7,143.5z M218,116.2c-0.2,1-0.5,1.4-1.6,1.4h-5.1c-1,0-1.4-0.4-1.2-1.4l0.5-4.1c0.2-1,0.6-1.5,1.6-1.5
		h5.1c1,0,1.3,0.4,1.2,1.5L218,116.2z"/>
	<path fill="#234A61" d="M234.1,142.7c-1.5,1.1-3.7,2.7-7.7,2.7c-4.3,0-6.7-2.4-6.7-6.2c0-0.4,0.1-0.8,0.1-1.3l1.3-10.2
		c0.6-4.7,2.8-7.6,8-7.6c3.5,0,6,1.5,7.3,2.5l0.2-0.7c0.3-1,0.5-1.5,1.6-1.5h5c0.8,0,1.4,0.3,1.2,1.5l-2.7,21.6
		c-0.2,1-0.6,1.5-1.6,1.5h-4.7c-0.8,0-1.2-0.4-1.2-1.5v-0.8H234.1z M227.8,136.6c-0.1,0.4-0.1,0.6-0.1,0.7c0,0.8,0.3,1.4,1.7,1.4
		c1.9,0,4-1.3,5.1-2l1-7.9c-0.9-0.8-2.8-2-4.6-2s-2,1.1-2.2,2.1L227.8,136.6z"/>
	<path fill="#234A61" d="M255.5,120.4c1,0,1.3,0.4,1.3,1.4v0.8c1.5-1.1,3.9-2.7,7.7-2.7c3.9,0,6.7,2.4,6.7,6c0,0.2,0,0.3-0.1,1.3
		l-2,16.2c-0.2,1-0.6,1.5-1.6,1.5h-5c-0.8,0-1.4-0.3-1.3-1.5l1.7-14.3c0.1-0.9,0.1-1,0.1-1.1c0-1-0.4-1.4-1.7-1.4
		c-1.9,0-4.1,1.2-5.1,2l-1.8,14.8c-0.2,1-0.5,1.5-1.6,1.5h-5.1c-0.9,0-1.4-0.3-1.2-1.5l2.7-21.7c0.1-1,0.5-1.4,1.6-1.4L255.5,120.4
		L255.5,120.4z"/>
	<path fill="#234A61" d="M284.2,136.1c-0.1,0.4-0.1,0.6-0.1,0.8c0,1.2,0.8,1.7,2.9,1.7h1.2c1.1,0,1.4,0.6,1.3,1.5l-0.4,3.5
		c-0.2,1-0.6,1.4-1.6,1.4H285c-6.4,0-8.9-2-8.9-6.1c0-0.5,0.1-1,0.1-1.6l1.3-10.7h-2.1c-1.1,0-1.3-0.5-1.2-1.4l0.3-3
		c0.1-1,0.6-1.3,1.6-1.4l2.2-0.3h0.1l0.5-4.5c0.1-1,0.6-1.5,1.6-1.5h5.1c1,0,1.3,0.5,1.2,1.5l-0.5,4.5h4c1.1,0,1.4,0.5,1.3,1.4
		l-0.4,3.4c-0.1,1-0.6,1.4-1.7,1.4h-4L284.2,136.1z"/>
	<path fill="#234A61" d="M319.4,120.6v-0.3c0-2-1.4-2.8-3.5-2.8c-2.3,0-3.9,0.8-4.2,3.1l-0.1,0.5v0.3c0,1.3,0.8,1.6,1.3,1.8l7.9,2.8
		c3.2,1.1,5.3,3.6,5.3,6.6c0,0.3-0.1,0.7-0.1,1.2l-0.3,3c-0.5,4.2-3.6,8.4-13,8.4c-8.4,0-11.6-3.6-11.6-7.6c0-0.3,0-0.5,0.1-1.2
		l0.3-2.9c0.1-1,0.6-1.5,1.6-1.5h5.1c1,0,1.3,0.5,1.2,1.5l-0.3,1.8c-0.1,0.3-0.1,0.6-0.1,0.9c0,1.9,1.7,2.6,4.1,2.6
		c2.4,0,4.3-0.8,4.6-3.1l0.1-0.6c0.1-0.3,0.1-0.5,0.1-0.6c0-1.6-2.3-2.4-3.8-3l-6.7-2.7c-2-0.7-3.8-2.9-3.8-5.7
		c0-0.3,0.1-0.7,0.1-1.2l0.3-2.4c0.5-4.2,3.2-8.4,12.4-8.4c8.3,0,11.2,3.6,11.2,7.4c0,0.2,0,0.4-0.1,1l-0.2,1.8
		c-0.1,1-0.6,1.5-1.6,1.5h-5.1c-0.9,0-1.3-0.3-1.2-1.5V120.6z"/>
	<path fill="#234A61" d="M364,120.4c1,0,1.7,0.4,1.3,1.5l-8.9,21.8c-0.4,1-0.6,1.3-1.6,1.3h-6.1c-1,0-1.2-0.4-1.3-1.3l-0.8-9.4
		c-0.1-1-0.2-2.7-0.2-2.7c-0.1,0.1-0.5,1.6-0.9,2.7l-4,9.4c-0.4,0.9-0.6,1.3-1.6,1.3H334c-1,0-1.2-0.4-1.3-1.3l-3.2-21.8
		c-0.2-1,0.5-1.5,1.6-1.5h4.7c1,0,1.4,0.6,1.5,1.5l1.5,10.9c0.2,1.2,0.1,2.5,0.1,2.5c0-0.1,0.5-1.6,0.9-2.5l4.4-10.9
		c0.3-0.9,0.8-1.5,1.8-1.5h4.8c1,0,1.4,0.6,1.5,1.5l1,10.9c0.1,1.1,0.2,2.4,0.2,2.5c0-0.1,0.4-1.6,0.8-2.5l4.1-10.9
		c0.3-0.9,0.8-1.5,1.8-1.5C359.9,120.4,364,120.4,364,120.4z"/>
	<path fill="#234A61" d="M380,142.7c-1.5,1.1-3.7,2.7-7.7,2.7c-4.3,0-6.7-2.4-6.7-6.2c0-0.4,0.1-0.8,0.1-1.3l1.3-10.2
		c0.6-4.7,2.8-7.6,8-7.6c3.5,0,6,1.5,7.3,2.5l0.2-0.7c0.3-1,0.5-1.5,1.6-1.5h5c0.7,0,1.4,0.3,1.2,1.5l-2.7,21.6
		c-0.2,1-0.6,1.5-1.6,1.5h-4.7c-0.8,0-1.2-0.4-1.2-1.5L380,142.7L380,142.7z M373.7,136.6c-0.1,0.4-0.1,0.6-0.1,0.7
		c0,0.8,0.3,1.4,1.7,1.4c1.9,0,4-1.3,5.1-2l1-7.9c-0.9-0.8-2.8-2-4.6-2c-1.8,0-2,1.1-2.2,2.1L373.7,136.6z"/>
	<path fill="#234A61" d="M411.2,121.4l-0.5,3.8c-0.2,1-0.6,1.3-1.7,1.5c-3.4,0.4-5.8,1.8-6.9,2.7l-1.7,14.1c-0.2,1-0.5,1.5-1.6,1.5
		h-5.1c-1,0-1.4-0.4-1.2-1.5l2.7-21.7c0.2-1,0.5-1.4,1.6-1.4h4.7c1,0,1.3,0.4,1.3,1.4l-0.1,1.4c1.4-1.4,3.5-3.2,7.2-3.2
		C410.9,120,411.3,120.4,411.2,121.4z"/>
	<path fill="#234A61" d="M420.3,120.4c1,0,1.2,0.4,1.2,1.4v0.8c1.4-1.1,3.4-2.7,7.4-2.7c2.8,0,5.3,1.3,6.2,3.2
		c1.3-1,3.4-3.2,8.2-3.2c3.8,0,6.7,2.4,6.7,5.8c0,0.3,0,0.5-0.1,1l-2,16.7c-0.2,1-0.6,1.5-1.6,1.5h-5c-0.8,0-1.4-0.5-1.3-1.5
		l1.7-14.3c0.1-0.9,0.1-1,0.1-1.1c0-1-0.5-1.4-1.7-1.4c-1.9,0-3.9,1.2-4.9,2v0.1l-1.8,14.7c-0.2,1-0.6,1.5-1.6,1.5h-5
		c-0.8,0-1.4-0.5-1.3-1.5l1.8-14.7c0.1-0.5,0.1-0.6,0.1-0.8c0-1-0.5-1.4-1.7-1.4c-1.9,0-3.8,1.2-4.8,2l-1.8,14.8
		c-0.2,1-0.5,1.5-1.6,1.5h-5.1c-0.9,0-1.3-0.5-1.2-1.5l2.7-21.7c0.2-1,0.5-1.4,1.6-1.4L420.3,120.4L420.3,120.4z"/>
</g>
</svg>
