<svg width="81" height="78" viewBox="0 0 81 78" fill="none" xmlns="http://www.w3.org/2000/svg">
<g clip-path="url(#clip0_16_2319)">
<path d="M27.7479 24.9866C23.0346 28.8147 25.8982 31.2324 30.8427 31.4735C34.7005 31.6849 38.5748 31.1531 42.36 30.4166C44.8834 29.8947 47.4101 29.2969 49.7651 28.3886C55.3305 26.1921 67.4093 19.8274 64.3475 12.4982C63.4128 10.3645 61.5301 8.79236 59.3271 8.01948C57.6062 7.32586 55.75 6.88988 53.9136 6.63886C41.9603 5.07327 27.2954 8.55455 16.2834 13.2744C11.5041 15.3222 6.83377 17.697 2.4541 20.5144C4.50191 18.8861 6.67853 17.4163 8.91131 16.0423C20.6994 8.81218 34.3141 4.34002 48.2127 3.99652C51.552 4.01634 55.0068 4.25415 58.2272 5.19878C58.8349 5.31769 59.6012 5.64798 60.1858 5.85606C60.8266 6.08397 61.5037 6.37793 62.1246 6.75116C65.9857 8.90466 68.4266 13.9152 66.4316 18.1958C63.7992 24.0584 56.1497 28.0153 50.3927 30.1094C47.856 30.9781 45.2599 31.523 42.6275 31.9293C38.7069 32.4974 34.7104 32.8607 30.7535 32.3785C25.5943 31.8632 22.2782 28.6627 27.7479 24.9899V24.9866Z" fill="url(#paint0_linear_16_2319)"/>
<path d="M53.4049 21.7431C58.7292 16.0885 48.325 15.9102 44.8041 15.9498C41.838 15.996 38.9315 16.5575 36.0447 17.2346C28.6726 19.1371 20.6729 22.0007 15.2429 27.4869C14.7673 27.9691 14.3082 28.5339 13.892 29.0624C12.8648 30.6742 11.9631 32.6593 12.3595 34.5551C12.987 37.2008 15.5468 38.6078 18.0768 39.526C27.1004 42.4623 38.2742 40.682 47.529 39.09C43.6877 40.3385 39.744 41.2468 35.7574 41.9074C31.741 42.5416 27.6355 42.9214 23.563 42.611C17.4889 42.2509 8.28369 39.3444 10.2588 31.5297C10.8302 29.353 11.9995 27.4539 13.5485 25.8718C18.7176 20.6796 25.7165 17.9481 32.6658 16.1182C37.6235 14.8995 42.7827 14.1497 47.8791 14.8697C51.7666 15.2958 58.6631 17.2379 53.4082 21.7464L53.4049 21.7431Z" fill="black"/>
<path d="M28.6561 36.8242C42.2443 36.8242 69.8072 28.9996 76.7565 16.6269C78.9365 12.8913 79.2767 7.79158 75.6005 4.90483C72.8657 2.47058 69.4637 1.20226 65.8272 0.333588C70.3786 0.667182 76.6707 3.08162 79.1115 7.21026C81.7373 12.201 79.062 18.0967 75.5543 21.8917C69.7246 28.1805 61.5235 31.6353 53.4809 34.0927C45.4779 36.4312 36.9795 37.9637 28.6528 36.8209L28.6561 36.8242Z" fill="black"/>
<path d="M42.8389 11.3918C35.1332 12.485 27.6389 14.949 20.607 18.2354C15.9697 20.3658 11.6363 23.2294 8.08563 26.889C5.07007 30.0665 1.36089 35.0671 3.8645 39.4071C6.36481 43.2913 12.4224 44.6488 16.7855 45.4019C31.8964 47.7206 48.0476 43.8396 62.3295 38.915C64.7868 38.0463 67.2277 37.138 69.6289 36.1174C65.0213 38.5946 60.1859 40.6259 55.2678 42.4128C42.9083 46.7495 29.5546 49.6263 16.4288 47.6644C11.2763 46.8189 4.88841 45.3193 1.90587 40.583C-1.26493 35.2487 2.84721 29.135 6.63235 25.449C10.4406 21.6836 15.0647 18.863 19.986 16.8416C27.2492 13.8458 34.978 11.7584 42.8422 11.3951L42.8389 11.3918Z" fill="url(#paint1_linear_16_2319)"/>
<path d="M51.3539 21.4954C51.8229 18.9125 47.3507 17.6607 41.3658 18.7011C35.381 19.7416 30.1524 22.6779 29.6834 25.2574C29.2144 27.8403 33.6866 29.0921 39.6714 28.0517C45.6563 27.0113 50.8849 24.075 51.3539 21.4954Z" fill="black"/>
<path d="M35.7145 28.7453C33.0887 28.7453 31.0012 28.2069 29.9938 27.1929C29.4422 26.6347 29.2209 25.9477 29.3564 25.2013C29.8551 22.4532 35.1034 19.4542 41.3063 18.3774C45.7388 17.6079 49.557 18.0736 51.0367 19.5632C51.5883 20.1214 51.8096 20.8084 51.6742 21.5549C51.1754 24.3029 45.9271 27.3019 39.7242 28.3787C38.3073 28.6264 36.9498 28.7453 35.7145 28.7453ZM45.326 18.6747C44.1237 18.6747 42.7992 18.7903 41.4219 19.0314C35.6715 20.0289 30.4463 22.9123 30.007 25.3235C29.9113 25.8552 30.0632 26.3276 30.4661 26.7305C31.7774 28.0517 35.4536 28.4546 39.6152 27.7313C45.3656 26.7338 50.5908 23.8504 51.0301 21.4392C51.1259 20.9075 50.974 20.4352 50.571 20.0322C49.6924 19.147 47.7569 18.6747 45.3293 18.6747H45.326Z" fill="url(#paint2_linear_16_2319)"/>
<path d="M7.41175 67.7891H4.76941L2.23277 70.3885V64.0205L0 65.0642V76.9184H2.23277V72.8987L3.13447 72.0036L5.69753 76.9184H8.12848L4.76941 70.4149L7.41175 67.7891Z" fill="black"/>
<path d="M18.9124 66.2764C18.4863 65.6488 17.9281 65.1468 17.2345 64.7669C16.5409 64.3871 15.6954 64.1988 14.6946 64.1988C13.6938 64.1988 12.845 64.3871 12.148 64.7669C11.4511 65.1468 10.8896 65.6488 10.4635 66.2764C10.0375 66.9039 9.727 67.6008 9.52882 68.3605C9.33395 69.1235 9.23486 69.8898 9.23486 70.6659C9.23486 71.4421 9.33395 72.2084 9.52882 72.9714C9.7237 73.7343 10.0375 74.428 10.4635 75.0555C10.8896 75.6831 11.4511 76.1884 12.148 76.5649C12.845 76.9415 13.6938 77.1331 14.6946 77.1331C15.6954 77.1331 16.5409 76.9448 17.2345 76.5649C17.9281 76.1851 18.4863 75.6831 18.9124 75.0555C19.3385 74.428 19.649 73.731 19.8405 72.9714C20.0354 72.2084 20.1312 71.4421 20.1312 70.6659C20.1312 69.8898 20.0354 69.1235 19.8405 68.3605C19.6457 67.5975 19.3385 66.9039 18.9124 66.2764ZM11.7946 69.2127C11.897 68.7172 12.0688 68.2548 12.3033 67.8287C12.5378 67.4027 12.8516 67.0592 13.2413 66.7982C13.631 66.5373 14.1166 66.4052 14.6913 66.4052C15.266 66.4052 15.7449 66.5307 16.1347 66.785C16.2503 66.861 16.3593 66.9469 16.4616 67.036L11.9961 72.8624C11.9135 72.6378 11.8442 72.4033 11.7946 72.1589C11.6889 71.6601 11.6394 71.1614 11.6394 70.6659C11.6394 70.1705 11.6922 69.7114 11.7946 69.216V69.2127ZM17.578 72.1093C17.4723 72.6081 17.2973 73.0672 17.0595 73.4899C16.8217 73.9127 16.5079 74.2562 16.1181 74.5171C15.7284 74.7781 15.2528 74.9102 14.6946 74.9102C14.1364 74.9102 13.6509 74.7847 13.2611 74.5337C13.1158 74.4412 12.9837 74.3322 12.8615 74.2166L17.3468 68.3638C17.4459 68.6181 17.5252 68.8824 17.5846 69.1631C17.6903 69.6652 17.7399 70.1672 17.7399 70.6692C17.7399 71.135 17.687 71.6139 17.578 72.1126V72.1093Z" fill="black"/>
<path d="M32.1209 69.7114C32.3026 69.2292 32.3951 68.7535 32.3951 68.2812C32.3951 67.6041 32.2663 66.97 32.0053 66.3787C31.7444 65.7875 31.315 65.3152 30.7106 64.9552C30.1062 64.5952 29.2837 64.4135 28.24 64.4135H22.5491V76.9184H24.8611V72.1853H27.3978L29.766 76.9184H32.3653L29.9014 71.8715C30.4596 71.6865 30.9253 71.4025 31.2952 71.0127C31.6651 70.6263 31.9393 70.1903 32.1209 69.7081V69.7114ZM29.8485 69.1202C29.7428 69.3811 29.5612 69.5958 29.3068 69.7576C29.0525 69.9228 28.709 70.0021 28.2763 70.0021H24.8644V66.5901H28.2763C28.7288 66.5901 29.0789 66.676 29.33 66.8478C29.581 67.0195 29.756 67.2375 29.8584 67.4984C29.9608 67.7594 30.0104 68.0236 30.0104 68.2845C30.0104 68.5752 29.9575 68.8526 29.8485 69.1136V69.1202Z" fill="black"/>
<path d="M43.7042 66.3754C43.2319 65.7776 42.6142 65.302 41.8513 64.9453C41.0883 64.5919 40.1668 64.4135 39.0834 64.4135H34.8689V76.9184H39.0141C40.1569 76.9184 41.118 76.7301 41.8942 76.3503C42.6704 75.9737 43.2913 75.475 43.757 74.8573C44.2228 74.2397 44.5564 73.5659 44.7611 72.836C44.9659 72.1027 45.0683 71.3794 45.0683 70.6659C45.0683 69.8864 44.9593 69.1268 44.7413 68.3836C44.5233 67.6438 44.1798 66.9733 43.7042 66.3754ZM42.492 72.0895C42.3698 72.5684 42.175 73.0077 41.9107 73.4041C41.6465 73.8004 41.2964 74.1175 40.8604 74.3586C40.4244 74.5997 39.8893 74.7219 39.2519 74.7219H37.1809V66.5934H39.45C40.0148 66.5934 40.5004 66.709 40.9066 66.9402C41.3129 67.1714 41.6465 67.4852 41.9074 67.8783C42.1683 68.2713 42.3632 68.7106 42.4887 69.1928C42.6142 69.6751 42.677 70.1672 42.677 70.6659C42.677 71.135 42.6142 71.6106 42.4953 72.0895H42.492Z" fill="black"/>
<path d="M49.8013 71.5577H53.4345V69.3613H49.8013V66.61H55.9381V64.4135H47.4893V76.9184H56.3114V74.7021H49.8013V71.5577Z" fill="black"/>
<path d="M66.1279 71.7724C66.1279 71.8847 66.1312 72.0366 66.1411 72.2249C66.151 72.4132 66.1642 72.5717 66.1807 72.7038C66.1081 72.5552 66.0222 72.3901 65.9165 72.2084C65.8108 72.0267 65.7282 71.8814 65.6622 71.7757L60.7309 64.4168H58.5708V76.9217H60.8663V69.5099C60.8663 69.3844 60.8663 69.2358 60.8564 69.064C60.8498 68.8923 60.8399 68.7304 60.8201 68.5818C60.8928 68.7304 60.9786 68.8989 61.0843 69.0805C61.19 69.2622 61.2726 69.4075 61.3386 69.5099L66.3657 76.9217H68.43V64.4168H66.1246V71.7757L66.1279 71.7724Z" fill="black"/>
<path d="M70.5471 64.4135V66.6364H74.0945V76.9184H76.4065V66.6364H79.9703V64.4135H70.5471Z" fill="black"/>
</g>
<defs>
<linearGradient id="paint0_linear_16_2319" x1="2.4541" y1="18.2982" x2="67.1418" y2="18.2982" gradientUnits="userSpaceOnUse">
<stop stop-color="#1DA7FD"/>
<stop offset="1" stop-color="#08F5DA"/>
</linearGradient>
<linearGradient id="paint1_linear_16_2319" x1="0.76967" y1="29.8419" x2="69.6256" y2="29.8419" gradientUnits="userSpaceOnUse">
<stop stop-color="#1DA7FD"/>
<stop offset="1" stop-color="#08F5DA"/>
</linearGradient>
<linearGradient id="paint2_linear_16_2319" x1="29.32" y1="23.3781" x2="51.7171" y2="23.3781" gradientUnits="userSpaceOnUse">
<stop stop-color="#1DA7FD"/>
<stop offset="1" stop-color="#08F5DA"/>
</linearGradient>
<clipPath id="clip0_16_2319">
<rect width="80.1717" height="76.8028" fill="white" transform="translate(0 0.330292)"/>
</clipPath>
</defs>
</svg>
