<?xml version="1.0" encoding="UTF-8"?>
<svg width="256" height="256" version="1.1" xmlns="http://www.w3.org/2000/svg">
 <path d="m128 11.457a4.4657 4.4657 0 0 0-1.9336 0.43945l-91.986 44.205a4.4657 4.4657 0 0 0-2.4199 3.0332l-22.771 100.02a4.4657 4.4657 0 0 0 0.85547 3.7656l63.406 79.93a4.4657 4.4657 0 0 0 3.498 1.6895h102.7a4.4657 4.4657 0 0 0 3.498-1.6895l63.406-79.93a4.4657 4.4657 0 0 0 0.85547-3.7656l-22.773-100.02a4.4657 4.4657 0 0 0-2.418-3.0332l-91.984-44.205a4.4657 4.4657 0 0 0-1.9336-0.43945z" color="#000000" fill="#326ce5" stroke-linejoin="round" style="-inkscape-stroke:none"/>
 <path class="cls-2" d="m143.8 52.865c-11.942 0.51197-23.322 6.4364-31.242 15.282-1.9497 2.1311-3.6052 4.5049-5.2643 6.8608-0.64921 0.801-1.7928 1.3254-2.7632 0.77062-2.3123-0.88779-4.3474-2.4128-6.7642-3.0441-5.9959-1.9483-12.644-1.0843-18.279 1.5919-5.8441 2.6643-10.742 7.3914-13.459 13.227-1.0538 2.0967-1.7501 4.3493-2.7714 6.4542-1.1412 1.8709-3.2363 2.8555-5.3086 3.3003-3.4411 0.94998-6.5858 2.7632-9.306 5.0557-3.815 3.1857-7.0138 7.1238-9.3576 11.504-3.245 6.2141-4.3084 13.462-3.2995 20.378 0.96363 7.7481 4.1025 15.437 9.8131 20.899 5.1328 5.0415 12.069 7.9664 19.149 8.8782 4.4899 0.6423 9.0357 0.40896 13.547 0.17895 19.888-0.74343 39.788 0.14951 59.681-0.0287 18.175-0.0116 36.351 0.0219 54.525-0.01 8.2204-0.40064 15.942-4.9409 20.81-11.499 6.8368-8.9645 8.8171-21.477 4.7924-32.046-2.195-6.3377-6.1179-12.343-11.944-15.872-3.4497-2.1751-7.3908-3.4396-11.37-4.2065-1.499-0.69066-1.6585-2.5443-1.973-3.9653-2.2188-11.007-6.9748-21.667-14.598-30.001-8.7935-9.3673-21.862-14.229-34.618-13.709zm2.123 9.3398c10.425 0.14449 20.526 5.5067 26.844 13.772 5.7234 7.2096 9.062 16.156 9.7059 25.305 0.18111 1.9866 0.0834 4.0499 0.34478 6.0468 0.28157 1.3348 1.5071 2.4159 2.899 2.3706 2.5281 0.23046 5.0881-0.19326 7.5988 0.30488 4.1246 0.60513 8.0192 2.7385 10.629 6.0076 4.7076 5.5654 6.2812 13.285 5.1877 20.389-0.87308 5.8143-3.7568 11.489-8.5614 15.011-2.6816 2.0002-6.0706 3.2627-9.4773 3.1712-35.006 0.0335-70.014 0.0532-105.02 0.0478-5.1856-0.0236-10.374 0.0413-15.558-0.0374-0.8128-0.0656-1.6754-0.0516-2.3722-0.43166 4.5272-3.9177 9.1298-7.7631 13.673-11.668 5.9622-5.089 11.913-10.192 17.87-15.287 6.4121 5.4082 12.824 10.816 19.236 16.225 12.474-10.645 24.949-21.289 37.424-31.934 3.7916 3.2858 7.5835 6.5714 11.375 9.8574-0.6148-8.7905-1.2343-17.581-1.8516-26.371-10.258-0.63356-20.516-1.2682-30.773-1.9004 3.5707 3.0953 7.142 6.1901 10.713 9.2852-8.7747 7.4863-17.549 14.973-26.324 22.459-6.0462-5.0996-12.092-10.199-18.139-15.299-15.131 12.9-30.221 25.847-45.409 38.674-0.755 0.6081-2.0275 0.75574-2.6339-0.1404-3.3895-3.2467-5.3419-7.6966-6.2279-12.22-1.3656-7.2661 0.06881-15.084 4.1132-21.256 2.6883-4.0756 6.6904-7.5615 11.38-8.8911 2.3041-0.62015 4.7624-0.41453 7.1156-0.22303 1.353 0.0866 3.0121-0.43355 3.388-1.8994 0.48869-1.6382 0.25846-3.3831 0.60507-5.0507 0.61888-4.6164 2.4164-9.3141 6.004-12.459 3.4549-3.1478 8.1872-5.1455 12.907-4.6652 2.7622 0.33297 5.6038 1.6034 7.7772 3.4795 3.0988 2.6617 5.2071 6.2316 7.9435 9.2177 1.1574 1.1994 1.381 0.86868 1.9668-1.4141 1.8791-7.118 5.6876-13.682 10.956-18.842 4.4995-4.5065 9.8739-8.2852 15.938-10.338 2.852-0.88461 5.7747-1.3063 8.752-1.2969z" fill="#f9fafd" stroke-width=".57297"/>
 <path d="m75.119 198.06-3.2227 3.418v8.8672h-4.9414v-28.438h4.9414v13.34l2.7344-3.3789 8.3203-9.9609h5.9766l-10.566 12.598 11.172 15.84h-5.8594zm31.914 4.9609q0-1.875-1.3281-2.8906-1.3086-1.0156-4.7461-2.0508-3.4375-1.0352-5.4687-2.3047-3.8867-2.4414-3.8867-6.3672 0-3.4375 2.793-5.6641 2.8125-2.2266 7.2852-2.2266 2.9688 0 5.293 1.0938t3.6523 3.125q1.3281 2.0117 1.3281 4.4726h-4.9219q0-2.2266-1.4062-3.4766-1.3867-1.2695-3.9844-1.2695-2.4219 0-3.7695 1.0352-1.3281 1.0352-1.3281 2.8906 0 1.5625 1.4453 2.6172 1.4453 1.0352 4.7656 2.0312 3.3203 0.97656 5.332 2.2461 2.0117 1.25 2.9492 2.8906 0.9375 1.6211 0.9375 3.8086 0 3.5547-2.7344 5.6641-2.7148 2.0898-7.3828 2.0898-3.0859 0-5.6836-1.1328-2.5781-1.1523-4.0234-3.1641-1.4258-2.0117-1.4258-4.6875h4.9414q0 2.4219 1.6016 3.75 1.6016 1.3281 4.5898 1.3281 2.5781 0 3.8672-1.0352 1.3086-1.0547 1.3086-2.7734zm18.125 7.7148q-4.5117 0-7.3242-2.832-2.793-2.8516-2.793-7.5781v-0.58594q0-3.1641 1.2109-5.6445 1.2305-2.5 3.4375-3.8867t4.9219-1.3867q4.3164 0 6.6602 2.7539 2.3633 2.7539 2.3633 7.793v1.9141h-13.809q0.21485 2.6172 1.7383 4.1406 1.543 1.5234 3.8672 1.5234 3.2617 0 5.3125-2.6367l2.5586 2.4414q-1.2695 1.8945-3.3984 2.9492-2.1094 1.0352-4.7461 1.0352zm-0.5664-18.105q-1.9531 0-3.1641 1.3672-1.1914 1.3672-1.5234 3.8086h9.043v-0.35156q-0.15625-2.3828-1.2695-3.5938-1.1133-1.2305-3.0859-1.2305zm23.789 0.91797q-0.9375-0.15625-1.9336-0.15625-3.2617 0-4.3945 2.5v14.453h-4.7461v-21.133h4.5312l0.11719 2.3633q1.7188-2.7539 4.7656-2.7539 1.0156 0 1.6797 0.27344zm10.801 10.781 4.4727-15.117h4.9023l-7.3242 21.133h-4.1211l-7.3828-21.133h4.9219zm21.387 6.4062q-4.5117 0-7.3242-2.832-2.793-2.8516-2.793-7.5781v-0.58594q0-3.1641 1.2109-5.6445 1.2305-2.5 3.4375-3.8867t4.9219-1.3867q4.3164 0 6.6602 2.7539 2.3633 2.7539 2.3633 7.793v1.9141h-13.809q0.21484 2.6172 1.7383 4.1406 1.543 1.5234 3.8672 1.5234 3.2617 0 5.3125-2.6367l2.5586 2.4414q-1.2695 1.8945-3.3984 2.9492-2.1094 1.0352-4.7461 1.0352zm-0.56641-18.105q-1.9531 0-3.1641 1.3672-1.1914 1.3672-1.5234 3.8086h9.043v-0.35156q-0.15625-2.3828-1.2695-3.5938-1.1133-1.2305-3.0859-1.2305z" fill="#fff" stroke-opacity="0" style="paint-order:stroke fill markers" aria-label="KServe"/>
</svg>
