<svg width="400" height="200" viewBox="0 0 1024 150" version="1.1" xmlns="http://www.w3.org/2000/svg" xmlns:xlink="http://www.w3.org/1999/xlink" xml:space="preserve" xmlns:serif="http://www.serif.com/" style="fill-rule:evenodd;clip-rule:evenodd;stroke-linejoin:round;stroke-miterlimit:2;">
    <path d="M278.63,76.64L316,28.52L353.84,28.52L307.08,83.76L358.21,145.2L318.5,145.2L278.63,94.59L278.63,145.2L248,145.2L248,28.52L278.65,28.52L278.63,76.64Z" style="fill-rule:nonzero;"></path>
    <path d="M392.61,65.81L392.61,110.53C392.61,120.33 397.403,125.23 406.99,125.23C416.577,125.23 421.37,120.33 421.37,110.53L421.37,65.81L449.67,65.81L449.67,116C449.67,126.733 446.1,134.78 438.96,140.14C431.82,145.5 421.153,148.167 406.96,148.14C392.78,148.14 382.113,145.473 374.96,140.14C367.807,134.807 364.257,126.76 364.31,116L364.31,65.81L392.61,65.81Z" style="fill-rule:nonzero;"></path>
    <path d="M530.82,65.81L559.27,65.81L559.27,145.2L530.82,145.2L530.82,136.37C524.767,143.91 516.583,147.677 506.27,147.67C500.743,147.73 495.262,146.651 490.17,144.5C485.336,142.436 480.973,139.408 477.35,135.6C473.654,131.714 470.756,127.141 468.82,122.14C466.765,116.756 465.747,111.032 465.82,105.27C465.802,99.74 466.82,94.256 468.82,89.1C470.672,84.158 473.448,79.614 477,75.71C484.47,67.662 495.021,63.158 506,63.33C516,63.33 524.287,66.787 530.86,73.7L530.82,65.81ZM495.17,105.27C495.135,110.123 497.02,114.798 500.41,118.27C502.052,119.941 504.02,121.258 506.19,122.14C508.497,123.081 510.969,123.553 513.46,123.53C515.902,123.544 518.322,123.071 520.58,122.14C522.75,121.258 524.718,119.941 526.36,118.27C527.989,116.604 529.313,114.664 530.27,112.54C531.272,110.344 531.781,107.954 531.76,105.54C531.764,103.128 531.256,100.742 530.27,98.54C529.326,96.387 528.001,94.423 526.36,92.74C524.718,91.069 522.75,89.752 520.58,88.87C518.323,87.936 515.903,87.46 513.46,87.47C510.968,87.45 508.497,87.926 506.19,88.87C504.02,89.752 502.052,91.069 500.41,92.74C498.804,94.374 497.506,96.284 496.58,98.38C495.629,100.551 495.148,102.9 495.17,105.27Z" style="fill-rule:nonzero;"></path>
    <path d="M640.42,16.75L668.88,16.75L668.88,145.2L640.42,145.2L640.42,136.37C634.373,143.91 626.19,147.677 615.87,147.67C610.334,147.733 604.848,146.625 599.77,144.42C594.942,142.301 590.584,139.241 586.95,135.42C583.262,131.545 580.367,126.986 578.43,122C574.421,111.42 574.364,99.739 578.27,89.12C580.104,84.163 582.894,79.613 586.48,75.73C590.076,71.901 594.41,68.84 599.22,66.73C604.367,64.47 609.939,63.334 615.56,63.4C625.56,63.4 633.847,66.857 640.42,73.77L640.42,16.75ZM604.77,105.27C604.735,110.123 606.62,114.798 610.01,118.27C611.652,119.941 613.62,121.258 615.79,122.14C618.1,123.082 620.575,123.554 623.07,123.53C625.509,123.544 627.926,123.071 630.18,122.14C632.35,121.258 634.318,119.941 635.96,118.27C637.589,116.604 638.913,114.664 639.87,112.54C640.872,110.344 641.381,107.954 641.36,105.54C641.364,103.128 640.856,100.742 639.87,98.54C638.926,96.387 637.601,94.423 635.96,92.74C634.318,91.069 632.35,89.752 630.18,88.87C625.622,87.004 620.508,87.004 615.95,88.87C613.78,89.752 611.812,91.069 610.17,92.74C608.556,94.384 607.233,96.292 606.26,98.38C605.259,100.538 604.75,102.891 604.77,105.27Z" style="fill-rule:nonzero;"></path>
    <path d="M688.1,65.81L716.4,65.81L716.4,78.81C719.155,74.323 722.966,70.577 727.5,67.9C732.181,65.295 737.474,63.986 742.83,64.11L745.25,64.11C746.257,64.125 747.261,64.229 748.25,64.42L748.25,91.19C744.457,89.321 740.278,88.365 736.05,88.4C729.49,88.4 724.567,90.333 721.28,94.2C717.993,98.067 716.35,103.733 716.35,111.2L716.35,145.2L688.1,145.2L688.1,65.81Z" style="fill-rule:nonzero;"></path>
    <path d="M823.82,65.81L852.27,65.81L852.27,145.2L823.82,145.2L823.82,136.37C817.767,143.91 809.583,147.677 799.27,147.67C793.74,147.73 788.256,146.651 783.16,144.5C778.327,142.434 773.965,139.406 770.34,135.6C766.644,131.716 763.749,127.142 761.82,122.14C759.748,116.76 758.713,111.035 758.77,105.27C758.752,99.74 759.77,94.256 761.77,89.1C763.634,84.152 766.427,79.607 770,75.71C777.467,67.658 788.02,63.153 799,63.33C809,63.33 817.287,66.787 823.86,73.7L823.82,65.81ZM788.17,105.27C788.126,110.123 790.008,114.8 793.4,118.27C795.048,119.939 797.018,121.255 799.19,122.14C801.497,123.082 803.968,123.554 806.46,123.53C808.899,123.544 811.316,123.071 813.57,122.14C815.742,121.255 817.712,119.939 819.36,118.27C820.986,116.601 822.309,114.662 823.27,112.54C824.269,110.343 824.775,107.953 824.75,105.54C824.757,103.128 824.252,100.743 823.27,98.54C822.322,96.389 820.998,94.425 819.36,92.74C817.712,91.071 815.742,89.755 813.57,88.87C811.317,87.936 808.899,87.46 806.46,87.47C803.968,87.449 801.496,87.925 799.19,88.87C797.018,89.755 795.048,91.071 793.4,92.74C791.797,94.377 790.5,96.287 789.57,98.38C788.627,100.553 788.15,102.901 788.17,105.27Z" style="fill-rule:nonzero;"></path>
    <path d="M871.5,65.81L899.8,65.81L899.8,75.87C903.653,71.203 907.56,68.083 911.52,66.51C915.963,64.824 920.689,64.009 925.44,64.11C930.397,63.979 935.327,64.902 939.9,66.82C943.847,68.569 947.348,71.188 950.14,74.48C952.386,77.071 953.993,80.154 954.83,83.48C955.712,87.18 956.132,90.976 956.08,94.78L956.08,145.2L927.79,145.2L927.79,105.12C927.859,101.925 927.57,98.731 926.93,95.6C926.494,93.424 925.454,91.413 923.93,89.8C922.747,88.603 921.297,87.702 919.7,87.17C918.086,86.642 916.398,86.378 914.7,86.39C909.913,86.39 906.247,87.81 903.7,90.65C901.153,93.49 899.877,97.537 899.87,102.79L899.87,145.2L871.5,145.2L871.5,65.81Z" style="fill-rule:nonzero;"></path>
    <path d="M1006.9,89.18L1006.9,145.18L978.6,145.18L978.6,89.18L969.22,89.18L969.22,65.81L978.6,65.81L978.6,42L1006.9,42L1006.9,65.81L1023,65.81L1023,89.18L1006.9,89.18Z" style="fill-rule:nonzero;"></path>
    <path id="Segment-1" d="M118,1C144.665,27.253 155.154,65.966 145.39,102.09C140.56,119.869 131.109,136.056 118,149L43.18,75L118,1Z" style="fill:rgb(68,180,228);"></path>
    <rect id="Rectangle" x="1" y="1" width="31.57" height="148"></rect>
</svg>