<svg width="426" height="188" viewBox="0 0 426 188" fill="none" xmlns="http://www.w3.org/2000/svg">
  <g clip-path="url(#clip0_12472_15503)">
    <path d="M303.659 1.37109H287.439C285.876 1.37109 284.609 2.63813 284.609 4.2011V121.561C284.609 123.124 285.876 124.391 287.439 124.391H303.659C305.222 124.391 306.489 123.124 306.489 121.561V4.2011C306.489 2.63813 305.222 1.37109 303.659 1.37109Z" fill="#C85018"/>
    <path d="M340.159 32.5508H323.939C322.376 32.5508 321.109 33.8178 321.109 35.3808V121.561C321.109 123.124 322.376 124.391 323.939 124.391H340.159C341.722 124.391 342.989 123.124 342.989 121.561V35.3808C342.989 33.8178 341.722 32.5508 340.159 32.5508Z" fill="#C85018"/>
    <path d="M332.06 0.519531C325.56 0.519531 320.27 5.80953 320.27 12.3095C320.27 18.8095 325.56 24.0995 332.06 24.0995C338.56 24.0995 343.85 18.8095 343.85 12.3095C343.85 5.80953 338.56 0.519531 332.06 0.519531Z" fill="#C85018"/>
    <path d="M143.362 86.6992C144.932 86.6992 146.192 85.4292 146.192 83.8692V55.8592C146.192 40.9592 133.422 31.6992 112.862 31.6992C92.3019 31.6992 80.6719 41.5992 80.6719 54.9292V93.9692C80.6719 115.119 94.2519 125.249 119.952 125.249C129.282 125.249 137.422 123.219 141.452 122.009C142.652 121.649 143.472 120.549 143.472 119.299V108.779C143.472 106.809 141.522 105.449 139.672 106.119C134.832 107.869 127.802 109.539 119.522 109.539C107.992 109.539 101.642 104.309 101.642 94.8192V86.7192H143.362V86.6992ZM101.642 58.2492C101.642 50.9392 105.542 47.0692 112.912 47.0692C123.262 47.0692 125.532 55.1392 125.532 58.2492V67.4192C125.532 68.9892 124.262 70.2492 122.702 70.2492H104.482C102.912 70.2492 101.652 68.9792 101.652 67.4192V58.2492H101.642Z" fill="#C85018"/>
    <path d="M425.721 61.5092C425.721 40.8892 415.181 31.6992 391.541 31.6992C360.071 31.6992 357.621 53.7992 357.621 60.5692V96.3792C357.621 103.149 360.061 125.249 391.541 125.249C396.521 125.249 400.911 124.839 404.751 123.999V125.989C404.751 135.479 398.401 140.709 386.871 140.709C378.591 140.709 371.561 139.039 366.721 137.289C364.871 136.619 362.921 137.979 362.921 139.949V150.469C362.921 151.719 363.741 152.819 364.941 153.179C368.971 154.389 377.111 156.419 386.441 156.419C412.141 156.419 425.721 146.299 425.721 127.139V61.4992V61.5092ZM403.381 97.4392C403.381 105.389 399.101 109.759 391.331 109.759C385.931 109.759 379.501 107.389 379.501 96.0792V60.8692C379.501 49.5592 385.941 47.1892 391.341 47.1892C399.111 47.1892 403.391 51.5692 403.391 59.5092V97.4392H403.381Z" fill="#C85018"/>
    <path d="M207.302 124.389C205.732 124.389 204.472 123.119 204.472 121.559C204.472 121.559 204.472 64.8792 204.482 64.4792C204.542 60.9492 204.642 54.3692 201.082 50.7592C199.432 49.0792 197.192 48.2292 194.432 48.2292C186.422 48.2292 182.702 52.0092 182.702 60.1392V121.559C182.702 123.129 181.432 124.389 179.872 124.389H163.662C162.092 124.389 160.832 123.119 160.832 121.559V35.3892C160.832 33.8192 162.102 32.5592 163.662 32.5592H179.872C181.442 32.5592 182.702 33.8292 182.702 35.3892V36.7492C185.692 34.5592 190.582 32.1092 197.712 31.7592C198.252 31.7192 198.792 31.6992 199.362 31.6992C199.372 31.6992 199.392 31.6992 199.402 31.6992C199.402 31.6992 199.422 31.6992 199.432 31.6992C199.482 31.6992 199.532 31.6992 199.582 31.6992C200.182 31.6992 200.772 31.7192 201.362 31.7592C210.892 32.1392 217.882 35.3492 222.002 41.0892L222.722 40.1492C223.382 39.2792 229.522 31.6992 243.082 31.6992C260.442 31.6992 270.002 40.5192 270.002 56.5492V121.559C270.002 123.129 268.732 124.389 267.172 124.389H250.962C249.392 124.389 248.132 123.119 248.132 121.559C248.132 121.559 248.132 64.8792 248.142 64.4792C248.202 60.9492 248.302 54.3692 244.742 50.7592C243.092 49.0792 240.852 48.2292 238.092 48.2292C230.082 48.2292 226.362 52.0092 226.362 60.1392V121.559C226.362 123.129 225.092 124.389 223.532 124.389H207.322H207.302Z" fill="#C85018"/>
    <path d="M3.36125 124.389C1.79125 124.389 0.53125 123.119 0.53125 121.559V35.3892C0.53125 33.8192 1.80125 32.5592 3.36125 32.5592H19.5713C21.1413 32.5592 22.4013 33.8292 22.4013 35.3892V36.7492C25.6213 34.3892 31.0513 31.6992 39.1213 31.6992C56.4813 31.6992 66.0413 40.5192 66.0413 56.5492V121.559C66.0413 123.129 64.7712 124.389 63.2113 124.389H47.0013C45.4313 124.389 44.1712 123.119 44.1712 121.559C44.1712 121.559 44.1713 64.8792 44.1813 64.4792C44.2413 60.9492 44.3413 54.3692 40.7812 50.7592C39.1312 49.0792 36.8912 48.2292 34.1312 48.2292C26.1212 48.2292 22.4013 52.0092 22.4013 60.1392V121.559C22.4013 123.129 21.1313 124.389 19.5713 124.389H3.36125Z" fill="#C85018"/>
    <path d="M51.51 138.669C49.42 138.669 46.8 141.139 38.14 151.259C32.34 158.009 29.83 160.529 28.81 161.299C28.84 158.799 30.26 153.319 31.51 148.479L31.6 148.119C32.93 142.909 34.18 137.989 34.18 135.529C34.18 133.839 33.33 132.789 31.95 132.789C25.69 132.789 3.86003 168.539 0.910033 174.869C0.440033 175.889 0.380035 176.789 0.740035 177.349C0.910035 177.619 1.26003 177.939 1.94003 177.939C3.06003 177.939 3.92003 176.489 4.45003 175.269C4.67003 174.759 4.60003 174.389 4.51003 174.169C4.47003 174.079 4.40003 173.959 4.30003 173.859C10.98 161.989 27.56 136.259 31.58 135.469C31.57 137.659 30.43 141.999 29.23 146.599L28.78 148.349C27.49 153.459 26.15 158.749 26.15 161.379C26.15 164.009 27.66 164.249 28.31 164.249C30.2 164.249 32.66 161.719 40.14 152.999C45.39 146.889 48.55 143.479 50.26 142.079C49.81 143.289 48.96 145.199 47.56 148.179C44.49 154.739 40.28 163.739 40.28 170.179C40.28 173.269 41.23 175.579 43.05 176.999C43.27 177.219 43.58 177.339 43.92 177.339C44.64 177.339 45.25 176.729 45.25 176.009C45.25 175.609 45.06 175.219 44.74 174.939C43.52 173.979 42.95 172.469 42.95 170.179C42.95 164.309 47 155.649 49.97 149.299L50.05 149.119C51.87 145.219 53.31 142.139 53.31 140.609C53.31 139.489 52.55 138.669 51.5 138.669H51.51Z" fill="#C85018"/>
    <path d="M85.1709 156.048C84.8109 156.048 84.4909 156.168 84.3009 156.368C78.7709 161.238 69.6309 165.838 65.5009 165.838C63.5209 165.838 63.1809 165.268 63.1809 163.998C63.1809 162.998 63.5309 161.828 64.1909 160.588C64.8309 160.698 65.4809 160.748 66.2009 160.748C70.4309 160.748 74.2809 158.058 74.2809 155.098C74.2809 153.438 72.9909 152.328 71.0609 152.328C69.3709 152.328 67.4109 153.178 65.5909 154.678C64.7509 153.208 63.2209 152.328 61.4609 152.328C56.0909 152.328 47.4609 160.928 47.4609 166.268C47.4609 168.148 48.5509 169.228 50.4609 169.228C52.7709 169.228 55.8309 167.388 60.5709 163.128C60.5409 163.418 60.5209 163.708 60.5209 163.988C60.5209 166.038 61.3809 168.488 65.5009 168.488C70.2509 168.488 80.0509 163.668 86.0409 158.388C86.3409 158.138 86.5109 157.768 86.5109 157.368C86.5109 156.648 85.9009 156.038 85.1809 156.038L85.1709 156.048ZM61.4609 154.998C62.4909 154.998 63.3009 155.648 63.5409 156.638C56.6809 163.418 52.5209 166.578 50.4509 166.578C50.2509 166.578 50.1609 166.568 50.1409 166.578C50.1409 166.538 50.1209 166.458 50.1209 166.278C50.1209 162.378 57.5409 154.998 61.4609 154.998ZM71.0609 154.998C71.5109 154.998 71.6109 155.078 71.6109 155.078C71.6109 155.078 71.6109 155.088 71.6109 155.108C71.6109 156.398 68.7209 158.198 65.9009 158.088C67.5609 156.208 69.5609 154.998 71.0609 154.998Z" fill="#C85018"/>
    <path d="M107.87 156.208C107.59 156.208 107.32 156.298 107.11 156.458C104.49 158.228 102.23 159.128 100.38 159.128C99.7599 159.128 99.4199 159.128 99.1799 156.448C98.9899 154.388 98.6099 152.378 96.4099 152.378C94.0499 152.378 89.4499 155.758 85.6999 159.288C87.0999 156.868 88.4399 154.788 89.2399 153.778C89.4499 153.568 89.5799 153.248 89.5799 152.908C89.5799 152.188 88.9699 151.578 88.2499 151.578C87.8599 151.578 87.4899 151.758 87.2199 152.078C85.3699 154.328 81.1199 161.538 79.5599 165.808C79.2799 166.518 79.5599 167.188 80.2899 167.528L80.3899 167.578C80.6099 167.668 80.8199 167.708 81.0099 167.708C81.4499 167.708 81.8299 167.488 82.1099 167.038C86.0199 161.298 94.2099 155.278 96.2999 155.038C96.3699 155.268 96.4499 155.818 96.5299 156.688C96.6899 158.468 96.9799 161.788 100.39 161.788C103.35 161.788 106.49 160.088 108.62 158.658C108.99 158.388 109.21 157.978 109.21 157.548C109.21 156.828 108.6 156.218 107.88 156.218L107.87 156.208Z" fill="#C85018"/>
    <path d="M132.732 160.5C132.302 160.5 131.882 160.72 131.612 161.11C127.062 168 119.662 170.32 116.992 170.32C114.542 170.32 111.822 167.7 110.862 164.49C118.342 163.03 123.922 159.39 123.922 155.91C123.922 154.39 122.772 153.33 121.122 153.33C117.782 153.33 111.302 158.43 105.782 163.94C110.272 155.96 116.562 146.04 121.052 140.72L121.622 140.28C123.272 139.02 124.692 137.93 124.692 136.81C124.692 136.09 124.022 135.48 123.232 135.48C122.702 135.48 122.142 135.74 121.602 136.23C120.712 137.08 119.882 137.97 119.072 138.96C111.802 147.55 100.512 167.06 98.7216 171.99C98.6516 172.13 98.6016 172.34 98.6016 172.5C98.6016 173.22 99.2116 173.83 100.002 173.83C100.442 173.83 100.822 173.63 101.072 173.27C102.942 170.73 105.492 167.87 108.292 165.17C109.532 169.56 113.282 173 116.992 173C120.112 173 128.682 170.38 133.852 162.6L133.902 162.51C133.972 162.33 134.062 162.1 134.062 161.85C134.062 161.13 133.452 160.52 132.732 160.52V160.5ZM121.112 155.99C121.172 155.99 121.212 155.99 121.252 155.99C121.122 157.57 117.472 160.01 112.382 161.41C116.262 158.12 119.662 155.99 121.112 155.99ZM121.262 155.91C121.262 155.91 121.262 155.91 121.262 155.9H121.762L121.262 155.91Z" fill="#C85018"/>
    <path d="M171.691 156.048C171.361 156.048 171.031 156.178 170.811 156.398C166.511 160.218 160.411 164.638 151.071 165.218C152.451 162.628 154.021 159.898 155.741 157.108C166.371 152.558 175.671 142.168 175.671 138.248C175.671 136.728 174.561 135.668 172.961 135.668C167.021 135.668 157.841 149.068 154.071 154.998C150.621 156.348 147.281 156.928 144.041 156.728C143.321 156.728 142.711 157.338 142.711 158.058C142.711 158.778 143.251 159.338 143.951 159.388C146.521 159.548 149.151 159.248 151.961 158.468C150.661 160.618 149.371 162.898 148.131 165.268C147.841 165.268 147.531 165.268 147.181 165.238C146.461 165.238 145.851 165.848 145.851 166.568C145.851 166.648 145.851 166.798 145.911 166.948C146.011 167.358 146.101 167.808 146.191 168.268L146.311 168.858C142.861 175.888 140.961 181.398 140.961 184.378C140.961 186.368 142.101 187.598 143.921 187.598C147.291 187.598 149.831 183.158 149.831 177.278C149.831 175.398 149.501 171.918 149.051 169.128C149.161 168.908 149.271 168.688 149.381 168.458C149.471 168.278 149.561 168.098 149.651 167.918C160.891 167.718 168.111 162.378 172.521 158.398C172.841 158.178 173.031 157.808 173.031 157.378C173.031 156.658 172.421 156.048 171.701 156.048H171.691ZM143.921 184.938C143.681 184.938 143.621 184.938 143.621 184.378C143.621 182.268 144.821 178.398 146.941 173.608C147.081 175.078 147.161 176.398 147.161 177.268C147.161 181.648 145.451 184.928 143.921 184.928V184.938ZM158.481 152.878C164.641 143.728 170.011 138.328 172.981 138.328C173.001 138.328 173.011 138.328 173.021 138.328C172.881 140.758 166.751 148.218 158.481 152.878Z" fill="#C85018"/>
    <path d="M194.331 156.208C194.051 156.208 193.781 156.298 193.571 156.458C190.951 158.228 188.691 159.128 186.841 159.128C186.221 159.128 185.881 159.128 185.641 156.448C185.451 154.388 185.071 152.378 182.871 152.378C180.511 152.378 175.911 155.758 172.161 159.288C173.561 156.868 174.901 154.788 175.701 153.778C175.911 153.568 176.041 153.248 176.041 152.908C176.041 152.188 175.431 151.578 174.711 151.578C174.321 151.578 173.951 151.758 173.681 152.078C171.831 154.328 167.581 161.538 166.021 165.808C165.741 166.518 166.021 167.188 166.751 167.528L166.851 167.578C167.071 167.668 167.281 167.708 167.471 167.708C167.911 167.708 168.291 167.488 168.571 167.038C172.481 161.298 180.671 155.278 182.761 155.038C182.831 155.268 182.911 155.818 182.991 156.688C183.151 158.468 183.441 161.788 186.851 161.788C189.821 161.788 192.951 160.088 195.081 158.658C195.451 158.398 195.671 157.978 195.671 157.548C195.671 156.828 195.061 156.218 194.341 156.218L194.331 156.208Z" fill="#C85018"/>
    <path d="M200.283 149.881C200.683 149.881 201.083 149.691 201.353 149.361C201.673 148.951 202.183 148.311 202.563 147.831C202.753 147.591 202.863 147.281 202.863 146.971C202.863 146.251 202.253 145.641 201.533 145.641C201.113 145.641 200.693 145.851 200.473 146.191C200.263 146.521 199.953 146.881 199.673 147.211C199.513 147.401 199.363 147.581 199.243 147.731C199.133 147.881 198.953 148.171 198.953 148.541C198.953 149.261 199.563 149.871 200.283 149.871V149.881Z" fill="#C85018"/>
    <path d="M211.901 156.049C211.571 156.049 211.241 156.179 211.021 156.399C201.961 164.469 197.331 166.159 195.031 166.159C193.611 166.159 193.191 165.759 193.191 164.359C193.191 162.319 195.521 157.609 198.131 154.309C198.341 154.099 198.471 153.779 198.471 153.439C198.471 152.719 197.861 152.109 197.141 152.109C196.721 152.109 196.301 152.319 196.111 152.619C193.861 155.419 190.531 161.089 190.531 164.359C190.531 167.199 192.171 168.829 195.031 168.829C199.141 168.829 204.941 165.409 212.711 158.409C213.031 158.189 213.221 157.819 213.221 157.389C213.221 156.669 212.611 156.059 211.891 156.059L211.901 156.049Z" fill="#C85018"/>
    <path d="M241.049 156.05C240.719 156.05 240.389 156.18 240.169 156.4C233.189 162.6 227.829 166.16 225.459 166.16C224.479 166.16 223.939 165.87 223.939 164.36C223.939 163.59 224.179 162.46 224.469 161.11C224.789 159.66 225.149 158.03 225.149 156.71C225.149 154.56 224.129 153.33 222.349 153.33C220.089 153.33 217.089 155.7 212.309 161.25C211.329 162.39 210.389 163.57 209.479 164.7C209.059 165.22 208.649 165.73 208.249 166.23C212.119 159.16 220.599 146.53 225.899 140.63L226.509 140.15C228.049 138.95 229.379 137.92 229.379 136.81C229.379 136.09 228.709 135.48 227.919 135.48C227.389 135.48 226.829 135.74 226.289 136.23C225.399 137.08 224.569 137.98 223.759 138.95C216.269 147.49 203.059 168 203.059 171.98C203.059 172.96 203.709 173.66 204.619 173.66C205.729 173.66 206.969 172.1 209.239 169.28L210.139 168.16C211.619 166.27 213.039 164.53 214.349 162.99C219.329 157.21 221.449 156 222.409 155.98C222.409 155.99 222.499 156.12 222.499 156.71C222.499 157.6 222.269 158.75 222.019 159.97L221.909 160.53C221.619 161.72 221.289 163.23 221.289 164.36C221.289 167.16 222.849 168.83 225.469 168.83C228.529 168.83 234.379 165.11 241.879 158.41C242.199 158.19 242.389 157.82 242.389 157.39C242.389 156.67 241.779 156.06 241.059 156.06L241.049 156.05Z" fill="#C85018"/>
    <path d="M261.43 156.05C261.06 156.05 260.75 156.17 260.55 156.37C255.29 161.06 245.8 165.84 241.75 165.84C239.77 165.84 239.43 165.27 239.43 164C239.43 163.15 239.68 162.17 240.16 161.14C244.84 161.49 247.64 159.66 248.91 158.51C250.03 157.49 250.73 156.31 250.73 155.43C250.73 153.55 249.39 152.34 247.32 152.34C242.59 152.34 236.77 158.77 236.77 164.01C236.77 166.06 237.63 168.51 241.75 168.51C246.74 168.51 256.58 163.19 262.29 158.41C262.59 158.16 262.76 157.79 262.76 157.39C262.76 156.67 262.15 156.06 261.43 156.06V156.05ZM247.32 155C248.07 155 248.07 155.18 248.07 155.43C248.07 155.6 247.86 156.08 247.29 156.62C246.69 157.2 245.01 158.45 241.81 158.53C243.5 156.42 245.68 155.01 247.32 155.01V155Z" fill="#C85018"/>
    <path d="M290.079 156.05C289.749 156.05 289.419 156.18 289.199 156.4C280.139 164.47 275.509 166.16 273.209 166.16C272.259 166.16 271.369 165.88 271.369 163.84C271.369 162.66 271.669 161.07 272.239 159.22C280.199 151.84 288.619 142.07 288.619 138.4C288.619 136.74 287.529 135.66 285.849 135.66C280.709 135.66 274.619 146.05 271.479 153.63C270.839 152.78 269.859 152.33 268.629 152.33C263.259 152.33 254.629 160.93 254.629 166.27C254.629 168.13 255.709 169.23 257.529 169.23C260.139 169.23 265.349 165.2 268.839 162.24C268.759 162.82 268.709 163.36 268.709 163.84C268.709 166.96 270.389 168.82 273.209 168.82C277.319 168.82 283.119 165.4 290.889 158.4C291.209 158.18 291.399 157.81 291.399 157.38C291.399 156.66 290.789 156.05 290.069 156.05H290.079ZM268.649 155C268.969 155 269.199 155.08 269.349 155.24C269.589 155.5 269.699 156.03 269.649 156.78C269.619 157.25 269.689 157.58 269.819 157.79C264.029 163.14 259.239 166.58 257.549 166.58C257.429 166.58 257.359 166.58 257.329 166.58C257.329 166.54 257.309 166.45 257.309 166.28C257.309 162.38 264.729 155 268.649 155ZM285.859 138.33C285.909 138.33 285.949 138.33 285.959 138.33C285.959 138.35 285.959 138.37 285.959 138.4C285.959 140.37 281.179 146.51 274.379 153.37C277.659 145.76 282.619 138.32 285.849 138.32L285.859 138.33Z" fill="#C85018"/>
    <path d="M310.558 156.05C310.188 156.05 309.878 156.17 309.678 156.37C304.418 161.06 294.928 165.84 290.878 165.84C288.898 165.84 288.558 165.27 288.558 164C288.558 163.15 288.808 162.17 289.288 161.14C293.968 161.49 296.768 159.66 298.038 158.51C299.158 157.49 299.858 156.31 299.858 155.43C299.858 153.55 298.518 152.34 296.448 152.34C291.718 152.34 285.898 158.77 285.898 164.01C285.898 166.06 286.758 168.51 290.878 168.51C295.868 168.51 305.708 163.19 311.418 158.41C311.718 158.16 311.888 157.79 311.888 157.39C311.888 156.67 311.278 156.06 310.558 156.06V156.05ZM296.448 155C297.198 155 297.198 155.18 297.198 155.43C297.198 155.6 296.988 156.08 296.418 156.62C295.818 157.2 294.138 158.45 290.938 158.53C292.628 156.42 294.808 155.01 296.448 155.01V155Z" fill="#C85018"/>
    <path d="M342.508 158.577C342.078 158.577 341.668 158.797 341.388 159.187C336.838 166.077 329.438 168.397 326.768 168.397C324.828 168.397 324.018 167.647 323.678 165.517C323.398 163.867 323.268 161.757 323.148 159.897L323.108 159.197C323.048 158.247 322.868 155.367 320.368 155.367C318.338 155.367 315.938 157.037 309.628 162.827C308.758 163.637 308.028 164.297 307.398 164.847C307.908 163.907 308.578 162.807 309.368 161.567C310.728 159.407 312.538 156.847 314.548 154.227C314.768 154.017 314.888 153.697 314.888 153.357C314.888 152.637 314.278 152.027 313.558 152.027C313.158 152.027 312.768 152.217 312.488 152.547C310.298 155.417 308.498 157.967 307.118 160.127C304.768 163.777 303.578 166.267 303.578 167.537C303.578 168.587 304.268 169.317 305.258 169.317C306.438 169.317 307.968 167.997 311.448 164.767C314.978 161.527 318.758 158.217 320.228 158.027C320.278 158.167 320.368 158.507 320.428 159.377L320.488 160.277C320.608 162.127 320.738 164.237 321.008 165.917C321.588 169.317 323.528 171.037 326.748 171.037C329.968 171.037 338.438 168.417 343.608 160.637L343.658 160.537C343.728 160.357 343.818 160.127 343.818 159.877C343.818 159.157 343.208 158.547 342.488 158.547L342.508 158.577Z" fill="#C85018"/>
  </g>
  <defs>
    <clipPath id="clip0_12472_15503">
      <rect width="426" height="188" fill="white"/>
    </clipPath>
  </defs>
</svg>
