<?xml version="1.0" encoding="UTF-8"?>
<svg xmlns="http://www.w3.org/2000/svg" version="1.1" viewBox="0 0 2372.3 454.2">
  <defs>
    <style>
      .cls-1 {
        fill: #ff5200;
      }
    </style>
  </defs>
  <!-- Generator: Adobe Illustrator 28.6.0, SVG Export Plug-In . SVG Version: 1.2.0 Build 709)  -->
  <g>
    <g id="Layer_1">
      <path d="M326.6,265.1h-151.9v97.6h-68.6V91.5h220.5c35.3,0,60.1,24.8,60.1,60.1v53.5c0,35.2-24.8,60-60.1,60ZM174.7,142.2v72.1h124.8c10.5,0,17.4-7,17.4-17.4v-37.2c0-10.5-7-17.4-17.4-17.4h-124.8Z"/>
      <path d="M649.6,264.3l56.2,98.4h-74l-55.8-97.6h-88v97.6h-68.6V91.5h220.5c35.3,0,60.1,24.8,60.1,60.1v53.5c0,31.8-20.5,55.4-50.4,59.3ZM488,142.2v72.1h124.8c10.5,0,17.4-7,17.4-17.4v-37.2c0-10.5-7-17.4-17.4-17.4h-124.8Z"/>
      <path d="M786.9,91.5h172c31.8,0,54.3,22.5,54.3,54.3v162.7c0,31.8-22.5,54.2-54.3,54.2h-172c-31.8,0-54.2-22.5-54.2-54.2v-162.7c0-31.8,22.5-54.3,54.2-54.3ZM774.5,227.1l50,86h96.9l50-86-50-86h-96.9l-50,86Z"/>
      <path d="M1100.1,362.7c-31.8,0-54.2-22.5-54.2-54.2v-162.7c0-31.8,22.5-54.3,54.2-54.3h172c31.8,0,54.3,22.5,54.3,54.3v53.9h-56.2l-33.7-58.5h-98.8l-50,86,50,86h98.8l33.7-58.5h56.2v53.9c0,31.8-22.5,54.2-54.3,54.2h-172Z"/>
      <path d="M1413.4,91.5h172c31.8,0,54.3,22.5,54.3,54.3v162.7c0,31.8-22.5,54.2-54.3,54.2h-172c-31.8,0-54.2-22.5-54.2-54.2v-162.7c0-31.8,22.5-54.3,54.2-54.3ZM1401,227.1l50,86h96.9l50-86-50-86h-96.9l-50,86Z"/>
      <path d="M1902.6,264.3l56.2,98.4h-74l-55.8-97.6h-88v97.6h-68.6V91.5h220.5c35.3,0,60.1,24.8,60.1,60.1v53.5c0,31.8-20.5,55.4-50.4,59.3ZM1741,142.2v72.1h124.8c10.5,0,17.4-7,17.4-17.4v-37.2c0-10.5-7-17.4-17.4-17.4h-124.8Z"/>
      <path d="M2054.2,252.3v59.7h212v50.8h-280.5V91.5h280.5v50.8h-212v59.3h148v50.8h-148Z"/>
      <polygon class="cls-1" points="1213.3 181.4 1240 227.1 1213.3 272.8 1160.6 272.8 1133.8 227.1 1160.6 181.4 1213.3 181.4"/>
    </g>
  </g>
</svg>