<?xml version="1.0" encoding="UTF-8"?>
<svg id="teleport-logo" xmlns="http://www.w3.org/2000/svg" version="1.1" viewBox="0 0 750 163">
  <!-- Generator: Adobe Illustrator 29.1.0, SVG Export Plug-In . SVG Version: 2.1.0 Build 142)  -->
  <defs>
    <style>
      .st0 {
        fill: #512fc9;
      }
    </style>
  </defs>
  <path class="st0" d="M276.8,47h-30v85.4h-24.7V47h-30v-19.3h84.7v19.3ZM541.7,78.5h0c-1.4-4.7-3.3-8.7-5.7-12-2.3-3.1-5.3-5.7-8.7-7.5-3.4-1.7-7-2.6-11-2.6-6.8,0-13.5,2.1-18.9,6.3-1.2,1-2.5,2-3.6,3.2l-1.1,1.2-1.7-5.5c-.3-1.2-1-2.2-2-2.8-.9-.5-1.8-.9-2.9-.9h-.7s-14,0-14,0v98.1h22.7v-28.6c2.2,1.9,4.7,3.4,7.3,4.5,2.7,1.1,6,1.7,10,1.7,4.6,0,9.1-1,13.2-3,4-2,7.5-4.7,10.2-8.2,3-3.7,5.2-7.9,6.7-12.4,1.6-4.7,2.4-9.9,2.4-15.5s-.7-11.3-2.1-16.1ZM520.4,94.5c0,4.1-.4,7.6-1.1,10.5-.7,2.9-1.7,5.2-3,7-1.3,1.8-2.8,3.1-4.6,3.9-1.8.8-3.8,1.2-5.8,1.2-2.2,0-4.3-.4-6.3-1.1-1.8-.7-3.5-1.8-4.8-3.1l-.7-.8v-31.6c.9-1.1,1.9-2.1,2.9-3.1,1-.9,2-1.6,3.2-2.2,1.1-.6,2.4-1,3.7-1.3,1.3-.3,2.8-.5,4.5-.5s3.4.4,4.9,1.1c1.5.7,2.7,1.9,3.8,3.6s1.9,3.8,2.5,6.5c.6,2.7.9,6,.9,9.9h0ZM334.5,98.8c.7-.2,1.2-.7,1.6-1.3.4-.8.7-1.6.8-2.5.1-1.1.2-2.4.2-4.1,0-5.4-.9-10.2-2.5-14.4h0c-1.5-4-3.9-7.7-7-10.7-3.1-3-6.7-5.2-10.8-6.7-4.4-1.6-9.1-2.4-13.8-2.3-5.8,0-11,1-15.6,2.9-4.4,1.8-8.4,4.5-11.8,8-3.2,3.4-5.8,7.3-7.5,11.7-1.8,4.5-2.6,9.3-2.6,14.2,0,6.6,1,12.4,3,17.4,2,5,4.8,9.1,8.3,12.5,3.5,3.3,7.5,5.9,12.2,7.6,4.7,1.7,9.6,2.6,15,2.6s5.3-.2,8.2-.5c2.9-.4,5.7-1,8.6-1.9,2.9-.9,5.6-2.2,8.3-3.9,2.3-1.4,4.5-3.2,6.6-5.3l1-1.1-6.6-8c-.9-1.3-2.3-2-4.1-2s-2.7.3-3.9.9c-1.2.6-2.6,1.3-4.1,2.1-1.6.8-3.3,1.5-5.1,2.1-1.9.6-4.2.9-6.8.9-4.9,0-9-1.4-12.1-4.2-2.9-2.6-4.8-6.7-5.6-12.3l-.2-1.2h43.7c1,0,1.9-.1,2.5-.4ZM316.8,86.2h-28.3c.8-4.5,2.4-8,4.8-10.4,2.4-2.4,5.8-3.6,10.2-3.6s4.5.4,6.2,1.2c1.6.7,3,1.8,4.1,3.2,1.1,1.3,1.8,2.9,2.3,4.5.5,1.7.7,3.4.7,5.2h0ZM455.8,98.8c.6-.2,1.2-.7,1.6-1.3.4-.8.7-1.6.8-2.5.2-1.1.2-2.4.2-4.1,0-5.4-.8-10.2-2.5-14.4h0c-1.7-4.2-4-7.8-7-10.7-3.1-3-6.7-5.2-10.8-6.7-4.4-1.6-9.1-2.4-13.8-2.3-5.8,0-11,1-15.6,2.9-4.4,1.8-8.4,4.6-11.8,8-3.2,3.4-5.8,7.3-7.5,11.7-1.7,4.5-2.6,9.2-2.6,14.2s1,12.4,3,17.4c2,5,4.8,9.1,8.3,12.5,3.5,3.4,7.7,5.9,12.2,7.6,4.8,1.7,9.9,2.6,15,2.6,2.6,0,5.3-.2,8.1-.5,2.9-.4,5.8-1,8.6-1.9,2.8-.9,5.6-2.2,8.3-3.9,2.4-1.5,4.6-3.3,6.5-5.3l1-1.1-6.6-8c-.9-1.3-2.3-1.9-4.1-1.9s-2.7.3-3.9.9c-1.2.6-2.6,1.3-4.1,2.1-1.6.8-3.3,1.5-5.1,2.1-1.9.6-4.2.9-6.8.9-4.9,0-9-1.4-12.1-4.2-2.9-2.6-4.8-6.7-5.6-12.3l-.2-1.2h43.7c.9,0,1.7,0,2.5-.4ZM438,86.2h-28.3c.8-4.5,2.4-8,4.8-10.5,2.4-2.4,5.8-3.6,10.2-3.6s4.5.4,6.2,1.2c1.7.8,3.1,1.9,4.1,3.2,1,1.3,1.8,2.8,2.3,4.5.5,1.7.7,3.4.7,5.2h0ZM625.5,79.1c-1.8-4.5-4.4-8.6-7.9-12-3.5-3.4-7.6-6-12.2-7.6-4.7-1.8-9.9-2.6-15.7-2.6s-11.1.9-15.8,2.6c-4.6,1.7-8.8,4.3-12.3,7.6-3.5,3.4-6.2,7.5-8,12-1.9,4.7-2.8,10-2.8,15.9s.9,11.3,2.8,16.1c1.9,4.8,4.5,8.8,8,12.1,3.5,3.4,7.7,6,12.3,7.7,4.8,1.8,10.1,2.7,15.8,2.7s11-.9,15.7-2.7c4.5-1.7,8.7-4.3,12.2-7.7,3.4-3.3,6-7.4,7.9-12.1,1.9-4.8,2.8-10.2,2.8-16.1s-.9-11.2-2.8-15.9ZM601.2,111.6c-2.5,3.6-6.1,5.4-11.5,5.4s-9.3-1.8-11.8-5.4c-2.5-3.6-3.7-9.1-3.7-16.5s1.2-12.9,3.7-16.5c2.5-3.6,6.6-5.4,11.8-5.4s9,1.8,11.5,5.4c2.5,3.6,3.7,9.1,3.7,16.5s-1.2,12.9-3.7,16.5ZM742.1,116.5c-.4-.7-.9-1.2-1.3-1.5-.5-.3-1-.5-1.6-.5-.4,0-.9,0-1.3.2-.4.2-.8.4-1.2.6-1.1.6-2.3.8-3.5.8-1.6,0-2.8-.6-3.7-1.7-.7-1-1.2-2.2-1.3-3.6v-.7s0-37,0-37h18.4v-15.2h-18.4v-21.8h-11.8c-2.5,0-4.1,1-4.8,2.9l-.2.5-4.5,18.2-12.1,2.3v8.7c0,1.4.4,2.5,1.2,3.3.7.6,1.5,1,2.4,1.1h.6s6.4,0,6.4,0v38.5c0,3.1.5,6.1,1.5,9,.9,2.6,2.4,4.9,4.3,6.9,2,1.9,4.3,3.4,6.9,4.4,2.8,1,5.9,1.5,9.5,1.5s7.7-.5,11.3-1.6c3.1-.9,6.1-2.3,8.8-4.1l1.1-.8-6.9-10.6h0ZM350.8,132.4h22.7V24.9h-22.7v107.5ZM671.4,60.1c-3.3,2.4-6.1,5.3-8.4,8.6l-.9,1.4-1.2-7c-.2-.8-.4-1.7-.7-2.5-.2-.6-.6-1.2-1.2-1.6-.6-.4-1.2-.7-1.9-.9-.7-.2-1.3-.2-2-.3h-.8s-13.5,0-13.5,0v74.5h22.7v-45.7c3.4-6.2,8.1-9.3,14-9.3s3.1.1,4.2.3c1.1.2,2.1.3,2.9.3s1.8-.2,2.3-.6c.5-.4.9-.9,1-1.6v-.6c.1,0,3.1-16.4,3.1-16.4-2.1-1.6-4.9-2.5-8.3-2.5s-7.9,1.2-11.3,3.7h0Z"/>
  <g>
    <path class="st0" d="M155.1,104.2h0s-15.7-13.4-15.7-13.4l.3-1.8c.3-2.5.4-5,.4-7.5s-.2-6.4-.7-9.4l15.7-13.3.3-.3c.4-.4.7-.9.8-1.5.1-.6,0-1.2-.2-1.7-3.2-9.7-8.7-18.9-15.5-26.5-1-1.1-2.3-1.5-3.6-.9l-19.8,6.8-1.6-1.3c-4.5-3.4-9.4-6.1-14.7-8.1l-3.9-20.1v-.4c-.3-.6-.7-1.1-1.1-1.4-.5-.4-1-.6-1.6-.7-10.2-2-20.8-2-31,0-.7.1-1.3.4-1.8.9-.5.5-.8,1.1-1,1.7l-3.9,20.1-1.8.7c-5.2,2.1-10.2,5.1-14.6,8.6l-19.8-6.8h-.4c-.6-.3-1.2-.2-1.7,0-.6.2-1.1.5-1.4,1-6.8,7.6-12.3,16.8-15.5,26.5-.3.6-.3,1.3-.2,1.9.2.6.6,1.2,1.1,1.6l15.7,13.3-.3,1.8c-.3,2.5-.4,5-.4,7.5,0,3.1.2,6.3.7,9.3l-15.7,13.4-.4.3c-.4.4-.7,1-.8,1.5-.1.6,0,1.2.2,1.7,3.2,9.7,8.7,18.9,15.5,26.5,1,1.1,2.3,1.5,3.6,1l19.8-6.8,1.4,1.2c4.5,3.4,9.6,6.2,14.9,8.2l3.9,20.1v.4c.3.6.6,1.1,1.1,1.5.5.4,1,.6,1.6.7,5.1.9,10.2,1.5,15.5,1.5s10.4-.5,15.5-1.5c.7-.1,1.3-.4,1.8-.9.5-.5.8-1.1,1-1.7l3.9-20.1,2-.8c5.2-2.2,10-5.1,14.4-8.6l19.8,6.8.4.2c1.2.3,2.3-.1,3.2-1.1,6.8-7.6,12.3-16.8,15.5-26.5.3-.6.3-1.3.2-1.9-.2-.6-.6-1.2-1.1-1.6ZM78.6,128.6s0,0,0,0h0s0,0,0,0c-26.1,0-47.2-21.1-47.2-47.1s21.1-47.1,47.2-47.1,47.2,21.1,47.2,47.1-21.1,47.1-47.2,47.1Z"/>
    <path class="st0" d="M78.7,49.3c-17.8,0-32.2,14.5-32.2,32.2s14.5,32.2,32.2,32.2,32.2-14.4,32.2-32.2-14.5-32.2-32.2-32.2ZM78.6,100.4s0,0,0,0h0s0,0,0,0c-10.5,0-19-8.5-19-18.9s8.5-18.9,19-18.9,19,8.5,19,18.9-8.5,18.9-19,18.9Z"/>
  </g>
</svg>