<svg xmlns="http://www.w3.org/2000/svg" width="162" height="36" viewBox="0 0 162 36" fill="none">
  <path fill-rule="evenodd" clip-rule="evenodd" d="M44.9629 11.9229H50.0427V16.9761H56.3238V21.1375H50.0427V28.1724C50.0427 29.3284 50.2143 29.9889 50.6605 30.4843C51.0724 30.9797 51.9648 31.4091 53.2347 31.4091C53.9555 31.4091 54.6419 31.343 55.3284 31.2109L56.1178 35.3724C55.0881 35.6036 54.0241 35.7357 52.9601 35.7357C49.9054 35.7357 47.6744 34.7449 46.3701 33.0935C45.4091 31.8385 44.9629 30.2201 44.9629 27.6109V11.9229ZM84.1253 11.9229H79.0455V27.6109C79.0455 30.2201 79.4917 31.8385 80.4527 33.0935C81.757 34.7449 83.988 35.7357 87.0427 35.7357C88.1067 35.7357 89.1707 35.6036 90.2347 35.3724L89.4453 31.2109C88.7589 31.343 88.0724 31.4091 87.3859 31.4091C86.116 31.4091 85.2236 30.9797 84.8117 30.4843C84.3655 29.9889 84.1939 29.3284 84.1939 28.1724V21.1375H90.475V16.9761H84.1939V11.9229H84.1253ZM67.2727 16.6128C61.6437 16.6128 58.0398 21.0715 58.0398 26.1577C58.0398 31.9045 62.3302 35.6696 67.9935 35.6696C69.4693 35.7027 70.9109 35.4054 72.2495 34.8439C73.5881 34.2825 74.7894 33.4568 75.7847 32.3999L72.9016 29.6256C72.2838 30.2531 71.563 30.7816 70.7393 31.1449C69.9155 31.5082 69.0231 31.7063 68.1308 31.7394C66.8608 31.7724 65.6252 31.343 64.6641 30.5504C63.7031 29.7577 63.1196 28.6017 62.9823 27.3797H76.1623C76.2309 26.9173 76.2653 26.455 76.2653 25.9926C76.2653 20.8733 72.5241 16.6128 67.2727 16.6128ZM63.1883 23.8128C63.3599 22.921 63.8747 22.0953 64.6298 21.5008C65.3849 20.9063 66.3116 20.6091 67.2727 20.6091C68.1994 20.6091 69.0918 20.9394 69.7782 21.5339C70.4647 22.1284 70.9109 22.954 71.0139 23.8128H63.1883ZM98.7124 18.8586V17.0091H93.8042V35.3063H98.884V23.7797C99.3645 23.0201 100.051 22.3595 100.84 21.8972C101.664 21.4348 102.557 21.1706 103.483 21.1375C104.101 21.1375 104.719 21.1706 105.337 21.3357L105.92 16.7779C105.371 16.6788 104.788 16.6458 104.238 16.6458C101.939 16.6128 99.845 17.5045 98.7124 18.8586ZM115.737 16.6128C117.762 16.5797 119.718 17.2403 121.297 18.4623V16.9761H126.205V35.2733H121.297V33.7871C119.821 35.0091 117.968 35.6696 116.011 35.6366C114.638 35.6366 113.3 35.3724 112.064 34.844C110.828 34.3155 109.73 33.5229 108.838 32.5651C107.259 30.7816 106.401 28.5027 106.401 26.1577C106.401 20.7742 110.554 16.6128 115.737 16.6128ZM119.1 30.5834C119.89 30.1871 120.576 29.5926 121.091 28.899H121.16V23.4495C120.61 22.7229 119.924 22.1614 119.1 21.7651C118.276 21.3687 117.384 21.1706 116.457 21.1706C113.471 21.1706 111.549 23.5485 111.549 26.1907C111.515 26.8513 111.618 27.5118 111.858 28.1063C112.098 28.7008 112.442 29.2623 112.922 29.7247C113.368 30.1871 113.952 30.5504 114.57 30.8146C115.187 31.0458 115.84 31.1779 116.526 31.1779C117.418 31.1779 118.311 30.9797 119.1 30.5834ZM134.58 11.9229H129.5V27.6109C129.5 30.2201 129.946 31.8385 130.907 33.0935C132.212 34.7449 134.443 35.7357 137.497 35.7357C138.561 35.7357 139.625 35.6036 140.655 35.3724L139.866 31.2109C139.179 31.343 138.493 31.4091 137.772 31.4091C136.502 31.4091 135.61 30.9797 135.198 30.4843C134.752 29.9889 134.58 29.3284 134.58 28.1724V21.1375H140.861V16.9761H134.58V11.9229ZM150.746 16.6128C155.997 16.6128 159.738 20.8733 159.738 25.9595C159.738 26.3928 159.678 26.8261 159.614 27.2866L159.601 27.3797H146.455C146.593 28.6017 147.176 29.7577 148.137 30.5504C149.098 31.343 150.334 31.7724 151.604 31.7394C152.496 31.7063 153.389 31.5082 154.212 31.1449C155.036 30.7816 155.757 30.2531 156.375 29.6256L159.258 32.3999C158.262 33.4568 157.061 34.2825 155.723 34.8439C154.384 35.4054 152.942 35.7027 151.467 35.6696C145.803 35.6696 141.513 31.9045 141.513 26.1577C141.513 21.0715 145.117 16.6128 150.746 16.6128ZM148.103 21.5008C147.348 22.0953 146.833 22.921 146.661 23.8128H154.487C154.384 22.954 153.938 22.1284 153.251 21.5339C152.565 20.9394 151.673 20.6091 150.746 20.6091C149.785 20.6091 148.858 20.9063 148.103 21.5008Z" fill="#0A0D0F"></path>
  <path fill-rule="evenodd" clip-rule="evenodd" d="M26.4292 6.83675C28.111 7.79454 30.0674 8.09179 31.9552 7.76151C35.6964 7.29913 38.4079 11.2294 36.4858 14.367C34.6324 17.5377 29.7242 17.2074 28.2826 13.8716C24.8847 5.41656 12.3225 5.41656 8.89024 13.8716C7.48301 17.2074 2.54052 17.5377 0.687086 14.367C-1.20067 11.2294 1.51083 7.29913 5.2177 7.76151C7.10545 8.09179 9.06186 7.76152 10.7437 6.83675C12.4598 5.91198 13.6954 4.45876 14.3476 2.7083C15.8578 -0.891699 21.3151 -0.891699 22.8253 2.7083C23.4774 4.42573 24.7474 5.91198 26.4292 6.83675ZM18.6036 11.3945C22.3448 11.3945 24.5415 15.589 22.2419 18.4955C21.0062 19.8826 20.3198 21.6661 20.3198 23.5487C20.3198 25.3982 21.0062 27.1817 22.2419 28.6019C24.5758 31.5083 22.3448 35.7358 18.6036 35.7028C14.8624 35.7028 12.6658 31.5083 14.9654 28.6019C16.201 27.2147 16.8875 25.4312 16.8875 23.5487C16.8875 21.6991 16.201 19.9156 14.9654 18.4955C12.6315 15.589 14.8624 11.3615 18.6036 11.3945Z" fill="#FF5500"></path>
</svg>
