<?xml version="1.0" encoding="utf-8"?>
<!-- Generator: Adobe Illustrator 25.3.1, SVG Export Plug-In . SVG Version: 6.00 Build 0)  -->
<svg version="1.1" id="Layer_1" xmlns="http://www.w3.org/2000/svg" xmlns:xlink="http://www.w3.org/1999/xlink" x="0px" y="0px"
	 viewBox="0 0 1000 832.8" style="enable-background:new 0 0 1000 832.8;" xml:space="preserve">
<style type="text/css">
	.st0{fill:#F99E20;}
</style>
<g id="Layer_2_1_">
	<g id="Layer_1-2">
		<path class="st0" d="M861.6,353.5c-16.1,20.6-31.7,34.6-53.4,46.8c11-14.9,15.4-33.1,15.3-53.7c-69.9,0-124.9,48.4-98.9,142.6
			c14.8-1.2,23.3-11.9,31-23.7c0.8,13.4-2.4,28.3-12.1,45.3l6.3,15.3c-18,14-44.4,40.1-65.9,32.5c-56.4-70.5-144.6-90-259.8-14.6
			c8.2-21.4,13.9-37.8,31.8-54.6c-21.1-0.8-61.1,5.1-91.7,23.3c0.9-79.8,9.2-163.4,38.3-266.3c-54.9,100.7-81.7,218.2-109,360.3
			c-29.2-134.2-51.2-227.8-31-381.4c-58.3,11.1-123,52.4-174.9,86.8c62.3-88.1,196.7-183.3,255.2-201.7
			c-28.3,49.2-46.5,117.2-50.8,172.7l26.3-2.6c-10.6,24.7-21.5,82.4-21.4,130.3c7.8-51,32-118.9,56.2-161.9l-32.2,3.2
			c18.2-69,61.6-137.1,99.3-160.1c14.9-5.8,35.5-7.8,50.5-7.1c-4.4,28.9-26.5,175.8-15.3,243.6c0.4-72.6,33-276.4,59.4-328.6
			c42,39.8,49.5,58.2,65.2,93.5c83.2,4.9,148,46.7,208.8,96.6c-1.4,5-4.8,9.2-9.5,11.5c16.2,6.2,56,30.3,71.3,44.2
			c20.1,18.1,46,42.2,58.7,58.3l-23.8,40.2l-11-34.7l21.8-4l-29.1-0.4l11.8,42.4L861.6,353.5L861.6,353.5z M744.2,247L721.9,217
			l-60.3-18.7l35.1,31.1l20.9-1.2L744.2,247z"/>
		<polygon points="156.3,700.4 156.3,734.5 98.4,734.5 98.4,832.6 58,832.6 58,734.5 0,734.5 0,700.4 		"/>
		<rect x="179.1" y="700.4" width="40.3" height="132.2"/>
		<path d="M378,744.6c-0.5-8.3-4.6-12.6-12.6-13c-4.5-0.2-13.5-0.3-27.2-0.3l-25.1,0.1c-8.5,0.2-14.5,1.4-18.1,3.8
			c-4.1,2.8-6.4,8.3-6.8,16.6c-0.3,4.8-0.4,9.6-0.4,14.3c-0.1,5.5,0.2,10.9,0.9,16.3c1,9.6,5.5,14.7,13.2,15.5
			c5,0.5,10.1,0.8,15.2,0.7h16.1l27.4-0.1c12.2-0.1,18.4-4,18.6-11.8v-4.3h-50.3v-27.1h90.7v4.7c0,22.6-0.4,36.8-1.2,42.6
			c-1.1,6.7-4.1,12.9-8.8,17.7c-4.6,5-10.7,8.2-17.4,9.2c-4.9,1-9.9,1.7-14.9,1.9c-11.7,0.9-27.4,1.3-47.1,1.2l-28.1-0.2
			c-12-0.2-20.8-1.1-26.5-2.7c-8.8-2.2-16.3-7.9-20.7-15.8c-4.1-7-6.4-17.1-6.9-30.4c-0.4-10.6-0.6-21.2-0.6-31.8
			c-0.1-4.5,0-7.7,0.1-9.8c0.1-5.3,1.1-10.6,2.9-15.7c4.9-15,16.2-24,34.1-26.8c4.7-0.9,9.5-1.4,14.3-1.6c6.9-0.3,18-0.5,33.3-0.6
			c19.3,0,34,0.2,43.9,0.5c27.8,0.7,42,13.3,42.5,38v8.9L378,744.6z"/>
		<polygon points="444.3,700.4 590.2,700.4 590.2,731.3 484.8,731.3 484.8,749.4 584.3,749.4 584.3,778.1 484.8,778.1 484.8,801.8 
			591.3,801.8 591.3,832.6 444.4,832.6 444.4,700.4 		"/>
		<path d="M779.5,768.2c3-5.5,4.5-13.7,4.5-24.6c0-6.6-0.8-13.2-2.1-19.7c-0.7-3.3-2-6.4-3.7-9.3c-4.5-7.7-12.9-12.1-25.2-13.4
			c-5.5-0.6-11-0.9-16.5-0.9H619.7v132.2h40.4v-32.9h64c8.2-0.1,13.4,1.4,15.5,4.3c2,2.5,2.9,8,2.9,16.4l0.3,12.3h40.3v-16.3
			c0-11.5-1.3-19.5-4-23.9s-9.5-8.2-20.7-11.3C769.5,778,776.5,773.7,779.5,768.2z M737.6,763.8c-2.7,1.1-5.5,1.6-8.3,1.5
			c-4.5,0.2-8.8,0.2-12.8,0.2H660v-31.1h55.3l11.8,0.3c6.1,0.1,10.2,1,12.2,3c2.9,2.5,4.2,6.4,4.2,11.8
			C743.5,757.3,741.4,761.9,737.6,763.8L737.6,763.8z"/>
		<path d="M926.9,700.4h-51.2l-73.1,132.2h45.8l11.9-22.7v-0.1h81.7v0.1l12.3,22.7h45.7L926.9,700.4z M925.5,779.1l-0.1-0.2h-49
			l-0.1,0.2V779h0.1l25-45l24,45h0.1V779.1z"/>
		<polygon points="876.3,777.6 876.4,777.4 876.3,777.4 		"/>
		<polygon points="925.5,777.6 925.5,777.4 925.4,777.4 		"/>
	</g>
</g>
</svg>
