<?xml version="1.0" encoding="UTF-8" standalone="no"?>
<!-- Generator: Adobe Illustrator 14.0.0, SVG Export Plug-In . SVG Version: 6.00 Build 43363)  -->

<svg
   xmlns:dc="http://purl.org/dc/elements/1.1/"
   xmlns:cc="http://creativecommons.org/ns#"
   xmlns:rdf="http://www.w3.org/1999/02/22-rdf-syntax-ns#"
   xmlns:svg="http://www.w3.org/2000/svg"
   xmlns="http://www.w3.org/2000/svg"
   xmlns:xlink="http://www.w3.org/1999/xlink"
   xmlns:sodipodi="http://sodipodi.sourceforge.net/DTD/sodipodi-0.dtd"
   xmlns:inkscape="http://www.inkscape.org/namespaces/inkscape"
   version="1.1"
   id="Layer_1"
   x="0px"
   y="0px"
   width="120"
   height="60"
   viewBox="0 0 120 60"
   xml:space="preserve"
   sodipodi:docname="envoyproxyio-ar21.svg"
   inkscape:version="0.92.3 (2405546, 2018-03-11)"><metadata
   id="metadata39"><rdf:RDF><cc:Work
       rdf:about=""><dc:format>image/svg+xml</dc:format><dc:type
         rdf:resource="http://purl.org/dc/dcmitype/StillImage" /><dc:title></dc:title></cc:Work></rdf:RDF></metadata><defs
   id="defs37">
	<defs
   id="defs5">
		<rect
   height="296.20001"
   width="271.79999"
   y="13.6"
   x="22.9"
   id="SVGID_1_" />
	</defs>
	<clipPath
   id="SVGID_2_">
		<use
   id="use7"
   style="overflow:visible"
   xlink:href="#SVGID_1_"
   x="0"
   y="0"
   width="100%"
   height="100%" />
	</clipPath>
	
	
	
	
	
	
	
	
	
	
	
</defs><sodipodi:namedview
   pagecolor="#ffffff"
   bordercolor="#666666"
   borderopacity="1"
   objecttolerance="10"
   gridtolerance="10"
   guidetolerance="10"
   inkscape:pageopacity="0"
   inkscape:pageshadow="2"
   inkscape:window-width="1331"
   inkscape:window-height="836"
   id="namedview35"
   showgrid="false"
   inkscape:zoom="4.17193"
   inkscape:cx="42.0143"
   inkscape:cy="39.702143"
   inkscape:window-x="0"
   inkscape:window-y="0"
   inkscape:window-maximized="0"
   inkscape:current-layer="Layer_1" />
<style
   type="text/css"
   id="style2">
<![CDATA[
	.st0{clip-path:url(#SVGID_2_);fill:#E13EAF;}
	.st1{clip-path:url(#SVGID_2_);fill:#4A0D66;}
	.st2{clip-path:url(#SVGID_2_);fill:#B31AAB;}
	.st3{clip-path:url(#SVGID_2_);fill:#D163CE;}
]]>
</style>
<g
   id="g915"
   transform="translate(1.7000005e-8,0.19008904)"><g
     transform="translate(3.7673845,2.3969722)"
     id="g892"><path
       style="fill:#4a0d66"
       inkscape:connector-curvature="0"
       id="path10"
       clip-path="url(#SVGID_2_)"
       d="m 35.5,260.3 c 0,2.2 0.5,4.3 1.5,6.1 1,1.8 2.3,3.4 3.8,4.7 1.6,1.3 3.4,2.3 5.5,3 2.1,0.7 4.3,1.1 6.5,1.1 3,0 5.7,-0.7 7.9,-2.1 2.2,-1.4 4.3,-3.3 6.2,-5.6 l 7.4,5.6 c -5.4,7 -13,10.5 -22.7,10.5 -4,0 -7.7,-0.7 -11,-2.1 -3.3,-1.4 -6.1,-3.3 -8.3,-5.7 -2.3,-2.4 -4,-5.3 -5.2,-8.5 -1.2,-3.3 -1.8,-6.8 -1.8,-10.7 0,-3.8 0.7,-7.4 2,-10.7 1.3,-3.3 3.2,-6.1 5.5,-8.5 2.3,-2.4 5.1,-4.3 8.4,-5.7 3.2,-1.4 6.8,-2.1 10.6,-2.1 4.5,0 8.4,0.8 11.5,2.4 3.1,1.6 5.7,3.7 7.7,6.2 2,2.6 3.5,5.4 4.4,8.7 0.9,3.2 1.4,6.5 1.4,9.8 v 3.5 H 35.5 Z m 30.8,-7.7 c -0.1,-2.2 -0.4,-4.1 -1,-5.9 -0.6,-1.8 -1.5,-3.4 -2.8,-4.7 -1.2,-1.3 -2.8,-2.4 -4.6,-3.1 -1.8,-0.8 -4,-1.1 -6.4,-1.1 -2.4,0 -4.6,0.5 -6.5,1.4 -2,0.9 -3.7,2.1 -5,3.5 -1.4,1.4 -2.4,3 -3.2,4.8 -0.8,1.8 -1.1,3.5 -1.1,5.2 h 30.6 z"
       class="st1"
       transform="matrix(0.21693486,0,0,0.21693486,21.729126,-10.910708)" /><path
       style="fill:#4a0d66"
       inkscape:connector-curvature="0"
       id="path12"
       clip-path="url(#SVGID_2_)"
       d="m 85.1,231.1 h 9.7 V 239 H 95 c 1.2,-2.7 3.4,-5 6.4,-6.6 3,-1.7 6.5,-2.5 10.5,-2.5 2.5,0 4.8,0.4 7.1,1.1 2.3,0.8 4.3,1.9 5.9,3.5 1.7,1.6 3,3.6 4.1,6.1 1,2.5 1.5,5.4 1.5,8.8 v 33 h -9.7 v -30.3 c 0,-2.4 -0.3,-4.4 -1,-6.1 -0.6,-1.7 -1.5,-3.1 -2.6,-4.1 -1.1,-1 -2.3,-1.8 -3.7,-2.3 -1.4,-0.5 -2.9,-0.7 -4.4,-0.7 -2,0 -3.9,0.3 -5.6,1 -1.7,0.7 -3.2,1.7 -4.5,3.1 -1.3,1.4 -2.3,3.2 -3,5.4 -0.7,2.2 -1.1,4.7 -1.1,7.7 v 26.4 h -9.7 v -51.4 z"
       class="st1"
       transform="matrix(0.21693486,0,0,0.21693486,21.729126,-10.910708)" /><polygon
       style="fill:#4a0d66"
       id="polygon14"
       clip-path="url(#SVGID_2_)"
       points="144.9,231.1 160.2,270.4 174.9,231.1 185.3,231.1 165.2,282.4 154.5,282.4 133.6,231.1 "
       class="st1"
       transform="matrix(0.21693486,0,0,0.21693486,21.729126,-10.910708)" /><path
       style="fill:#4a0d66"
       inkscape:connector-curvature="0"
       id="path16"
       clip-path="url(#SVGID_2_)"
       d="m 186,256.8 c 0,-3.7 0.7,-7.2 2.1,-10.5 1.4,-3.2 3.3,-6.1 5.8,-8.5 2.5,-2.4 5.3,-4.4 8.7,-5.8 3.3,-1.4 6.9,-2.1 10.7,-2.1 3.8,0 7.4,0.7 10.7,2.1 3.3,1.4 6.2,3.3 8.7,5.8 2.4,2.5 4.4,5.3 5.8,8.5 1.4,3.2 2.1,6.7 2.1,10.5 0,3.7 -0.7,7.3 -2.1,10.5 -1.4,3.3 -3.3,6.1 -5.8,8.5 -2.5,2.4 -5.3,4.3 -8.7,5.7 -3.3,1.4 -6.9,2.1 -10.7,2.1 -3.8,0 -7.4,-0.7 -10.7,-2.1 -3.3,-1.4 -6.2,-3.3 -8.7,-5.7 -2.5,-2.4 -4.4,-5.3 -5.8,-8.5 -1.4,-3.3 -2.1,-6.8 -2.1,-10.5 m 10.3,0 c 0,2.6 0.4,5 1.2,7.2 0.8,2.2 1.9,4.1 3.4,5.6 1.4,1.6 3.2,2.8 5.3,3.7 2.1,0.9 4.4,1.4 7,1.4 2.6,0 4.9,-0.4 7,-1.4 2.1,-0.9 3.9,-2.1 5.3,-3.7 1.4,-1.5 2.6,-3.4 3.4,-5.6 0.8,-2.2 1.2,-4.6 1.2,-7.2 0,-2.6 -0.4,-5 -1.2,-7.2 -0.8,-2.2 -1.9,-4.1 -3.4,-5.6 -1.4,-1.5 -3.2,-2.8 -5.3,-3.7 -2.1,-0.9 -4.4,-1.4 -7,-1.4 -2.6,0 -4.9,0.5 -7,1.4 -2.1,0.9 -3.9,2.1 -5.3,3.7 -1.4,1.6 -2.6,3.4 -3.4,5.6 -0.8,2.2 -1.2,4.6 -1.2,7.2"
       class="st1"
       transform="matrix(0.21693486,0,0,0.21693486,21.729126,-10.910708)" /><path
       style="fill:#4a0d66"
       inkscape:connector-curvature="0"
       id="path18"
       clip-path="url(#SVGID_2_)"
       d="m 241.2,231.1 h 11.2 l 15.2,40 h 0.2 l 14.6,-40 h 10.4 l -24.3,62.3 c -0.9,2.2 -1.8,4.3 -2.7,6.1 -0.9,1.8 -2,3.4 -3.3,4.7 -1.3,1.3 -2.9,2.3 -4.7,3 -1.8,0.7 -4.1,1.1 -6.7,1.1 -1.4,0 -2.9,-0.1 -4.4,-0.3 -1.5,-0.2 -2.9,-0.6 -4.3,-1.1 l 1.2,-8.9 c 1.9,0.8 3.9,1.2 5.8,1.2 1.5,0 2.8,-0.2 3.8,-0.6 1,-0.4 1.9,-1 2.7,-1.7 0.8,-0.8 1.4,-1.6 1.9,-2.6 0.5,-1 1,-2.2 1.5,-3.5 l 3.2,-8.1 z"
       class="st1"
       transform="matrix(0.21693486,0,0,0.21693486,21.729126,-10.910708)" /></g><g
     transform="translate(3.7783797,8.3894025)"
     id="g900"><polygon
       style="fill:#b31aab"
       id="polygon20"
       clip-path="url(#SVGID_2_)"
       points="117,121.2 116.7,107.6 102.4,98.7 102.7,112.3 "
       class="st2"
       transform="matrix(0.21693486,0,0,0.21693486,21.729126,-10.910708)" /><path
       style="fill:#b31aab"
       inkscape:connector-curvature="0"
       id="path22"
       clip-path="url(#SVGID_2_)"
       d="m 137.3,155.2 -0.3,-13.3 -12.5,-7.8 c -0.2,-0.1 -0.4,-0.3 -0.5,-0.4 l 0.3,13.4 z"
       class="st2"
       transform="matrix(0.21693486,0,0,0.21693486,21.729126,-10.910708)" /><path
       style="fill:#b31aab"
       inkscape:connector-curvature="0"
       id="path24"
       clip-path="url(#SVGID_2_)"
       d="m 92.6,173.1 -32.7,-20.3 -0.8,-34 16,-6.9 -0.3,-13.6 -25.6,11 c -2,0.9 -3.2,2.7 -3.1,4.8 l 1,40.8 c 0,2.1 1.3,4.2 3.3,5.4 l 39.2,24.3 c 1.8,1.1 4,1.4 5.9,0.9 0.2,-0.1 0.4,-0.1 0.6,-0.2 l 24.1,-10.4 -13.1,-8.1 z"
       class="st2"
       transform="matrix(0.21693486,0,0,0.21693486,21.729126,-10.910708)" /><path
       style="fill:#d163ce"
       inkscape:connector-curvature="0"
       id="path26"
       clip-path="url(#SVGID_2_)"
       d="m 198.3,97.9 c -0.1,-2.4 -1.5,-4.9 -3.9,-6.3 l -47.6,-29.5 -1.5,0.6 0.3,14.3 37.7,23.4 0.9,38.2 14.4,8.9 0.8,-0.3 z"
       class="st3"
       transform="matrix(0.21693486,0,0,0.21693486,21.729126,-10.910708)" /><path
       style="fill:#d163ce"
       inkscape:connector-curvature="0"
       id="path28"
       clip-path="url(#SVGID_2_)"
       d="M 141.3,165 97,137.6 95.9,91.6 116.1,82.9 115.7,67 84.4,80.5 c -2.3,1 -3.7,3.1 -3.6,5.6 l 1.3,54 c 0,2.5 1.5,4.9 3.9,6.3 l 51.9,32.2 c 2.1,1.3 4.7,1.7 6.9,1 0.2,-0.1 0.4,-0.2 0.6,-0.2 l 30.6,-13.2 -15.2,-9.4 z"
       class="st3"
       transform="matrix(0.21693486,0,0,0.21693486,21.729126,-10.910708)" /><path
       style="fill:#e13eaf"
       inkscape:connector-curvature="0"
       id="path30"
       clip-path="url(#SVGID_2_)"
       d="M 265.8,60.1 199.3,18.9 c -2.5,-1.5 -5.4,-1.9 -7.9,-1.1 -0.2,0.1 -0.5,0.2 -0.7,0.3 l -64.9,28 c -2.6,1.1 -4.2,3.5 -4.1,6.4 l 1.6,69.2 c 0.1,2.8 1.8,5.6 4.5,7.2 l 66.5,41.2 c 2.4,1.5 5.4,1.9 7.9,1.1 0.2,-0.1 0.5,-0.2 0.7,-0.3 l 64.9,-28 c 2.6,-1.1 4.2,-3.6 4.1,-6.4 l -1.6,-69.2 c -0.1,-2.8 -1.8,-5.5 -4.5,-7.2 m -67.6,94.5 -57.8,-35.8 -1.4,-60.1 56.4,-24.3 57.8,35.8 1.4,60.1 z"
       class="st0"
       transform="matrix(0.21693486,0,0,0.21693486,21.729126,-10.910708)" /></g></g>
</svg>